<svg preserveAspectRatio="none" width="100%" height="100%" overflow="visible" style="display: block;" viewBox="0 0 126 27" fill="none" xmlns="http://www.w3.org/2000/svg">
<g id="Logo" style="mix-blend-mode:overlay" filter="url(#filter0_dd_1503_24027)">
<path d="M15.3037 18.2865C15.8567 17.6864 16.8247 17.6864 17.4237 18.2865L17.8843 18.7945C18.4834 19.3486 18.4834 20.3182 17.8843 20.9184L14.5206 24.3351C13.9676 24.9353 12.9997 24.9352 12.4006 24.3351L11.8935 23.8271C11.2946 23.2731 11.2946 22.3034 11.8935 21.7032L15.3037 18.2865ZM73.9665 10.5304V19.6255C73.9665 20.595 74.3351 21.1491 75.0262 21.3338L75.2568 21.4264V22.2113H71.0173V20.9644C68.9437 22.3033 67.0081 22.8112 65.6257 22.3034C64.7962 22.0264 64.1972 21.2877 63.9668 20.3182C63.8746 19.9489 63.8283 19.6257 63.7823 18.7485V14.1314C63.7823 13.6697 63.782 12.8848 63.2752 12.377C63.1825 12.2843 62.538 11.7768 62.538 11.7768V11.1306L66.4088 10.3457L66.7774 10.5765V18.2865C66.7774 19.3484 67.1465 20.0871 67.7916 20.4103C68.575 20.7796 69.7732 20.4568 71.0173 19.4873V14.0853C71.0173 13.6236 71.0171 12.8388 70.5102 12.3309C70.4188 12.2393 69.7828 11.7384 69.7731 11.7307V11.084L73.6439 10.2992L73.9665 10.5304ZM50.2343 10.2071C52.1696 10.2071 53.7823 10.8073 54.9344 11.9615C56.0403 13.0234 56.5932 14.5472 56.5932 16.3478C56.5932 18.0098 55.9483 19.5796 54.8423 20.6876C53.6903 21.888 52.0775 22.4881 50.2343 22.4881C46.3635 22.4881 43.875 20.0874 43.8749 16.3478C43.8749 12.8389 46.5938 10.2071 50.2343 10.2071ZM98.4823 4.43569V11.5C99.5883 10.8536 101.432 10.0222 103.229 10.4839C104.519 10.8071 105.579 11.6844 106.409 13.1618C106.961 14.2237 107.284 16.1167 106.639 18.0097C106.178 19.2101 105.164 20.8722 102.814 21.8879C100.694 22.7651 97.7911 22.6266 95.5792 21.4725L95.4407 21.3799V7.94456C95.4407 7.48291 95.4407 6.74446 94.98 6.23666C94.8879 6.14432 94.2424 5.63602 94.2424 5.63602V4.9898L98.1137 4.20493L98.4823 4.43569ZM36.6399 4.06628C38.1145 3.97396 41.2017 4.38972 42.8607 5.3592L42.9993 5.4518C42.9996 5.48738 43.0451 9.60771 42.9993 9.79159L42.9532 9.9763L41.709 10.0224L41.663 9.65295C41.4325 8.45252 40.9254 5.22095 36.4093 5.4518C34.4739 5.54417 32.9534 6.5136 31.7553 8.03716C30.3728 9.88394 29.9119 12.4693 30.557 15.2857C31.1561 18.0096 33.2296 19.7639 34.8425 20.4103C35.5337 20.6873 37.6536 21.149 39.2664 20.4103C40.6949 19.764 42.0315 18.7024 42.6767 17.9176C42.7691 18.0565 43.2298 18.7485 43.2298 18.7485C42.9533 19.8104 42.3081 21.2417 42.3081 21.2417H42.2156C39.6811 22.2574 35.8101 23.0881 31.6168 21.3799C29.1284 20.3641 27.331 18.379 26.5937 15.8398C25.8564 13.1619 26.3636 10.2993 27.9765 8.08321C29.7737 5.63626 32.6768 4.29713 36.6399 4.06628ZM60.9712 4.48223V19.8567C61.0173 21.3339 62.0314 21.4264 62.0314 21.4264V22.3495L57.976 22.3034V7.9911C57.976 7.52942 57.9758 6.74453 57.4689 6.23666C57.2385 6.05198 57.0082 5.8207 56.7317 5.63602V5.03585L60.6026 4.25099L60.9712 4.48223ZM117.791 10.5765C119.127 10.1609 120.279 10.2531 121.109 10.8533C121.984 11.5458 122.491 12.7464 122.491 14.3161V19.7181C122.491 20.4105 122.814 20.8262 122.998 20.8723L123.228 20.9184C123.228 20.9184 123.228 21.4621 123.228 21.5646C123.218 21.5653 122.581 21.6116 122.26 21.7032C118.205 22.6266 115.44 22.4418 114.288 21.1952C113.551 20.3642 113.459 19.2099 113.966 17.6403L114.012 17.5482L114.104 17.5016L119.634 15.0549V14.3621C119.634 13.2542 119.449 12.4694 119.035 12.1462C118.758 11.9154 118.344 11.8692 117.744 11.9615C117.145 12.1 116.454 12.608 116.454 13.6699V14.4087H113.828L113.736 14.3621C113.643 14.2699 113.459 13.9931 113.413 13.8546L113.367 13.7159L113.459 13.6238C113.828 13.1621 116.224 11.0844 117.791 10.5765ZM80.1873 10.5765V11.7307C81.2011 10.8535 82.3074 10.3918 83.5055 10.3918C85.0262 10.3918 85.8094 11.2229 86.2242 12.1001C86.8232 11.4999 88.0676 10.3918 89.957 10.3918C92.4915 10.3918 93.1366 12.7926 93.1366 14.0853V19.6255C93.1366 20.595 93.5053 21.1953 94.1504 21.3338L94.4269 21.4725V22.2574H90.2335V15.3317C90.2335 13.0235 89.5883 12.5618 88.9432 12.5156C88.1138 12.4233 87.3765 12.5616 86.6392 13.2079C86.6853 13.531 86.7312 13.9928 86.7313 14.1314V19.672C86.7313 20.6414 87.0538 21.2414 87.745 21.3799L87.9295 21.4264V22.2113H83.7361V15.2857C83.7361 12.9772 83.0905 12.5157 82.4453 12.4695C81.662 12.4234 80.9246 12.5155 80.1873 13.1618V19.7181C80.1874 20.6876 80.5564 21.2879 81.2015 21.4264L81.4316 21.4725V22.2574H77.2382V14.1314C77.2382 13.6697 77.2384 12.8848 76.7316 12.377C76.6394 12.2846 75.9939 11.7768 75.9939 11.7768V11.1306L79.8648 10.3457L80.1873 10.5765ZM111.57 10.5304V19.672C111.616 20.6876 111.938 21.2414 112.583 21.3799L112.767 21.4264V22.2113H108.574V13.9927C108.574 13.5311 108.574 12.7926 108.113 12.2848C108.022 12.1935 107.39 11.6954 107.376 11.6847V11.084L111.247 10.2992L111.57 10.5304ZM12.2161 15.1936C12.8151 14.5933 13.737 14.5933 14.336 15.1936L14.8431 15.7011C15.4421 16.2551 15.4421 17.2248 14.8431 17.825L11.4329 21.2417C10.8338 21.8419 9.91199 21.8419 9.31295 21.2417L8.80632 20.7337C8.20725 20.1335 8.20725 19.21 8.80632 18.6098L12.2161 15.1936ZM116.777 18.1023C116.27 19.1179 116.454 20.2261 117.145 20.8263C117.79 21.3341 118.712 21.2879 119.634 20.6416V16.486L116.777 18.1023ZM50.2343 11.4534C47.8842 11.4534 47.2387 14.0852 47.2387 16.3013C47.2387 19.3023 47.8841 21.1491 50.2343 21.1491C52.5843 21.149 53.2295 19.3022 53.2295 16.3013C53.2294 14.0852 52.5843 11.4536 50.2343 11.4534ZM102.031 12.7003C100.418 11.8693 99.2195 12.5153 98.5743 12.8385L98.4363 12.885V17.7789C98.4363 19.5795 99.0353 20.6873 100.095 21.0105C101.155 21.3336 102.537 20.6875 103.182 19.5333C104.012 18.1022 104.289 16.4401 103.874 15.0088C103.551 13.9932 102.906 13.162 102.031 12.7003ZM3.1381 12.377C3.73717 11.7768 4.65899 11.7768 5.25805 12.377L8.6678 15.7937C9.26687 16.3939 9.26687 17.3174 8.6678 17.9176L8.20719 18.4251C7.60813 19.0253 6.68631 19.0253 6.08724 18.4251L2.67749 15.0088C2.07842 14.4086 2.07842 13.439 2.67749 12.885L3.1381 12.377ZM15.3037 12.2848C15.9028 11.6846 16.8246 11.6846 17.4237 12.2848L20.8334 15.7011C21.4325 16.2552 21.4325 17.2248 20.8334 17.825L20.3268 18.333C19.7738 18.9332 18.8059 18.9332 18.2069 18.333L14.7971 14.9163C14.1981 14.3622 14.1981 13.3926 14.7971 12.7924L15.3037 12.2848ZM6.22576 9.28354C6.82479 8.68351 7.74621 8.6835 8.34523 9.28354L11.7555 12.7003C12.3545 13.2543 12.3545 14.224 11.7555 14.8241L11.2484 15.3317C10.6954 15.9319 9.72796 15.9319 9.12889 15.3317L5.71866 11.9154C5.11961 11.3614 5.11965 10.3918 5.71866 9.79159L6.22576 9.28354ZM18.3914 9.23748C18.9904 8.63736 19.9118 8.63739 20.5109 9.23748L23.9211 12.6542C24.5201 13.2544 24.5201 14.1774 23.9211 14.7776L23.4145 15.2857C22.8615 15.8859 21.8936 15.8859 21.2945 15.2857L17.8843 11.8694C17.2853 11.2692 17.2854 10.3457 17.8843 9.74554L18.3914 9.23748ZM15.3037 6.28272C15.9028 5.68251 16.8246 5.68251 17.4237 6.28272L17.8843 6.79029C18.4834 7.39049 18.4833 8.31393 17.8843 8.91413L14.4745 12.3309C13.9216 12.9311 12.9537 12.931 12.3546 12.3309L11.8475 11.8228C11.2486 11.2688 11.2485 10.2992 11.8475 9.699L15.3037 6.28272ZM12.2161 3.23536C12.8151 2.63517 13.737 2.6352 14.336 3.23536L14.8431 3.74341C15.442 4.29747 15.4422 5.2671 14.8431 5.86726L11.4329 9.28354C10.8338 9.88374 9.91201 9.88374 9.31295 9.28354L8.80632 8.77597C8.20726 8.22194 8.20727 7.25233 8.80632 6.65212L12.2161 3.23536ZM108.39 6.65212C108.39 4.57449 111.524 4.57449 111.524 6.65212C111.523 8.72956 108.39 8.72956 108.39 6.65212Z" fill="url(#paint0_linear_1503_24027)"/>
</g>
<defs>
<filter id="filter0_dd_1503_24027" x="-1.02445e-08" y="1.08888e-07" width="125.456" height="26.8277" filterUnits="userSpaceOnUse" color-interpolation-filters="sRGB">
<feFlood flood-opacity="0" result="BackgroundImageFix"/>
<feColorMatrix in="SourceAlpha" type="matrix" values="0 0 0 0 0 0 0 0 0 0 0 0 0 0 0 0 0 0 127 0" result="hardAlpha"/>
<feOffset dy="0.557046"/>
<feGaussianBlur stdDeviation="0.742728"/>
<feComposite in2="hardAlpha" operator="out"/>
<feColorMatrix type="matrix" values="0 0 0 0 0 0 0 0 0 0 0 0 0 0 0 0 0 0 0.5 0"/>
<feBlend mode="normal" in2="BackgroundImageFix" result="effect1_dropShadow_1503_24027"/>
<feColorMatrix in="SourceAlpha" type="matrix" values="0 0 0 0 0 0 0 0 0 0 0 0 0 0 0 0 0 0 127 0" result="hardAlpha"/>
<feOffset dy="-0.557046"/>
<feGaussianBlur stdDeviation="1.11409"/>
<feComposite in2="hardAlpha" operator="out"/>
<feColorMatrix type="matrix" values="0 0 0 0 1 0 0 0 0 1 0 0 0 0 1 0 0 0 0.5 0"/>
<feBlend mode="normal" in2="effect1_dropShadow_1503_24027" result="effect2_dropShadow_1503_24027"/>
<feBlend mode="normal" in="SourceGraphic" in2="effect2_dropShadow_1503_24027" result="shape"/>
</filter>
<linearGradient id="paint0_linear_1503_24027" x1="62.7282" y1="2.78523" x2="62.7282" y2="24.7852" gradientUnits="userSpaceOnUse">
<stop stop-color="white"/>
<stop offset="1" stop-color="#CACACA"/>
</linearGradient>
</defs>
</svg>
