<svg preserveAspectRatio="none" width="100%" height="100%" overflow="visible" style="display: block;" viewBox="0 0 35 33" fill="none" xmlns="http://www.w3.org/2000/svg">
<g id="Logo container" style="mix-blend-mode:overlay" filter="url(#filter0_ddiiiii_1417_11765)">
<g id="Union">
<mask id="path-1-inside-1_1417_11765" fill="white">
<path d="M16.6334 30.8721H11.3375C11.2808 30.8721 11.2261 30.8675 11.1744 30.8584C10.8121 30.7946 10.5807 30.5141 10.5807 30.1191V24.0938H16.6334V30.8721ZM24.1979 24.0938V30.1191C24.1979 30.5705 23.8943 30.8721 23.441 30.8721H18.1451V24.0938H24.1979ZM20.4908 14.3018C20.5426 14.3018 20.5944 14.3028 20.6461 14.3057C21.4253 14.3494 22.1839 14.7206 22.609 15.3564C23.0621 16.0345 23.1384 16.9385 22.8355 17.6914L22.7604 17.9922C22.6372 18.3113 22.4491 18.5901 22.2184 18.8213H24.9537C25.4069 18.8213 25.7094 19.1231 25.7096 19.5742V21.835C25.7094 22.2861 25.4069 22.5879 24.9537 22.5879H18.1451V19.5742H16.6334V22.5879H9.82481L9.66172 22.5732C9.30038 22.5092 9.06812 22.2296 9.06797 21.835V19.5742C9.06812 19.1231 9.37161 18.8213 9.82481 18.8213H12.5357C12.316 18.6061 12.1371 18.3516 12.0182 18.0674L11.943 17.7656C11.6401 16.9368 11.7152 16.1087 12.1695 15.4307C12.5956 14.7247 13.3533 14.3497 14.1324 14.3057C14.1841 14.3027 14.2359 14.3018 14.2877 14.3018C14.3492 14.3018 14.4109 14.3039 14.4723 14.3086C15.3302 14.3738 16.1602 14.8898 16.5553 15.7041C16.5835 15.7623 16.6097 15.8226 16.6334 15.8838V15.8828L17.3697 17.7754L18.1451 15.8838C18.4996 14.9653 19.3198 14.3784 20.2936 14.3086C20.3585 14.3039 20.4246 14.3018 20.4908 14.3018ZM20.3463 15.8193C20.2034 15.8405 20.0661 15.8923 19.9449 15.9727C19.7834 16.0798 19.6574 16.2328 19.5826 16.4111L19.5836 16.4121L18.9029 18.0684H20.4156C20.6096 18.0682 20.7991 18.0113 20.9605 17.9043C21.122 17.7972 21.248 17.645 21.3229 17.4668L21.398 17.165C21.5495 16.8634 21.4743 16.5624 21.3229 16.2607C21.1236 15.997 20.8678 15.8485 20.6041 15.8154L20.4908 15.8086C20.4424 15.8086 20.3938 15.8123 20.3463 15.8193ZM14.151 15.8145C13.8377 15.8474 13.5892 15.9959 13.4566 16.2598C13.23 16.4854 13.2301 16.8624 13.3053 17.1641L13.4566 17.4658C13.5315 17.6439 13.6576 17.7963 13.8189 17.9033C13.9803 18.0104 14.17 18.0672 14.3639 18.0674H15.8766L15.1959 16.4111L15.1969 16.4092C15.1221 16.231 14.996 16.0788 14.8346 15.9717C14.7134 15.8913 14.5761 15.8395 14.4332 15.8184L14.2887 15.8076C14.2416 15.8076 14.1956 15.8098 14.151 15.8145ZM32.7281 12.1592C32.8212 12.1841 32.9087 12.2274 32.985 12.2861C33.0613 12.3449 33.1257 12.4185 33.1734 12.502C33.2705 12.6706 33.2969 12.8707 33.2467 13.0586C33.1964 13.2466 33.0736 13.4077 32.9049 13.5059V13.5068L29.0934 15.7109C29.0101 15.7592 28.9174 15.7901 28.8219 15.8027C28.7265 15.8153 28.6296 15.809 28.5367 15.7842C28.4436 15.7592 28.3562 15.716 28.2799 15.6572C28.2036 15.5985 28.1391 15.5258 28.0914 15.4424C27.9941 15.2736 27.9678 15.0728 28.0182 14.8848C28.0685 14.6968 28.1913 14.5357 28.36 14.4375L32.1715 12.2334C32.2548 12.185 32.3473 12.1533 32.443 12.1406C32.5383 12.128 32.6352 12.1343 32.7281 12.1592ZM2.32871 12.1396C2.4243 12.1523 2.51687 12.1831 2.6002 12.2314L6.41074 14.4365C6.5795 14.5347 6.70222 14.6957 6.75254 14.8838C6.80282 15.0718 6.77654 15.2717 6.6793 15.4404V15.4395C6.63161 15.5229 6.5681 15.5965 6.4918 15.6553C6.41549 15.714 6.32812 15.7572 6.23496 15.7822C6.14182 15.8072 6.04444 15.8134 5.94883 15.8008C5.85324 15.7881 5.76067 15.7563 5.67735 15.708L1.8668 13.5039C1.6982 13.4057 1.57535 13.2455 1.525 13.0576C1.47468 12.8696 1.50094 12.6688 1.59824 12.5C1.64585 12.4167 1.70966 12.3438 1.78574 12.2852C1.86201 12.2264 1.94948 12.1832 2.04258 12.1582C2.13573 12.1332 2.23308 12.127 2.32871 12.1396ZM8.47617 4.57422C8.56928 4.59918 8.65673 4.64245 8.73301 4.70117C8.80932 4.75994 8.8738 4.83349 8.92149 4.91699L11.1217 8.73438C11.2188 8.90301 11.2451 9.10315 11.1949 9.29102C11.1446 9.47897 11.0217 9.64007 10.8531 9.73828C10.7698 9.78664 10.6773 9.81838 10.5816 9.83105C10.486 9.84372 10.3887 9.8365 10.2955 9.81152C10.2025 9.78655 10.1149 9.74424 10.0387 9.68555C9.96242 9.62682 9.89885 9.55315 9.85117 9.46973L7.65098 5.65234C7.55367 5.48356 7.52741 5.28278 7.57774 5.09473C7.62808 4.90672 7.75081 4.74564 7.91953 4.64746C8.00283 4.59917 8.09547 4.56832 8.19102 4.55566C8.2864 4.54307 8.38325 4.54936 8.47617 4.57422ZM26.5807 4.55469C26.6762 4.56737 26.7688 4.59815 26.8521 4.64648C27.0208 4.74469 27.1436 4.90576 27.1939 5.09375C27.2442 5.28162 27.2178 5.48173 27.1207 5.65039L24.9205 9.46875C24.8728 9.55222 24.8083 9.62484 24.732 9.68359C24.6557 9.74236 24.5683 9.78557 24.4752 9.81055C24.3822 9.83542 24.2855 9.8417 24.19 9.8291C24.0945 9.81644 24.0019 9.78563 23.9186 9.7373C23.7498 9.6391 23.6271 9.47809 23.5768 9.29004C23.5265 9.10207 23.5528 8.90212 23.65 8.7334L25.8502 4.91504C25.8978 4.83178 25.9616 4.75885 26.0377 4.7002C26.114 4.64145 26.2014 4.59823 26.2945 4.57324C26.3877 4.54826 26.485 4.54202 26.5807 4.55469ZM17.3854 2.25C17.7897 2.25024 18.1176 2.5794 18.1178 2.98535V7.39453C18.1177 7.80056 17.7898 8.12964 17.3854 8.12988C16.9807 8.12988 16.652 7.80071 16.652 7.39453V2.98535C16.6521 2.57925 16.9808 2.25 17.3854 2.25Z"/>
</mask>
<path d="M16.6334 30.8721H11.3375C11.2808 30.8721 11.2261 30.8675 11.1744 30.8584C10.8121 30.7946 10.5807 30.5141 10.5807 30.1191V24.0938H16.6334V30.8721ZM24.1979 24.0938V30.1191C24.1979 30.5705 23.8943 30.8721 23.441 30.8721H18.1451V24.0938H24.1979ZM20.4908 14.3018C20.5426 14.3018 20.5944 14.3028 20.6461 14.3057C21.4253 14.3494 22.1839 14.7206 22.609 15.3564C23.0621 16.0345 23.1384 16.9385 22.8355 17.6914L22.7604 17.9922C22.6372 18.3113 22.4491 18.5901 22.2184 18.8213H24.9537C25.4069 18.8213 25.7094 19.1231 25.7096 19.5742V21.835C25.7094 22.2861 25.4069 22.5879 24.9537 22.5879H18.1451V19.5742H16.6334V22.5879H9.82481L9.66172 22.5732C9.30038 22.5092 9.06812 22.2296 9.06797 21.835V19.5742C9.06812 19.1231 9.37161 18.8213 9.82481 18.8213H12.5357C12.316 18.6061 12.1371 18.3516 12.0182 18.0674L11.943 17.7656C11.6401 16.9368 11.7152 16.1087 12.1695 15.4307C12.5956 14.7247 13.3533 14.3497 14.1324 14.3057C14.1841 14.3027 14.2359 14.3018 14.2877 14.3018C14.3492 14.3018 14.4109 14.3039 14.4723 14.3086C15.3302 14.3738 16.1602 14.8898 16.5553 15.7041C16.5835 15.7623 16.6097 15.8226 16.6334 15.8838V15.8828L17.3697 17.7754L18.1451 15.8838C18.4996 14.9653 19.3198 14.3784 20.2936 14.3086C20.3585 14.3039 20.4246 14.3018 20.4908 14.3018ZM20.3463 15.8193C20.2034 15.8405 20.0661 15.8923 19.9449 15.9727C19.7834 16.0798 19.6574 16.2328 19.5826 16.4111L19.5836 16.4121L18.9029 18.0684H20.4156C20.6096 18.0682 20.7991 18.0113 20.9605 17.9043C21.122 17.7972 21.248 17.645 21.3229 17.4668L21.398 17.165C21.5495 16.8634 21.4743 16.5624 21.3229 16.2607C21.1236 15.997 20.8678 15.8485 20.6041 15.8154L20.4908 15.8086C20.4424 15.8086 20.3938 15.8123 20.3463 15.8193ZM14.151 15.8145C13.8377 15.8474 13.5892 15.9959 13.4566 16.2598C13.23 16.4854 13.2301 16.8624 13.3053 17.1641L13.4566 17.4658C13.5315 17.6439 13.6576 17.7963 13.8189 17.9033C13.9803 18.0104 14.17 18.0672 14.3639 18.0674H15.8766L15.1959 16.4111L15.1969 16.4092C15.1221 16.231 14.996 16.0788 14.8346 15.9717C14.7134 15.8913 14.5761 15.8395 14.4332 15.8184L14.2887 15.8076C14.2416 15.8076 14.1956 15.8098 14.151 15.8145ZM32.7281 12.1592C32.8212 12.1841 32.9087 12.2274 32.985 12.2861C33.0613 12.3449 33.1257 12.4185 33.1734 12.502C33.2705 12.6706 33.2969 12.8707 33.2467 13.0586C33.1964 13.2466 33.0736 13.4077 32.9049 13.5059V13.5068L29.0934 15.7109C29.0101 15.7592 28.9174 15.7901 28.8219 15.8027C28.7265 15.8153 28.6296 15.809 28.5367 15.7842C28.4436 15.7592 28.3562 15.716 28.2799 15.6572C28.2036 15.5985 28.1391 15.5258 28.0914 15.4424C27.9941 15.2736 27.9678 15.0728 28.0182 14.8848C28.0685 14.6968 28.1913 14.5357 28.36 14.4375L32.1715 12.2334C32.2548 12.185 32.3473 12.1533 32.443 12.1406C32.5383 12.128 32.6352 12.1343 32.7281 12.1592ZM2.32871 12.1396C2.4243 12.1523 2.51687 12.1831 2.6002 12.2314L6.41074 14.4365C6.5795 14.5347 6.70222 14.6957 6.75254 14.8838C6.80282 15.0718 6.77654 15.2717 6.6793 15.4404V15.4395C6.63161 15.5229 6.5681 15.5965 6.4918 15.6553C6.41549 15.714 6.32812 15.7572 6.23496 15.7822C6.14182 15.8072 6.04444 15.8134 5.94883 15.8008C5.85324 15.7881 5.76067 15.7563 5.67735 15.708L1.8668 13.5039C1.6982 13.4057 1.57535 13.2455 1.525 13.0576C1.47468 12.8696 1.50094 12.6688 1.59824 12.5C1.64585 12.4167 1.70966 12.3438 1.78574 12.2852C1.86201 12.2264 1.94948 12.1832 2.04258 12.1582C2.13573 12.1332 2.23308 12.127 2.32871 12.1396ZM8.47617 4.57422C8.56928 4.59918 8.65673 4.64245 8.73301 4.70117C8.80932 4.75994 8.8738 4.83349 8.92149 4.91699L11.1217 8.73438C11.2188 8.90301 11.2451 9.10315 11.1949 9.29102C11.1446 9.47897 11.0217 9.64007 10.8531 9.73828C10.7698 9.78664 10.6773 9.81838 10.5816 9.83105C10.486 9.84372 10.3887 9.8365 10.2955 9.81152C10.2025 9.78655 10.1149 9.74424 10.0387 9.68555C9.96242 9.62682 9.89885 9.55315 9.85117 9.46973L7.65098 5.65234C7.55367 5.48356 7.52741 5.28278 7.57774 5.09473C7.62808 4.90672 7.75081 4.74564 7.91953 4.64746C8.00283 4.59917 8.09547 4.56832 8.19102 4.55566C8.2864 4.54307 8.38325 4.54936 8.47617 4.57422ZM26.5807 4.55469C26.6762 4.56737 26.7688 4.59815 26.8521 4.64648C27.0208 4.74469 27.1436 4.90576 27.1939 5.09375C27.2442 5.28162 27.2178 5.48173 27.1207 5.65039L24.9205 9.46875C24.8728 9.55222 24.8083 9.62484 24.732 9.68359C24.6557 9.74236 24.5683 9.78557 24.4752 9.81055C24.3822 9.83542 24.2855 9.8417 24.19 9.8291C24.0945 9.81644 24.0019 9.78563 23.9186 9.7373C23.7498 9.6391 23.6271 9.47809 23.5768 9.29004C23.5265 9.10207 23.5528 8.90212 23.65 8.7334L25.8502 4.91504C25.8978 4.83178 25.9616 4.75885 26.0377 4.7002C26.114 4.64145 26.2014 4.59823 26.2945 4.57324C26.3877 4.54826 26.485 4.54202 26.5807 4.55469ZM17.3854 2.25C17.7897 2.25024 18.1176 2.5794 18.1178 2.98535V7.39453C18.1177 7.80056 17.7898 8.12964 17.3854 8.12988C16.9807 8.12988 16.652 7.80071 16.652 7.39453V2.98535C16.6521 2.57925 16.9808 2.25 17.3854 2.25Z" fill="url(#paint0_linear_1417_11765)"/>
<path d="M16.6334 30.8721V31.1221H16.8834V30.8721H16.6334ZM11.1744 30.8584L11.131 31.1046L11.1744 30.8584ZM10.5807 24.0938V23.8438H10.3307V24.0938H10.5807ZM16.6334 24.0938H16.8834V23.8438H16.6334V24.0938ZM24.1979 24.0938H24.4479V23.8438H24.1979V24.0938ZM18.1451 30.8721H17.8951V31.1221H18.1451V30.8721ZM18.1451 24.0938V23.8438H17.8951V24.0938H18.1451ZM20.4908 14.3018L20.4909 14.0518H20.4908V14.3018ZM20.6461 14.3057L20.6601 14.0561L20.6461 14.3057ZM22.609 15.3564L22.8168 15.2175L22.8168 15.2175L22.609 15.3564ZM22.8355 17.6914L22.6036 17.5981L22.5972 17.6141L22.593 17.6308L22.8355 17.6914ZM22.7604 17.9922L22.9936 18.0822L22.9991 18.0678L23.0029 18.0528L22.7604 17.9922ZM22.2184 18.8213L22.0414 18.6447L21.6158 19.0713H22.2184V18.8213ZM25.7096 19.5742L25.9596 19.5742L25.9596 19.5741L25.7096 19.5742ZM25.7096 21.835L25.9596 21.8351V21.835H25.7096ZM18.1451 22.5879H17.8951V22.8379H18.1451V22.5879ZM18.1451 19.5742H18.3951V19.3242H18.1451V19.5742ZM16.6334 19.5742V19.3242H16.3834V19.5742H16.6334ZM16.6334 22.5879V22.8379H16.8834V22.5879H16.6334ZM9.82481 22.5879L9.80244 22.8369L9.8136 22.8379H9.82481V22.5879ZM9.66172 22.5732L9.61812 22.8194L9.62868 22.8213L9.63935 22.8222L9.66172 22.5732ZM9.06797 21.835L8.81797 21.835L8.81797 21.8351L9.06797 21.835ZM9.06797 19.5742L8.81797 19.5741V19.5742H9.06797ZM12.5357 18.8213V19.0713H13.1484L12.7107 18.6427L12.5357 18.8213ZM12.0182 18.0674L11.7756 18.1278L11.7802 18.1463L11.7875 18.1639L12.0182 18.0674ZM11.943 17.7656L12.1856 17.7052L12.1823 17.6923L12.1778 17.6798L11.943 17.7656ZM12.1695 15.4307L12.3774 15.57L12.3836 15.5599L12.1695 15.4307ZM14.1324 14.3057L14.1465 14.5553L14.1324 14.3057ZM14.2877 14.3018L14.2877 14.0518L14.2877 14.0518L14.2877 14.3018ZM14.4723 14.3086L14.4912 14.0593L14.4723 14.3086ZM16.5553 15.7041L16.3303 15.8132L16.5553 15.7041ZM16.6334 15.8838L16.4002 15.9739L16.8834 15.8838H16.6334ZM16.6334 15.8828L16.8664 15.7922L16.3834 15.8828H16.6334ZM17.3697 17.7754L17.1367 17.866L17.3637 18.4493L17.601 17.8702L17.3697 17.7754ZM18.1451 15.8838L18.3765 15.9786L18.3784 15.9738L18.1451 15.8838ZM20.2936 14.3086L20.3114 14.558L20.2936 14.3086ZM20.3463 15.8193L20.3097 15.572L20.3463 15.8193ZM19.9449 15.9727L19.8067 15.7643L19.8067 15.7643L19.9449 15.9727ZM19.5826 16.4111L19.3521 16.3144L19.2872 16.4692L19.4058 16.5879L19.5826 16.4111ZM19.5836 16.4121L19.8148 16.5071L19.8781 16.3531L19.7604 16.2353L19.5836 16.4121ZM18.9029 18.0684L18.6717 17.9733L18.5299 18.3184H18.9029V18.0684ZM20.4156 18.0684L20.4156 18.3184L20.4158 18.3184L20.4156 18.0684ZM20.9605 17.9043L21.0987 18.1126L21.0987 18.1126L20.9605 17.9043ZM21.3229 17.4668L21.5534 17.5636L21.5608 17.5459L21.5654 17.5272L21.3229 17.4668ZM21.398 17.165L21.1746 17.0528L21.1622 17.0777L21.1555 17.1046L21.398 17.165ZM21.3229 16.2607L21.5463 16.1486L21.5361 16.1282L21.5223 16.1101L21.3229 16.2607ZM20.6041 15.8154L20.6352 15.5674L20.6272 15.5664L20.6192 15.5659L20.6041 15.8154ZM20.4908 15.8086L20.5059 15.559L20.4983 15.5586L20.4908 15.5586L20.4908 15.8086ZM14.151 15.8145L14.1771 16.0631L14.151 15.8145ZM13.4566 16.2598L13.633 16.4369L13.6618 16.4083L13.68 16.372L13.4566 16.2598ZM13.3053 17.1641L13.0627 17.2245L13.0694 17.2514L13.0818 17.2762L13.3053 17.1641ZM13.4566 17.4658L13.6871 17.369L13.6839 17.3612L13.6801 17.3537L13.4566 17.4658ZM13.8189 17.9033L13.6807 18.1116L13.6808 18.1117L13.8189 17.9033ZM14.3639 18.0674L14.3637 18.3174H14.3639V18.0674ZM15.8766 18.0674V18.3174H16.2496L16.1078 17.9724L15.8766 18.0674ZM15.1959 16.4111L14.9723 16.2993L14.9215 16.401L14.9647 16.5062L15.1959 16.4111ZM15.1969 16.4092L15.4205 16.521L15.4718 16.4183L15.4274 16.3124L15.1969 16.4092ZM14.8346 15.9717L14.9728 15.7634L14.9728 15.7634L14.8346 15.9717ZM14.4332 15.8184L14.4697 15.571L14.4608 15.5697L14.4517 15.569L14.4332 15.8184ZM14.2887 15.8076L14.3072 15.5583L14.2979 15.5576L14.2886 15.5576L14.2887 15.8076ZM32.7281 12.1592L32.7929 11.9177L32.7927 11.9177L32.7281 12.1592ZM32.985 12.2861L33.1375 12.0881L33.1375 12.088L32.985 12.2861ZM33.1734 12.502L32.9563 12.6259L32.9568 12.6267L33.1734 12.502ZM33.2467 13.0586L33.4882 13.1232L33.4882 13.1232L33.2467 13.0586ZM32.9049 13.5059L32.7791 13.2898L32.6549 13.3621V13.5059H32.9049ZM32.9049 13.5068L33.03 13.7233L33.1549 13.6511V13.5068H32.9049ZM29.0934 15.7109L28.9682 15.4945L28.968 15.4946L29.0934 15.7109ZM28.8219 15.8027L28.8546 16.0506L28.8547 16.0506L28.8219 15.8027ZM28.5367 15.7842L28.472 16.0256L28.4721 16.0257L28.5367 15.7842ZM28.2799 15.6572L28.1273 15.8553L28.1274 15.8553L28.2799 15.6572ZM28.0914 15.4424L28.3085 15.3183L28.308 15.3175L28.0914 15.4424ZM28.0182 14.8848L27.7767 14.8201L27.7767 14.8201L28.0182 14.8848ZM28.36 14.4375L28.2348 14.2211L28.2342 14.2215L28.36 14.4375ZM32.1715 12.2334L32.2966 12.4498L32.2969 12.4496L32.1715 12.2334ZM32.443 12.1406L32.4103 11.8928L32.4101 11.8928L32.443 12.1406ZM2.32871 12.1396L2.36158 11.8918L2.36154 11.8918L2.32871 12.1396ZM2.6002 12.2314L2.47474 12.4477L2.47498 12.4478L2.6002 12.2314ZM6.41074 14.4365L6.53648 14.2204L6.53596 14.2201L6.41074 14.4365ZM6.75254 14.8838L6.99405 14.8192L6.99404 14.8192L6.75254 14.8838ZM6.6793 15.4404H6.4293V16.3749L6.8959 15.5653L6.6793 15.4404ZM6.6793 15.4395H6.9293V14.4976L6.46221 15.3155L6.6793 15.4395ZM6.4918 15.6553L6.64435 15.8533L6.64435 15.8533L6.4918 15.6553ZM6.23496 15.7822L6.2997 16.0237L6.29971 16.0237L6.23496 15.7822ZM5.94883 15.8008L5.91596 16.0486L5.916 16.0486L5.94883 15.8008ZM5.67735 15.708L5.8028 15.4918L5.80252 15.4916L5.67735 15.708ZM1.8668 13.5039L1.741 13.72L1.74162 13.7203L1.8668 13.5039ZM1.525 13.0576L1.2835 13.1222L1.28352 13.1223L1.525 13.0576ZM1.59824 12.5L1.81483 12.6249L1.81527 12.6241L1.59824 12.5ZM1.78574 12.2852L1.63319 12.0871L1.63309 12.0872L1.78574 12.2852ZM2.04258 12.1582L1.97783 11.9167L1.97778 11.9167L2.04258 12.1582ZM8.47617 4.57422L8.54092 4.33275L8.54079 4.33271L8.47617 4.57422ZM8.73301 4.70117L8.88556 4.50311L8.88552 4.50308L8.73301 4.70117ZM8.92149 4.91699L8.7044 5.04098L8.70489 5.04183L8.92149 4.91699ZM11.1217 8.73438L11.3383 8.6096L11.3383 8.60954L11.1217 8.73438ZM11.1949 9.29102L11.4364 9.35564L11.4365 9.35553L11.1949 9.29102ZM10.8531 9.73828L10.9786 9.95452L10.979 9.9543L10.8531 9.73828ZM10.5816 9.83105L10.6145 10.0789L10.6145 10.0789L10.5816 9.83105ZM10.2955 9.81152L10.2307 10.053L10.2308 10.053L10.2955 9.81152ZM10.0387 9.68555L9.88612 9.88361L9.88616 9.88364L10.0387 9.68555ZM9.85117 9.46973L10.0682 9.34568L10.0678 9.34489L9.85117 9.46973ZM7.65098 5.65234L7.86758 5.5275L7.86756 5.52748L7.65098 5.65234ZM7.57774 5.09473L7.33624 5.03006L7.33623 5.0301L7.57774 5.09473ZM7.91953 4.64746L7.79415 4.43118L7.79379 4.43138L7.91953 4.64746ZM8.19102 4.55566L8.1583 4.30781L8.15819 4.30783L8.19102 4.55566ZM26.5807 4.55469L26.6135 4.30686L26.6135 4.30685L26.5807 4.55469ZM26.8521 4.64648L26.978 4.43044L26.9776 4.43024L26.8521 4.64648ZM27.1939 5.09375L27.4355 5.02916L27.4354 5.02912L27.1939 5.09375ZM27.1207 5.65039L27.3373 5.77521L27.3374 5.77511L27.1207 5.65039ZM24.9205 9.46875L24.7039 9.34393L24.7034 9.34474L24.9205 9.46875ZM24.732 9.68359L24.8846 9.88166L24.8846 9.88166L24.732 9.68359ZM24.4752 9.81055L24.5398 10.052L24.5399 10.052L24.4752 9.81055ZM24.19 9.8291L24.1572 10.0769L24.1573 10.077L24.19 9.8291ZM23.9186 9.7373L23.7928 9.95338L23.7931 9.95357L23.9186 9.7373ZM23.5768 9.29004L23.3352 9.35463L23.3353 9.35467L23.5768 9.29004ZM23.65 8.7334L23.4334 8.60858L23.4334 8.60859L23.65 8.7334ZM25.8502 4.91504L26.0668 5.03986L26.0672 5.03915L25.8502 4.91504ZM26.0377 4.7002L25.8851 4.50213L25.8851 4.5022L26.0377 4.7002ZM26.2945 4.57324L26.2298 4.33177L26.2297 4.33178L26.2945 4.57324ZM17.3854 2.25L17.3855 2H17.3854V2.25ZM18.1178 2.98535L18.3678 2.98535L18.3678 2.98527L18.1178 2.98535ZM18.1178 7.39453L18.3678 7.39456V7.39453H18.1178ZM17.3854 8.12988L17.3854 8.37988L17.3855 8.37988L17.3854 8.12988ZM16.652 7.39453L16.402 7.39453L16.402 7.39456L16.652 7.39453ZM16.652 2.98535L16.402 2.98527V2.98535H16.652ZM16.6334 30.8721V30.6221H11.3375V30.8721V31.1221H16.6334V30.8721ZM11.3375 30.8721V30.6221C11.2941 30.6221 11.254 30.6186 11.2178 30.6122L11.1744 30.8584L11.131 31.1046C11.1982 31.1164 11.2675 31.1221 11.3375 31.1221V30.8721ZM11.1744 30.8584L11.2178 30.6122C11.091 30.5899 10.9981 30.5325 10.936 30.4557C10.8734 30.3784 10.8307 30.2671 10.8307 30.1191H10.5807H10.3307C10.3307 30.3662 10.4036 30.5926 10.5473 30.7702C10.6915 30.9484 10.8955 31.0631 11.131 31.1046L11.1744 30.8584ZM10.5807 30.1191H10.8307V24.0938H10.5807H10.3307V30.1191H10.5807ZM10.5807 24.0938V24.3438H16.6334V24.0938V23.8438H10.5807V24.0938ZM16.6334 24.0938H16.3834V30.8721H16.6334H16.8834V24.0938H16.6334ZM24.1979 24.0938H23.9479V30.1191H24.1979H24.4479V24.0938H24.1979ZM24.1979 30.1191H23.9479C23.9479 30.2874 23.8924 30.4088 23.8131 30.4876C23.7337 30.5666 23.6111 30.6221 23.441 30.6221V30.8721V31.1221C23.7243 31.1221 23.98 31.0268 24.1657 30.8421C24.3515 30.6573 24.4479 30.4022 24.4479 30.1191H24.1979ZM23.441 30.8721V30.6221H18.1451V30.8721V31.1221H23.441V30.8721ZM18.1451 30.8721H18.3951V24.0938H18.1451H17.8951V30.8721H18.1451ZM18.1451 24.0938V24.3438H24.1979V24.0938V23.8438H18.1451V24.0938ZM20.4908 14.3018L20.4908 14.5518C20.5395 14.5518 20.5864 14.5527 20.6321 14.5553L20.6461 14.3057L20.6601 14.0561C20.6024 14.0528 20.5457 14.0518 20.4909 14.0518L20.4908 14.3018ZM20.6461 14.3057L20.6321 14.5553C21.3473 14.5954 22.0272 14.936 22.4011 15.4954L22.609 15.3564L22.8168 15.2175C22.3407 14.5053 21.5034 14.1034 20.6601 14.0561L20.6461 14.3057ZM22.609 15.3564L22.4011 15.4953C22.8063 16.1016 22.8771 16.9183 22.6036 17.5981L22.8355 17.6914L23.0675 17.7847C23.3998 16.9588 23.3179 15.9674 22.8168 15.2175L22.609 15.3564ZM22.8355 17.6914L22.593 17.6308L22.5178 17.9316L22.7604 17.9922L23.0029 18.0528L23.0781 17.752L22.8355 17.6914ZM22.7604 17.9922L22.5271 17.9022C22.4173 18.1868 22.2491 18.4365 22.0414 18.6447L22.2184 18.8213L22.3953 18.9979C22.649 18.7436 22.8571 18.4357 22.9936 18.0822L22.7604 17.9922ZM22.2184 18.8213V19.0713H24.9537V18.8213V18.5713H22.2184V18.8213ZM24.9537 18.8213V19.0713C25.1236 19.0713 25.2459 19.1268 25.3251 19.2057C25.4041 19.2845 25.4595 19.4059 25.4596 19.5743L25.7096 19.5742L25.9596 19.5741C25.9595 19.2914 25.8635 19.0363 25.678 18.8515C25.4926 18.6667 25.237 18.5713 24.9537 18.5713V18.8213ZM25.7096 19.5742H25.4596V21.835H25.7096H25.9596V19.5742H25.7096ZM25.7096 21.835L25.4596 21.8349C25.4595 22.0032 25.4041 22.1247 25.325 22.2035C25.2459 22.2824 25.1236 22.3379 24.9537 22.3379V22.5879V22.8379C25.237 22.8379 25.4925 22.7425 25.678 22.5577C25.8635 22.3728 25.9595 22.1178 25.9596 21.8351L25.7096 21.835ZM24.9537 22.5879V22.3379H18.1451V22.5879V22.8379H24.9537V22.5879ZM18.1451 22.5879H18.3951V19.5742H18.1451H17.8951V22.5879H18.1451ZM18.1451 19.5742V19.3242H16.6334V19.5742V19.8242H18.1451V19.5742ZM16.6334 19.5742H16.3834V22.5879H16.6334H16.8834V19.5742H16.6334ZM16.6334 22.5879V22.3379H9.82481V22.5879V22.8379H16.6334V22.5879ZM9.82481 22.5879L9.84717 22.3389L9.68409 22.3242L9.66172 22.5732L9.63935 22.8222L9.80244 22.8369L9.82481 22.5879ZM9.66172 22.5732L9.70532 22.3271C9.57884 22.3047 9.48581 22.2473 9.42353 22.1706C9.36087 22.0933 9.31803 21.9824 9.31797 21.8349L9.06797 21.835L8.81797 21.8351C8.81807 22.0822 8.89142 22.3083 9.03527 22.4856C9.17949 22.6633 9.38326 22.7778 9.61812 22.8194L9.66172 22.5732ZM9.06797 21.835H9.31797V19.5742H9.06797H8.81797V21.835H9.06797ZM9.06797 19.5742L9.31797 19.5743C9.31802 19.4061 9.37348 19.2847 9.4528 19.2058C9.53223 19.1268 9.65489 19.0713 9.82481 19.0713V18.8213V18.5713C9.54153 18.5713 9.28584 18.6667 9.10019 18.8513C8.91443 19.0361 8.81806 19.2911 8.81797 19.5741L9.06797 19.5742ZM9.82481 18.8213V19.0713H12.5357V18.8213V18.5713H9.82481V18.8213ZM12.5357 18.8213L12.7107 18.6427C12.5127 18.4488 12.3537 18.2217 12.2488 17.9709L12.0182 18.0674L11.7875 18.1639C11.9204 18.4815 12.1192 18.7633 12.3608 18.9999L12.5357 18.8213ZM12.0182 18.0674L12.2607 18.0069L12.1856 17.7052L11.943 17.7656L11.7004 17.8261L11.7756 18.1278L12.0182 18.0674ZM11.943 17.7656L12.1778 17.6798C11.8991 16.917 11.9724 16.174 12.3772 15.5698L12.1695 15.4307L11.9618 15.2915C11.458 16.0435 11.3812 16.9565 11.7082 17.8514L11.943 17.7656ZM12.1695 15.4307L12.3836 15.5599C12.7598 14.9365 13.435 14.5954 14.1465 14.5553L14.1324 14.3057L14.1183 14.0561C13.2717 14.1039 12.4314 14.513 11.9555 15.3015L12.1695 15.4307ZM14.1324 14.3057L14.1465 14.5553C14.1921 14.5527 14.2389 14.5518 14.2877 14.5518L14.2877 14.3018L14.2877 14.0518C14.2329 14.0518 14.1761 14.0528 14.1183 14.0561L14.1324 14.3057ZM14.2877 14.3018V14.5518C14.3433 14.5518 14.3987 14.5537 14.4533 14.5579L14.4723 14.3086L14.4912 14.0593C14.4231 14.0541 14.355 14.0518 14.2877 14.0518V14.3018ZM14.4723 14.3086L14.4533 14.5579C15.2291 14.6169 15.9769 15.0847 16.3303 15.8132L16.5553 15.7041L16.7802 15.595C16.3435 14.6949 15.4314 14.1308 14.4912 14.0593L14.4723 14.3086ZM16.5553 15.7041L16.3303 15.8132C16.3556 15.8652 16.379 15.9191 16.4002 15.9739L16.6334 15.8838L16.8666 15.7937C16.8404 15.726 16.8115 15.6594 16.7802 15.595L16.5553 15.7041ZM16.6334 15.8838H16.8834V15.8828H16.6334H16.3834V15.8838H16.6334ZM16.6334 15.8828L16.4004 15.9735L17.1367 17.866L17.3697 17.7754L17.6027 17.6847L16.8664 15.7922L16.6334 15.8828ZM17.3697 17.7754L17.601 17.8702L18.3764 15.9786L18.1451 15.8838L17.9138 15.789L17.1384 17.6806L17.3697 17.7754ZM18.1451 15.8838L18.3784 15.9738C18.6969 15.1484 19.4313 14.621 20.3114 14.558L20.2936 14.3086L20.2757 14.0592C19.2083 14.1357 18.3023 14.7822 17.9119 15.7938L18.1451 15.8838ZM20.2936 14.3086L20.3114 14.558C20.37 14.5538 20.43 14.5518 20.4908 14.5518V14.3018V14.0518C20.4191 14.0518 20.3471 14.0541 20.2757 14.0592L20.2936 14.3086ZM20.3463 15.8193L20.3097 15.572C20.1313 15.5984 19.9592 15.6632 19.8067 15.7643L19.9449 15.9727L20.0831 16.181C20.173 16.1213 20.2755 16.0825 20.3828 16.0666L20.3463 15.8193ZM19.9449 15.9727L19.8067 15.7643C19.6038 15.8989 19.4458 16.0909 19.3521 16.3144L19.5826 16.4111L19.8132 16.5078C19.869 16.3747 19.963 16.2607 20.0831 16.181L19.9449 15.9727ZM19.5826 16.4111L19.4058 16.5879L19.4068 16.5889L19.5836 16.4121L19.7604 16.2353L19.7594 16.2344L19.5826 16.4111ZM19.5836 16.4121L19.3524 16.3171L18.6717 17.9733L18.9029 18.0684L19.1342 18.1634L19.8148 16.5071L19.5836 16.4121ZM18.9029 18.0684V18.3184H20.4156V18.0684V17.8184H18.9029V18.0684ZM20.4156 18.0684L20.4158 18.3184C20.6585 18.3182 20.8961 18.247 21.0987 18.1126L20.9605 17.9043L20.8224 17.696C20.7022 17.7757 20.5606 17.8183 20.4155 17.8184L20.4156 18.0684ZM20.9605 17.9043L21.0987 18.1126C21.3012 17.9784 21.4594 17.7873 21.5534 17.5636L21.3229 17.4668L21.0924 17.37C21.0367 17.5026 20.9428 17.6161 20.8223 17.696L20.9605 17.9043ZM21.3229 17.4668L21.5654 17.5272L21.6406 17.2255L21.398 17.165L21.1555 17.1046L21.0803 17.4063L21.3229 17.4668ZM21.398 17.165L21.6215 17.2772C21.8265 16.8688 21.7099 16.4744 21.5463 16.1486L21.3229 16.2607L21.0994 16.3729C21.2387 16.6503 21.2725 16.858 21.1746 17.0528L21.398 17.165ZM21.3229 16.2607L21.5223 16.1101C21.2876 15.7993 20.9739 15.6098 20.6352 15.5674L20.6041 15.8154L20.573 16.0635C20.7617 16.0871 20.9597 16.1948 21.1234 16.4114L21.3229 16.2607ZM20.6041 15.8154L20.6192 15.5659L20.5059 15.559L20.4908 15.8086L20.4758 16.0581L20.589 16.065L20.6041 15.8154ZM20.4908 15.8086L20.4908 15.5586C20.4297 15.5586 20.369 15.5633 20.3097 15.572L20.3463 15.8193L20.3828 16.0666C20.4187 16.0614 20.455 16.0586 20.4909 16.0586L20.4908 15.8086ZM14.151 15.8145L14.1248 15.5658C13.7437 15.6059 13.4111 15.7936 13.2333 16.1475L13.4566 16.2598L13.68 16.372C13.7673 16.1983 13.9316 16.0889 14.1771 16.0631L14.151 15.8145ZM13.4566 16.2598L13.2802 16.0826C12.9553 16.4062 12.9824 16.9024 13.0627 17.2245L13.3053 17.1641L13.5479 17.1036C13.4778 16.8224 13.5047 16.5647 13.633 16.4369L13.4566 16.2598ZM13.3053 17.1641L13.0818 17.2762L13.2332 17.5779L13.4566 17.4658L13.6801 17.3537L13.5287 17.052L13.3053 17.1641ZM13.4566 17.4658L13.2261 17.5626C13.3201 17.7863 13.4784 17.9774 13.6807 18.1116L13.8189 17.9033L13.9571 17.695C13.8368 17.6151 13.7428 17.5016 13.6871 17.369L13.4566 17.4658ZM13.8189 17.9033L13.6808 18.1117C13.8833 18.246 14.121 18.3172 14.3637 18.3174L14.3639 18.0674L14.364 17.8174C14.2189 17.8173 14.0773 17.7747 13.9571 17.695L13.8189 17.9033ZM14.3639 18.0674V18.3174H15.8766V18.0674V17.8174H14.3639V18.0674ZM15.8766 18.0674L16.1078 17.9724L15.4271 16.3161L15.1959 16.4111L14.9647 16.5062L15.6453 18.1624L15.8766 18.0674ZM15.1959 16.4111L15.4195 16.5229L15.4205 16.521L15.1969 16.4092L14.9733 16.2974L14.9723 16.2993L15.1959 16.4111ZM15.1969 16.4092L15.4274 16.3124C15.3334 16.0887 15.1752 15.8976 14.9728 15.7634L14.8346 15.9717L14.6964 16.18C14.8168 16.2599 14.9107 16.3734 14.9664 16.506L15.1969 16.4092ZM14.8346 15.9717L14.9728 15.7634C14.8203 15.6622 14.6482 15.5974 14.4697 15.571L14.4332 15.8184L14.3967 16.0657C14.504 16.0815 14.6065 16.1204 14.6964 16.18L14.8346 15.9717ZM14.4332 15.8184L14.4517 15.569L14.3072 15.5583L14.2887 15.8076L14.2701 16.0569L14.4147 16.0677L14.4332 15.8184ZM14.2887 15.8076L14.2886 15.5576C14.2341 15.5576 14.1793 15.5601 14.1248 15.5658L14.151 15.8145L14.1771 16.0631C14.2119 16.0594 14.249 16.0576 14.2887 16.0576L14.2887 15.8076ZM32.7281 12.1592L32.6634 12.4006C32.7246 12.4171 32.7823 12.4456 32.8325 12.4842L32.985 12.2861L33.1375 12.088C33.0351 12.0093 32.9178 11.9512 32.7929 11.9177L32.7281 12.1592ZM32.985 12.2861L32.8324 12.4842C32.883 12.5231 32.9253 12.5716 32.9564 12.6259L33.1734 12.502L33.3905 12.378C33.3262 12.2653 33.2396 12.1667 33.1375 12.0881L32.985 12.2861ZM33.1734 12.502L32.9568 12.6267C33.0209 12.7382 33.0383 12.8702 33.0052 12.994L33.2467 13.0586L33.4882 13.1232C33.5556 12.8713 33.5201 12.6031 33.3901 12.3772L33.1734 12.502ZM33.2467 13.0586L33.0052 12.994C32.9719 13.1183 32.8906 13.2249 32.7791 13.2898L32.9049 13.5059L33.0307 13.7219C33.2565 13.5904 33.4208 13.3749 33.4882 13.1232L33.2467 13.0586ZM32.9049 13.5059H32.6549V13.5068H32.9049H33.1549V13.5059H32.9049ZM32.9049 13.5068L32.7797 13.2904L28.9682 15.4945L29.0934 15.7109L29.2185 15.9274L33.03 13.7233L32.9049 13.5068ZM29.0934 15.7109L28.968 15.4946C28.9142 15.5258 28.8532 15.5464 28.789 15.5549L28.8219 15.8027L28.8547 16.0506C28.9816 16.0338 29.1059 15.9926 29.2187 15.9272L29.0934 15.7109ZM28.8219 15.8027L28.7892 15.5549C28.7262 15.5632 28.6625 15.559 28.6014 15.5427L28.5367 15.7842L28.4721 16.0257C28.5968 16.0591 28.7267 16.0674 28.8546 16.0506L28.8219 15.8027ZM28.5367 15.7842L28.6015 15.5427C28.5402 15.5263 28.4826 15.4978 28.4324 15.4591L28.2799 15.6572L28.1274 15.8553C28.2297 15.9341 28.347 15.9921 28.472 16.0256L28.5367 15.7842ZM28.2799 15.6572L28.4324 15.4592C28.3811 15.4196 28.3389 15.3717 28.3085 15.3183L28.0914 15.4424L27.8744 15.5664C27.9392 15.6799 28.0262 15.7774 28.1273 15.8553L28.2799 15.6572ZM28.0914 15.4424L28.308 15.3175C28.2438 15.2062 28.2264 15.0736 28.2597 14.9494L28.0182 14.8848L27.7767 14.8201C27.7093 15.0721 27.7444 15.341 27.8748 15.5672L28.0914 15.4424ZM28.0182 14.8848L28.2597 14.9494C28.2929 14.8251 28.3742 14.7185 28.4858 14.6535L28.36 14.4375L28.2342 14.2215C28.0084 14.3529 27.844 14.5685 27.7767 14.8201L28.0182 14.8848ZM28.36 14.4375L28.4851 14.6539L32.2966 12.4498L32.1715 12.2334L32.0463 12.017L28.2348 14.2211L28.36 14.4375ZM32.1715 12.2334L32.2969 12.4496C32.3521 12.4177 32.4131 12.3968 32.4758 12.3885L32.443 12.1406L32.4101 11.8928C32.2815 11.9098 32.1576 11.9524 32.046 12.0172L32.1715 12.2334ZM32.443 12.1406L32.4757 12.3885C32.5386 12.3802 32.6024 12.3843 32.6635 12.4007L32.7281 12.1592L32.7927 11.9177C32.6681 11.8843 32.5381 11.8759 32.4103 11.8928L32.443 12.1406ZM2.32871 12.1396L2.29585 12.3875C2.36016 12.396 2.42106 12.4165 2.47474 12.4477L2.6002 12.2314L2.72565 12.0152C2.61268 11.9497 2.48845 11.9086 2.36158 11.8918L2.32871 12.1396ZM2.6002 12.2314L2.47498 12.4478L6.28553 14.6529L6.41074 14.4365L6.53596 14.2201L2.72541 12.0151L2.6002 12.2314ZM6.41074 14.4365L6.285 14.6526C6.39654 14.7175 6.47774 14.824 6.51104 14.9484L6.75254 14.8838L6.99404 14.8192C6.92669 14.5675 6.76245 14.3519 6.53648 14.2204L6.41074 14.4365ZM6.75254 14.8838L6.51103 14.9484C6.5442 15.0724 6.52689 15.2042 6.46269 15.3156L6.6793 15.4404L6.8959 15.5653C7.02619 15.3392 7.06144 15.0712 6.99405 14.8192L6.75254 14.8838ZM6.6793 15.4404H6.9293V15.4395H6.6793H6.4293V15.4404H6.6793ZM6.6793 15.4395L6.46221 15.3155C6.43056 15.3709 6.38877 15.4191 6.33925 15.4572L6.4918 15.6553L6.64435 15.8533C6.74743 15.7739 6.83267 15.675 6.89639 15.5634L6.6793 15.4395ZM6.4918 15.6553L6.33925 15.4572C6.28907 15.4959 6.23154 15.5243 6.17021 15.5408L6.23496 15.7822L6.29971 16.0237C6.42469 15.9902 6.54191 15.9322 6.64435 15.8533L6.4918 15.6553ZM6.23496 15.7822L6.17023 15.5408C6.10905 15.5572 6.04483 15.5613 5.98166 15.5529L5.94883 15.8008L5.916 16.0486C6.04406 16.0656 6.1746 16.0572 6.2997 16.0237L6.23496 15.7822ZM5.94883 15.8008L5.98169 15.553C5.91902 15.5446 5.85788 15.5237 5.8028 15.4918L5.67735 15.708L5.55189 15.9242C5.66346 15.989 5.78746 16.0316 5.91596 16.0486L5.94883 15.8008ZM5.67735 15.708L5.80252 15.4916L1.99197 13.2875L1.8668 13.5039L1.74162 13.7203L5.55217 15.9244L5.67735 15.708ZM1.8668 13.5039L1.99259 13.2879C1.88069 13.2227 1.79965 13.1167 1.76648 12.9929L1.525 13.0576L1.28352 13.1223C1.35105 13.3743 1.51571 13.5888 1.74101 13.72L1.8668 13.5039ZM1.525 13.0576L1.7665 12.993C1.73327 12.8688 1.75065 12.7362 1.81483 12.6249L1.59824 12.5L1.38166 12.3751C1.25123 12.6014 1.21608 12.8703 1.2835 13.1222L1.525 13.0576ZM1.59824 12.5L1.81527 12.6241C1.84631 12.5698 1.88812 12.5219 1.9384 12.4831L1.78574 12.2852L1.63309 12.0872C1.53121 12.1657 1.4454 12.2637 1.38122 12.3759L1.59824 12.5ZM1.78574 12.2852L1.93829 12.4832C1.9884 12.4446 2.04604 12.4161 2.10738 12.3997L2.04258 12.1582L1.97778 11.9167C1.85292 11.9503 1.73562 12.0082 1.63319 12.0871L1.78574 12.2852ZM2.04258 12.1582L2.10733 12.3997C2.1685 12.3833 2.23269 12.3791 2.29588 12.3875L2.32871 12.1396L2.36154 11.8918C2.23348 11.8748 2.10296 11.8832 1.97783 11.9167L2.04258 12.1582ZM8.47617 4.57422L8.41142 4.81569C8.47267 4.83211 8.5303 4.86062 8.5805 4.89927L8.73301 4.70117L8.88552 4.50308C8.78316 4.42428 8.66589 4.36626 8.54092 4.33275L8.47617 4.57422ZM8.73301 4.70117L8.58046 4.89923C8.63101 4.93817 8.67339 4.98668 8.7044 5.04098L8.92149 4.91699L9.13857 4.79301C9.07421 4.6803 8.98762 4.58172 8.88556 4.50311L8.73301 4.70117ZM8.92149 4.91699L8.70489 5.04183L10.9051 8.85921L11.1217 8.73438L11.3383 8.60954L9.13808 4.79215L8.92149 4.91699ZM11.1217 8.73438L10.905 8.85915C10.9692 8.97047 10.9865 9.10254 10.9534 9.2265L11.1949 9.29102L11.4365 9.35553C11.5037 9.10376 11.4685 8.83555 11.3383 8.6096L11.1217 8.73438ZM11.1949 9.29102L10.9534 9.22639C10.9202 9.35063 10.8388 9.45728 10.7273 9.52226L10.8531 9.73828L10.979 9.9543C11.2046 9.82285 11.3691 9.60731 11.4364 9.35564L11.1949 9.29102ZM10.8531 9.73828L10.7277 9.52204C10.6726 9.55402 10.6115 9.57492 10.5488 9.58322L10.5816 9.83105L10.6145 10.0789C10.7431 10.0619 10.867 10.0193 10.9786 9.95452L10.8531 9.73828ZM10.5816 9.83105L10.5488 9.58322C10.4873 9.59137 10.4231 9.58691 10.3603 9.57005L10.2955 9.81152L10.2308 10.053C10.3542 10.0861 10.4847 10.0961 10.6145 10.0789L10.5816 9.83105ZM10.2955 9.81152L10.3603 9.57007C10.2975 9.55322 10.2401 9.52511 10.1912 9.48746L10.0387 9.68555L9.88616 9.88364C9.98973 9.96338 10.1074 10.0199 10.2307 10.053L10.2955 9.81152ZM10.0387 9.68555L10.1912 9.48749C10.1418 9.44941 10.0999 9.40112 10.0682 9.34568L9.85117 9.46973L9.63412 9.59377C9.69779 9.70518 9.78305 9.80422 9.88612 9.88361L10.0387 9.68555ZM9.85117 9.46973L10.0678 9.34489L7.86758 5.5275L7.65098 5.65234L7.43438 5.77718L9.63457 9.59457L9.85117 9.46973ZM7.65098 5.65234L7.86756 5.52748C7.80338 5.41616 7.78601 5.28354 7.81924 5.15935L7.57774 5.09473L7.33623 5.0301C7.26882 5.28203 7.30396 5.55096 7.43439 5.77721L7.65098 5.65234ZM7.57774 5.09473L7.81923 5.15939C7.85255 5.03497 7.93379 4.92841 8.04527 4.86354L7.91953 4.64746L7.79379 4.43138C7.56784 4.56287 7.40361 4.77847 7.33624 5.03006L7.57774 5.09473ZM7.91953 4.64746L8.04492 4.86374C8.09868 4.83258 8.15968 4.812 8.22385 4.8035L8.19102 4.55566L8.15819 4.30783C8.03125 4.32464 7.90698 4.36576 7.79415 4.43118L7.91953 4.64746ZM8.19102 4.55566L8.22373 4.80351C8.28663 4.79521 8.3504 4.79936 8.41156 4.81573L8.47617 4.57422L8.54079 4.33271C8.4161 4.29935 8.28618 4.29093 8.1583 4.30781L8.19102 4.55566ZM26.5807 4.55469L26.5478 4.80252C26.6121 4.81105 26.673 4.83159 26.7267 4.86273L26.8521 4.64648L26.9776 4.43024C26.8646 4.3647 26.7404 4.32368 26.6135 4.30686L26.5807 4.55469ZM26.8521 4.64648L26.7263 4.86253C26.8379 4.92748 26.9192 5.03408 26.9524 5.15838L27.1939 5.09375L27.4354 5.02912C27.3681 4.77745 27.2037 4.56191 26.978 4.43044L26.8521 4.64648ZM27.1939 5.09375L26.9524 5.15834C26.9855 5.28215 26.9682 5.41421 26.904 5.52567L27.1207 5.65039L27.3374 5.77511C27.4674 5.54925 27.5028 5.28108 27.4355 5.02916L27.1939 5.09375ZM27.1207 5.65039L26.9041 5.52558L24.7039 9.34393L24.9205 9.46875L25.1371 9.59357L27.3373 5.77521L27.1207 5.65039ZM24.9205 9.46875L24.7034 9.34474C24.673 9.39806 24.6309 9.44592 24.5795 9.48553L24.732 9.68359L24.8846 9.88166C24.9857 9.80376 25.0727 9.70637 25.1376 9.59276L24.9205 9.46875ZM24.732 9.68359L24.5795 9.48553C24.5293 9.52417 24.4718 9.55264 24.4104 9.56908L24.4752 9.81055L24.5399 10.052C24.6649 10.0185 24.7821 9.96055 24.8846 9.88166L24.732 9.68359ZM24.4752 9.81055L24.4106 9.56905C24.3494 9.58542 24.2857 9.58956 24.2228 9.58125L24.19 9.8291L24.1573 10.077C24.2852 10.0938 24.4151 10.0854 24.5398 10.052L24.4752 9.81055ZM24.19 9.8291L24.2229 9.58127C24.1586 9.57276 24.0977 9.55221 24.044 9.52104L23.9186 9.7373L23.7931 9.95357C23.906 10.019 24.0303 10.0601 24.1572 10.0769L24.19 9.8291ZM23.9186 9.7373L24.0443 9.52123C23.9328 9.45632 23.8516 9.34983 23.8183 9.22541L23.5768 9.29004L23.3353 9.35467C23.4026 9.60636 23.5669 9.82189 23.7928 9.95338L23.9186 9.7373ZM23.5768 9.29004L23.8183 9.22544C23.7851 9.10145 23.8024 8.96962 23.8666 8.85821L23.65 8.7334L23.4334 8.60859C23.3031 8.83463 23.2679 9.10268 23.3352 9.35463L23.5768 9.29004ZM23.65 8.7334L23.8666 8.85821L26.0668 5.03985L25.8502 4.91504L25.6336 4.79022L23.4334 8.60858L23.65 8.7334ZM25.8502 4.91504L26.0672 5.03915C26.0983 4.98484 26.1401 4.93693 26.1903 4.89819L26.0377 4.7002L25.8851 4.5022C25.7831 4.58077 25.6973 4.67872 25.6332 4.79093L25.8502 4.91504ZM26.0377 4.7002L26.1902 4.89826C26.2404 4.85965 26.298 4.83116 26.3593 4.8147L26.2945 4.57324L26.2297 4.33178C26.1049 4.36529 25.9876 4.42324 25.8851 4.50213L26.0377 4.7002ZM26.2945 4.57324L26.3593 4.81471C26.4205 4.79831 26.4846 4.79415 26.5478 4.80252L26.5807 4.55469L26.6135 4.30685C26.4854 4.28989 26.3549 4.29822 26.2298 4.33177L26.2945 4.57324ZM17.3854 2.25L17.3852 2.5C17.6507 2.50016 17.8677 2.7166 17.8678 2.98543L18.1178 2.98535L18.3678 2.98527C18.3676 2.4422 17.9287 2.00032 17.3855 2L17.3854 2.25ZM18.1178 2.98535H17.8678V7.39453H18.1178H18.3678V2.98535H18.1178ZM18.1178 7.39453L17.8678 7.39451C17.8677 7.66332 17.6508 7.87973 17.3852 7.87988L17.3854 8.12988L17.3855 8.37988C17.9287 8.37956 18.3677 7.9378 18.3678 7.39456L18.1178 7.39453ZM17.3854 8.12988V7.87988C17.1193 7.87988 16.902 7.66318 16.902 7.39451L16.652 7.39453L16.402 7.39456C16.402 7.93824 16.8421 8.37988 17.3854 8.37988V8.12988ZM16.652 7.39453H16.902V2.98535H16.652H16.402V7.39453H16.652ZM16.652 2.98535L16.902 2.98543C16.902 2.71674 17.1194 2.5 17.3854 2.5V2.25V2C16.8421 2 16.4021 2.44176 16.402 2.98527L16.652 2.98535Z" fill="url(#paint1_linear_1417_11765)" mask="url(#path-1-inside-1_1417_11765)"/>
</g>
</g>
<defs>
<filter id="filter0_ddiiiii_1417_11765" x="-3.6991e-08" y="0" width="34.7716" height="32.1221" filterUnits="userSpaceOnUse" color-interpolation-filters="sRGB">
<feFlood flood-opacity="0" result="BackgroundImageFix"/>
<feColorMatrix in="SourceAlpha" type="matrix" values="0 0 0 0 0 0 0 0 0 0 0 0 0 0 0 0 0 0 127 0" result="hardAlpha"/>
<feOffset dy="0.5"/>
<feGaussianBlur stdDeviation="0.375"/>
<feComposite in2="hardAlpha" operator="out"/>
<feColorMatrix type="matrix" values="0 0 0 0 0 0 0 0 0 0 0 0 0 0 0 0 0 0 0.5 0"/>
<feBlend mode="overlay" in2="BackgroundImageFix" result="effect1_dropShadow_1417_11765"/>
<feColorMatrix in="SourceAlpha" type="matrix" values="0 0 0 0 0 0 0 0 0 0 0 0 0 0 0 0 0 0 127 0" result="hardAlpha"/>
<feOffset dy="-0.75"/>
<feGaussianBlur stdDeviation="0.75"/>
<feComposite in2="hardAlpha" operator="out"/>
<feColorMatrix type="matrix" values="0 0 0 0 1 0 0 0 0 1 0 0 0 0 1 0 0 0 0.5 0"/>
<feBlend mode="overlay" in2="effect1_dropShadow_1417_11765" result="effect2_dropShadow_1417_11765"/>
<feBlend mode="normal" in="SourceGraphic" in2="effect2_dropShadow_1417_11765" result="shape"/>
<feColorMatrix in="SourceAlpha" type="matrix" values="0 0 0 0 0 0 0 0 0 0 0 0 0 0 0 0 0 0 127 0" result="hardAlpha"/>
<feOffset/>
<feGaussianBlur stdDeviation="1"/>
<feComposite in2="hardAlpha" operator="arithmetic" k2="-1" k3="1"/>
<feColorMatrix type="matrix" values="0 0 0 0 1 0 0 0 0 1 0 0 0 0 1 0 0 0 0.7 0"/>
<feBlend mode="normal" in2="shape" result="effect3_innerShadow_1417_11765"/>
<feColorMatrix in="SourceAlpha" type="matrix" values="0 0 0 0 0 0 0 0 0 0 0 0 0 0 0 0 0 0 127 0" result="hardAlpha"/>
<feOffset dy="1"/>
<feGaussianBlur stdDeviation="0.5"/>
<feComposite in2="hardAlpha" operator="arithmetic" k2="-1" k3="1"/>
<feColorMatrix type="matrix" values="0 0 0 0 1 0 0 0 0 1 0 0 0 0 1 0 0 0 0.7 0"/>
<feBlend mode="overlay" in2="effect3_innerShadow_1417_11765" result="effect4_innerShadow_1417_11765"/>
<feColorMatrix in="SourceAlpha" type="matrix" values="0 0 0 0 0 0 0 0 0 0 0 0 0 0 0 0 0 0 127 0" result="hardAlpha"/>
<feOffset dy="-1"/>
<feGaussianBlur stdDeviation="0.5"/>
<feComposite in2="hardAlpha" operator="arithmetic" k2="-1" k3="1"/>
<feColorMatrix type="matrix" values="0 0 0 0 0 0 0 0 0 0 0 0 0 0 0 0 0 0 0.8 0"/>
<feBlend mode="overlay" in2="effect4_innerShadow_1417_11765" result="effect5_innerShadow_1417_11765"/>
<feColorMatrix in="SourceAlpha" type="matrix" values="0 0 0 0 0 0 0 0 0 0 0 0 0 0 0 0 0 0 127 0" result="hardAlpha"/>
<feOffset/>
<feGaussianBlur stdDeviation="0.175"/>
<feComposite in2="hardAlpha" operator="arithmetic" k2="-1" k3="1"/>
<feColorMatrix type="matrix" values="0 0 0 0 0 0 0 0 0 0 0 0 0 0 0 0 0 0 1 0"/>
<feBlend mode="overlay" in2="effect5_innerShadow_1417_11765" result="effect6_innerShadow_1417_11765"/>
<feColorMatrix in="SourceAlpha" type="matrix" values="0 0 0 0 0 0 0 0 0 0 0 0 0 0 0 0 0 0 127 0" result="hardAlpha"/>
<feOffset/>
<feGaussianBlur stdDeviation="0.375"/>
<feComposite in2="hardAlpha" operator="arithmetic" k2="-1" k3="1"/>
<feColorMatrix type="matrix" values="0 0 0 0 0 0 0 0 0 0 0 0 0 0 0 0 0 0 0.8 0"/>
<feBlend mode="overlay" in2="effect6_innerShadow_1417_11765" result="effect7_innerShadow_1417_11765"/>
</filter>
<linearGradient id="paint0_linear_1417_11765" x1="13.3216" y1="2.25" x2="13.3216" y2="37.4772" gradientUnits="userSpaceOnUse">
<stop stop-color="#F6F7F9"/>
<stop offset="1" stop-color="#EAECF1"/>
</linearGradient>
<linearGradient id="paint1_linear_1417_11765" x1="13.3216" y1="2.25" x2="13.3216" y2="13.6988" gradientUnits="userSpaceOnUse">
<stop stop-color="white"/>
<stop offset="1" stop-color="white" stop-opacity="0"/>
</linearGradient>
</defs>
</svg>
