<svg preserveAspectRatio="none" width="100%" height="100%" overflow="visible" style="display: block;" viewBox="0 0 55 51" fill="none" xmlns="http://www.w3.org/2000/svg">
<g id="Union" filter="url(#filter0_ddig_1417_11670)">
<path d="M26.3503 45.6787H18.4059C17.7245 45.6786 17.2721 45.2238 17.2721 44.544V35.4659H26.3503V45.6787ZM37.6969 35.4659V44.544C37.6969 45.2238 37.2428 45.6785 36.5631 45.6787H28.6188V35.4659H37.6969ZM32.1364 20.7149C33.3851 20.7149 34.6341 21.2813 35.3141 22.3028C35.994 23.3242 36.1082 24.6861 35.654 25.8203L35.5407 26.2754C35.356 26.756 35.0741 27.1752 34.7282 27.5235H38.8317L38.9557 27.5293C39.5661 27.5816 39.9655 28.0207 39.9655 28.6582V32.0635C39.9653 32.7431 39.5113 33.1972 38.8317 33.1973H28.6188V28.6582H26.3503L26.3512 28.6563H26.3503V33.1973H16.1374C15.4577 33.1972 15.0038 32.7431 15.0036 32.0635V28.6582C15.0036 27.9784 15.4576 27.5236 16.1374 27.5235H20.2047C19.875 27.1992 19.6068 26.8161 19.4284 26.3877L19.3151 25.9336C18.8607 24.6849 18.9734 23.4376 19.6549 22.4161C20.3365 21.2817 21.5839 20.7149 22.8327 20.7149C24.307 20.7149 25.7831 21.6234 26.3503 23.0977V23.0957L27.4557 25.9473L28.6188 23.0977C29.186 21.6217 30.5476 20.7149 32.1364 20.7149ZM32.1364 22.9844C31.8453 22.9845 31.5603 23.071 31.318 23.2325C31.076 23.3938 30.8872 23.6233 30.7751 23.8916L30.776 23.8936L29.7545 26.3897H32.0241C32.315 26.3895 32.5993 26.303 32.8415 26.1416C33.0837 25.9802 33.2732 25.7511 33.3854 25.4825L33.4977 25.0284C33.7249 24.5739 33.6126 24.1205 33.3854 23.6661C33.0864 23.2685 32.7021 23.0448 32.3063 22.9952L32.1364 22.9844ZM22.8346 22.9834C22.2674 22.9834 21.8128 23.2107 21.5856 23.6651C21.2457 24.0051 21.2453 24.572 21.3581 25.0264L21.5856 25.4805C21.6978 25.7491 21.8873 25.9792 22.1295 26.1407C22.3717 26.3018 22.6561 26.3876 22.9469 26.3877H25.2155L24.194 23.8916L24.196 23.8907C24.0838 23.622 23.8943 23.3919 23.652 23.2305C23.4401 23.0894 23.1957 23.0061 22.943 22.9873L22.8346 22.9834ZM50.0651 17.459C50.2085 17.44 50.3541 17.4497 50.4938 17.4873C50.6334 17.5249 50.7642 17.5894 50.8786 17.6778C50.993 17.7663 51.0893 17.8772 51.1608 18.003C51.3066 18.2571 51.3465 18.5587 51.2712 18.8418C51.1957 19.1251 51.0106 19.3677 50.7575 19.5157V19.5166L45.0407 22.8369C44.9157 22.9097 44.7778 22.9575 44.6344 22.9766C44.4911 22.9957 44.3454 22.9858 44.2057 22.9483C44.066 22.9106 43.9344 22.8454 43.82 22.7569C43.7057 22.6684 43.6102 22.5582 43.5387 22.4327C43.3928 22.1784 43.3529 21.8761 43.4284 21.5928C43.5039 21.3096 43.689 21.0678 43.942 20.92L49.6579 17.5977C49.7829 17.5248 49.9217 17.4781 50.0651 17.459ZM4.89322 17.4571C5.03667 17.4761 5.17542 17.5239 5.30045 17.5967L11.0172 20.918C11.2703 21.0659 11.4545 21.3085 11.5299 21.5918C11.6054 21.8751 11.5655 22.1765 11.4196 22.4307V22.4287C11.3481 22.5545 11.2528 22.6654 11.1383 22.7539C11.024 22.8424 10.8932 22.9077 10.7536 22.9453C10.6138 22.983 10.4673 22.9918 10.3239 22.9727C10.1806 22.9536 10.0425 22.9067 9.91763 22.834L4.20084 19.5137C3.94785 19.3658 3.7637 19.124 3.68814 18.8409C3.61266 18.5575 3.65156 18.2553 3.79752 18.001C3.86904 17.8752 3.96531 17.7653 4.07974 17.6768C4.19416 17.5883 4.32484 17.523 4.46451 17.4854C4.60408 17.4478 4.74993 17.4381 4.89322 17.4571ZM13.6872 6.03226C13.8305 6.01325 13.9763 6.02299 14.1159 6.06058C14.2556 6.09822 14.3862 6.16347 14.5006 6.25199C14.6151 6.34052 14.7113 6.45043 14.7829 6.57621L18.0827 12.3282C18.2285 12.5824 18.2685 12.8838 18.193 13.167C18.1176 13.4501 17.9332 13.6919 17.6803 13.8399C17.5553 13.9127 17.4165 13.9604 17.2731 13.9795C17.1297 13.9986 16.9841 13.9888 16.8444 13.9512C16.7047 13.9136 16.5731 13.8483 16.4587 13.7598C16.3444 13.6713 16.2488 13.5612 16.1774 13.4356L12.8766 7.6846C12.7307 7.43033 12.6918 7.12807 12.7672 6.84476C12.8427 6.56162 13.027 6.31982 13.2799 6.17191C13.405 6.09906 13.5437 6.05134 13.6872 6.03226ZM41.2721 6.03128C41.4153 6.05035 41.5535 6.09728 41.6784 6.16996C41.9315 6.3179 42.1166 6.56048 42.192 6.84378C42.2675 7.12697 42.2275 7.42847 42.0817 7.68265L38.7819 13.4346C38.7104 13.5604 38.6141 13.6703 38.4997 13.7588C38.3853 13.8473 38.2545 13.9126 38.1149 13.9502C37.9752 13.9879 37.8287 13.9976 37.6852 13.9786C37.5419 13.9594 37.4039 13.9117 37.279 13.8389C37.026 13.691 36.8418 13.4492 36.7663 13.1661C36.6908 12.8827 36.7297 12.5805 36.8756 12.3262L40.1764 6.57523C40.248 6.44944 40.3432 6.33858 40.4577 6.25003C40.5721 6.16149 40.7037 6.09724 40.8434 6.0596C40.9831 6.02203 41.1288 6.01221 41.2721 6.03128ZM27.4782 2.5596C28.0852 2.5596 28.5778 3.05605 28.5778 3.668V10.3096C28.5777 10.9215 28.0851 11.417 27.4782 11.417C26.8713 11.417 26.3786 10.9215 26.3786 10.3096V3.668C26.3786 3.05609 26.8713 2.55968 27.4782 2.5596Z" fill="var(--fill-0, #F5A3A3)"/>
<path d="M26.3503 45.6787H18.4059C17.7245 45.6786 17.2721 45.2238 17.2721 44.544V35.4659H26.3503V45.6787ZM37.6969 35.4659V44.544C37.6969 45.2238 37.2428 45.6785 36.5631 45.6787H28.6188V35.4659H37.6969ZM32.1364 20.7149C33.3851 20.7149 34.6341 21.2813 35.3141 22.3028C35.994 23.3242 36.1082 24.6861 35.654 25.8203L35.5407 26.2754C35.356 26.756 35.0741 27.1752 34.7282 27.5235H38.8317L38.9557 27.5293C39.5661 27.5816 39.9655 28.0207 39.9655 28.6582V32.0635C39.9653 32.7431 39.5113 33.1972 38.8317 33.1973H28.6188V28.6582H26.3503L26.3512 28.6563H26.3503V33.1973H16.1374C15.4577 33.1972 15.0038 32.7431 15.0036 32.0635V28.6582C15.0036 27.9784 15.4576 27.5236 16.1374 27.5235H20.2047C19.875 27.1992 19.6068 26.8161 19.4284 26.3877L19.3151 25.9336C18.8607 24.6849 18.9734 23.4376 19.6549 22.4161C20.3365 21.2817 21.5839 20.7149 22.8327 20.7149C24.307 20.7149 25.7831 21.6234 26.3503 23.0977V23.0957L27.4557 25.9473L28.6188 23.0977C29.186 21.6217 30.5476 20.7149 32.1364 20.7149ZM32.1364 22.9844C31.8453 22.9845 31.5603 23.071 31.318 23.2325C31.076 23.3938 30.8872 23.6233 30.7751 23.8916L30.776 23.8936L29.7545 26.3897H32.0241C32.315 26.3895 32.5993 26.303 32.8415 26.1416C33.0837 25.9802 33.2732 25.7511 33.3854 25.4825L33.4977 25.0284C33.7249 24.5739 33.6126 24.1205 33.3854 23.6661C33.0864 23.2685 32.7021 23.0448 32.3063 22.9952L32.1364 22.9844ZM22.8346 22.9834C22.2674 22.9834 21.8128 23.2107 21.5856 23.6651C21.2457 24.0051 21.2453 24.572 21.3581 25.0264L21.5856 25.4805C21.6978 25.7491 21.8873 25.9792 22.1295 26.1407C22.3717 26.3018 22.6561 26.3876 22.9469 26.3877H25.2155L24.194 23.8916L24.196 23.8907C24.0838 23.622 23.8943 23.3919 23.652 23.2305C23.4401 23.0894 23.1957 23.0061 22.943 22.9873L22.8346 22.9834ZM50.0651 17.459C50.2085 17.44 50.3541 17.4497 50.4938 17.4873C50.6334 17.5249 50.7642 17.5894 50.8786 17.6778C50.993 17.7663 51.0893 17.8772 51.1608 18.003C51.3066 18.2571 51.3465 18.5587 51.2712 18.8418C51.1957 19.1251 51.0106 19.3677 50.7575 19.5157V19.5166L45.0407 22.8369C44.9157 22.9097 44.7778 22.9575 44.6344 22.9766C44.4911 22.9957 44.3454 22.9858 44.2057 22.9483C44.066 22.9106 43.9344 22.8454 43.82 22.7569C43.7057 22.6684 43.6102 22.5582 43.5387 22.4327C43.3928 22.1784 43.3529 21.8761 43.4284 21.5928C43.5039 21.3096 43.689 21.0678 43.942 20.92L49.6579 17.5977C49.7829 17.5248 49.9217 17.4781 50.0651 17.459ZM4.89322 17.4571C5.03667 17.4761 5.17542 17.5239 5.30045 17.5967L11.0172 20.918C11.2703 21.0659 11.4545 21.3085 11.5299 21.5918C11.6054 21.8751 11.5655 22.1765 11.4196 22.4307V22.4287C11.3481 22.5545 11.2528 22.6654 11.1383 22.7539C11.024 22.8424 10.8932 22.9077 10.7536 22.9453C10.6138 22.983 10.4673 22.9918 10.3239 22.9727C10.1806 22.9536 10.0425 22.9067 9.91763 22.834L4.20084 19.5137C3.94785 19.3658 3.7637 19.124 3.68814 18.8409C3.61266 18.5575 3.65156 18.2553 3.79752 18.001C3.86904 17.8752 3.96531 17.7653 4.07974 17.6768C4.19416 17.5883 4.32484 17.523 4.46451 17.4854C4.60408 17.4478 4.74993 17.4381 4.89322 17.4571ZM13.6872 6.03226C13.8305 6.01325 13.9763 6.02299 14.1159 6.06058C14.2556 6.09822 14.3862 6.16347 14.5006 6.25199C14.6151 6.34052 14.7113 6.45043 14.7829 6.57621L18.0827 12.3282C18.2285 12.5824 18.2685 12.8838 18.193 13.167C18.1176 13.4501 17.9332 13.6919 17.6803 13.8399C17.5553 13.9127 17.4165 13.9604 17.2731 13.9795C17.1297 13.9986 16.9841 13.9888 16.8444 13.9512C16.7047 13.9136 16.5731 13.8483 16.4587 13.7598C16.3444 13.6713 16.2488 13.5612 16.1774 13.4356L12.8766 7.6846C12.7307 7.43033 12.6918 7.12807 12.7672 6.84476C12.8427 6.56162 13.027 6.31982 13.2799 6.17191C13.405 6.09906 13.5437 6.05134 13.6872 6.03226ZM41.2721 6.03128C41.4153 6.05035 41.5535 6.09728 41.6784 6.16996C41.9315 6.3179 42.1166 6.56048 42.192 6.84378C42.2675 7.12697 42.2275 7.42847 42.0817 7.68265L38.7819 13.4346C38.7104 13.5604 38.6141 13.6703 38.4997 13.7588C38.3853 13.8473 38.2545 13.9126 38.1149 13.9502C37.9752 13.9879 37.8287 13.9976 37.6852 13.9786C37.5419 13.9594 37.4039 13.9117 37.279 13.8389C37.026 13.691 36.8418 13.4492 36.7663 13.1661C36.6908 12.8827 36.7297 12.5805 36.8756 12.3262L40.1764 6.57523C40.248 6.44944 40.3432 6.33858 40.4577 6.25003C40.5721 6.16149 40.7037 6.09724 40.8434 6.0596C40.9831 6.02203 41.1288 6.01221 41.2721 6.03128ZM27.4782 2.5596C28.0852 2.5596 28.5778 3.05605 28.5778 3.668V10.3096C28.5777 10.9215 28.0851 11.417 27.4782 11.417C26.8713 11.417 26.3786 10.9215 26.3786 10.3096V3.668C26.3786 3.05609 26.8713 2.55968 27.4782 2.5596Z" fill="url(#paint0_linear_1417_11670)" fill-opacity="0.5" style="mix-blend-mode:overlay"/>
</g>
<defs>
<filter id="filter0_ddig_1417_11670" x="-2.90456e-08" y="0" width="54.959" height="50.4202" filterUnits="userSpaceOnUse" color-interpolation-filters="sRGB">
<feFlood flood-opacity="0" result="BackgroundImageFix"/>
<feColorMatrix in="SourceAlpha" type="matrix" values="0 0 0 0 0 0 0 0 0 0 0 0 0 0 0 0 0 0 127 0" result="hardAlpha"/>
<feOffset dy="1.09091"/>
<feGaussianBlur stdDeviation="1.82526"/>
<feComposite in2="hardAlpha" operator="out"/>
<feColorMatrix type="matrix" values="0 0 0 0 1 0 0 0 0 1 0 0 0 0 1 0 0 0 0.7 0"/>
<feBlend mode="overlay" in2="BackgroundImageFix" result="effect1_dropShadow_1417_11670"/>
<feColorMatrix in="SourceAlpha" type="matrix" values="0 0 0 0 0 0 0 0 0 0 0 0 0 0 0 0 0 0 127 0" result="hardAlpha"/>
<feOffset dy="-1.09091"/>
<feGaussianBlur stdDeviation="0.727273"/>
<feComposite in2="hardAlpha" operator="out"/>
<feColorMatrix type="matrix" values="0 0 0 0 0.822835 0 0 0 0 0.277165 0 0 0 0 0.277165 0 0 0 1 0"/>
<feBlend mode="soft-light" in2="effect1_dropShadow_1417_11670" result="effect2_dropShadow_1417_11670"/>
<feBlend mode="normal" in="SourceGraphic" in2="effect2_dropShadow_1417_11670" result="shape"/>
<feColorMatrix in="SourceAlpha" type="matrix" values="0 0 0 0 0 0 0 0 0 0 0 0 0 0 0 0 0 0 127 0" result="hardAlpha"/>
<feOffset dx="0.5" dy="1"/>
<feGaussianBlur stdDeviation="0.75"/>
<feComposite in2="hardAlpha" operator="arithmetic" k2="-1" k3="1"/>
<feColorMatrix type="matrix" values="0 0 0 0 0 0 0 0 0 0 0 0 0 0 0 0 0 0 0.75 0"/>
<feBlend mode="soft-light" in2="shape" result="effect3_innerShadow_1417_11670"/>
<feTurbulence type="fractalNoise" baseFrequency="10 10" numOctaves="3" seed="1609" />
<feDisplacementMap in="effect3_innerShadow_1417_11670" scale="1.0181816816329956" xChannelSelector="R" yChannelSelector="G" result="displacedImage" width="100%" height="100%" />
<feMerge result="effect4_texture_1417_11670">
<feMergeNode in="displacedImage"/>
</feMerge>
</filter>
<linearGradient id="paint0_linear_1417_11670" x1="22.862" y1="16.9886" x2="46.2122" y2="43.215" gradientUnits="userSpaceOnUse">
<stop stop-opacity="0"/>
<stop offset="1"/>
</linearGradient>
</defs>
</svg>
