<svg preserveAspectRatio="none" width="100%" height="100%" overflow="visible" style="display: block;" viewBox="0 0 35 33" fill="none" xmlns="http://www.w3.org/2000/svg">
<g id="Logo container" style="mix-blend-mode:overlay" filter="url(#filter0_ddiiiii_1417_11745)">
<g id="Union">
<mask id="path-1-inside-1_1417_11745" fill="white">
<path d="M16.6334 30.8721H11.3375C11.2806 30.8721 11.2262 30.8675 11.1744 30.8584C10.8123 30.7944 10.5816 30.514 10.5816 30.1191V24.0938H16.6334V30.8721ZM24.1979 24.0938V30.1191C24.1979 30.5704 23.8951 30.872 23.442 30.8721H18.1461V24.0938H24.1979ZM20.4908 14.3018C20.5429 14.3018 20.5951 14.3027 20.6471 14.3057C21.4261 14.3496 22.1841 14.7208 22.609 15.3564C23.0622 16.0345 23.1385 16.9385 22.8355 17.6914L22.7604 17.9922C22.6373 18.3111 22.4499 18.5901 22.2193 18.8213H24.9537C25.4069 18.8213 25.7104 19.1231 25.7105 19.5742V21.835C25.7104 22.2861 25.4069 22.5879 24.9537 22.5879H18.1461V19.5742H16.6334V22.5879H9.82481L9.6627 22.5732C9.30103 22.5094 9.0691 22.2298 9.06895 21.835V19.5742C9.06909 19.1231 9.37173 18.8214 9.82481 18.8213H12.5357C12.316 18.6061 12.1371 18.3516 12.0182 18.0674L11.943 17.7656C11.6402 16.9368 11.7162 16.1087 12.1705 15.4307C12.5966 14.725 13.3536 14.3498 14.1324 14.3057C14.1843 14.3027 14.2367 14.3018 14.2887 14.3018C14.3499 14.3018 14.4112 14.304 14.4723 14.3086C15.3303 14.3737 16.1601 14.8897 16.5553 15.7041C16.5836 15.7624 16.6097 15.8225 16.6334 15.8838V15.8828L17.3453 17.7119L17.3697 17.7734L18.1461 15.8838C18.5006 14.9651 19.3205 14.3782 20.2945 14.3086C20.3593 14.304 20.4248 14.3018 20.4908 14.3018ZM20.3463 15.8193C20.2037 15.8405 20.0669 15.8925 19.9459 15.9727C19.7844 16.0798 19.6584 16.2328 19.5836 16.4111L19.5846 16.4121L18.9029 18.0684H20.4156C20.6096 18.0683 20.7991 18.0113 20.9605 17.9043C21.122 17.7972 21.249 17.645 21.3238 17.4668L21.399 17.165C21.5505 16.8634 21.4753 16.5624 21.3238 16.2607C21.1245 15.9968 20.868 15.8484 20.6041 15.8154L20.4908 15.8086C20.4422 15.8086 20.3939 15.8123 20.3463 15.8193ZM14.151 15.8145C13.8378 15.8475 13.5891 15.9959 13.4566 16.2598C13.2301 16.4854 13.2301 16.8625 13.3053 17.1641L13.4566 17.4658C13.5314 17.6439 13.6576 17.7962 13.8189 17.9033C13.9401 17.9837 14.0775 18.0355 14.2203 18.0566L14.3648 18.0674H15.8775L15.1959 16.4111L15.1969 16.4092C15.1221 16.2311 14.9959 16.0787 14.8346 15.9717C14.7136 15.8915 14.5768 15.8395 14.4342 15.8184L14.2896 15.8076C14.2423 15.8076 14.1959 15.8097 14.151 15.8145ZM32.7291 12.1592C32.8222 12.1842 32.9097 12.2274 32.9859 12.2861C33.0622 12.3449 33.1258 12.4185 33.1734 12.502C33.2706 12.6707 33.297 12.8706 33.2467 13.0586C33.1964 13.2466 33.0736 13.4077 32.9049 13.5059V13.5068L29.0934 15.7109C29.0102 15.7591 28.9182 15.7901 28.8229 15.8027C28.7272 15.8154 28.6299 15.8092 28.5367 15.7842C28.4436 15.7592 28.3562 15.716 28.2799 15.6572C28.2038 15.5986 28.14 15.5256 28.0924 15.4424C27.9951 15.2736 27.9688 15.0728 28.0191 14.8848C28.0695 14.6968 28.1922 14.5357 28.3609 14.4375L32.1715 12.2334C32.2548 12.185 32.3474 12.1533 32.443 12.1406C32.5386 12.128 32.6359 12.1342 32.7291 12.1592ZM2.32871 12.1396C2.4243 12.1523 2.51687 12.1831 2.6002 12.2314L6.41074 14.4365C6.5795 14.5347 6.70319 14.6957 6.75352 14.8838C6.80372 15.0716 6.77737 15.2718 6.68027 15.4404V15.4395C6.63259 15.523 6.5681 15.5965 6.4918 15.6553C6.41555 15.714 6.32802 15.7573 6.23496 15.7822C6.14209 15.8071 6.04515 15.8133 5.94981 15.8008C5.85418 15.7881 5.76167 15.7564 5.67832 15.708L1.8668 13.5039C1.69832 13.4057 1.57531 13.2454 1.525 13.0576C1.47468 12.8696 1.50094 12.6688 1.59824 12.5C1.64592 12.4166 1.71046 12.3439 1.78672 12.2852C1.86287 12.2265 1.94965 12.1832 2.04258 12.1582C2.13564 12.1332 2.23317 12.127 2.32871 12.1396ZM8.47715 4.57422C8.57025 4.5992 8.65772 4.64243 8.73399 4.70117C8.81018 4.75991 8.87385 4.83358 8.92149 4.91699L11.1217 8.73438C11.2189 8.90308 11.2452 9.10306 11.1949 9.29102C11.1446 9.47907 11.0219 9.64008 10.8531 9.73828C10.7698 9.78664 10.6773 9.81839 10.5816 9.83105C10.4861 9.84366 10.3885 9.83647 10.2955 9.81152C10.2027 9.78657 10.1157 9.74402 10.0396 9.68555C9.96335 9.62678 9.89886 9.55322 9.85117 9.46973L7.65098 5.65234C7.55367 5.48356 7.52741 5.28278 7.57774 5.09473C7.62805 4.90671 7.75083 4.74566 7.91953 4.64746C8.00287 4.59911 8.09541 4.56834 8.19102 4.55566C8.28665 4.543 8.384 4.54924 8.47715 4.57422ZM26.5807 4.55469C26.6763 4.56735 26.7688 4.59816 26.8521 4.64648C27.0209 4.74469 27.1436 4.90569 27.1939 5.09375C27.2442 5.28171 27.2179 5.48166 27.1207 5.65039L24.9205 9.46875C24.8729 9.55202 24.8091 9.62492 24.733 9.68359C24.6568 9.74232 24.5693 9.78556 24.4762 9.81055C24.383 9.83553 24.2857 9.84177 24.19 9.8291C24.0944 9.81643 24.0019 9.78565 23.9186 9.7373C23.7499 9.63909 23.6271 9.47803 23.5768 9.29004C23.5265 9.10216 23.5529 8.90206 23.65 8.7334L25.8502 4.91504C25.8979 4.83162 25.9624 4.75893 26.0387 4.7002C26.1148 4.64156 26.2016 4.59823 26.2945 4.57324C26.3876 4.54828 26.4851 4.54206 26.5807 4.55469ZM17.3854 2.25C17.7899 2.25003 18.1186 2.57927 18.1188 2.98535V7.39453C18.1187 7.80069 17.79 8.12985 17.3854 8.12988C16.9807 8.12988 16.652 7.80071 16.652 7.39453V2.98535C16.6521 2.57925 16.9808 2.25 17.3854 2.25Z"/>
</mask>
<path d="M16.6334 30.8721H11.3375C11.2806 30.8721 11.2262 30.8675 11.1744 30.8584C10.8123 30.7944 10.5816 30.514 10.5816 30.1191V24.0938H16.6334V30.8721ZM24.1979 24.0938V30.1191C24.1979 30.5704 23.8951 30.872 23.442 30.8721H18.1461V24.0938H24.1979ZM20.4908 14.3018C20.5429 14.3018 20.5951 14.3027 20.6471 14.3057C21.4261 14.3496 22.1841 14.7208 22.609 15.3564C23.0622 16.0345 23.1385 16.9385 22.8355 17.6914L22.7604 17.9922C22.6373 18.3111 22.4499 18.5901 22.2193 18.8213H24.9537C25.4069 18.8213 25.7104 19.1231 25.7105 19.5742V21.835C25.7104 22.2861 25.4069 22.5879 24.9537 22.5879H18.1461V19.5742H16.6334V22.5879H9.82481L9.6627 22.5732C9.30103 22.5094 9.0691 22.2298 9.06895 21.835V19.5742C9.06909 19.1231 9.37173 18.8214 9.82481 18.8213H12.5357C12.316 18.6061 12.1371 18.3516 12.0182 18.0674L11.943 17.7656C11.6402 16.9368 11.7162 16.1087 12.1705 15.4307C12.5966 14.725 13.3536 14.3498 14.1324 14.3057C14.1843 14.3027 14.2367 14.3018 14.2887 14.3018C14.3499 14.3018 14.4112 14.304 14.4723 14.3086C15.3303 14.3737 16.1601 14.8897 16.5553 15.7041C16.5836 15.7624 16.6097 15.8225 16.6334 15.8838V15.8828L17.3453 17.7119L17.3697 17.7734L18.1461 15.8838C18.5006 14.9651 19.3205 14.3782 20.2945 14.3086C20.3593 14.304 20.4248 14.3018 20.4908 14.3018ZM20.3463 15.8193C20.2037 15.8405 20.0669 15.8925 19.9459 15.9727C19.7844 16.0798 19.6584 16.2328 19.5836 16.4111L19.5846 16.4121L18.9029 18.0684H20.4156C20.6096 18.0683 20.7991 18.0113 20.9605 17.9043C21.122 17.7972 21.249 17.645 21.3238 17.4668L21.399 17.165C21.5505 16.8634 21.4753 16.5624 21.3238 16.2607C21.1245 15.9968 20.868 15.8484 20.6041 15.8154L20.4908 15.8086C20.4422 15.8086 20.3939 15.8123 20.3463 15.8193ZM14.151 15.8145C13.8378 15.8475 13.5891 15.9959 13.4566 16.2598C13.2301 16.4854 13.2301 16.8625 13.3053 17.1641L13.4566 17.4658C13.5314 17.6439 13.6576 17.7962 13.8189 17.9033C13.9401 17.9837 14.0775 18.0355 14.2203 18.0566L14.3648 18.0674H15.8775L15.1959 16.4111L15.1969 16.4092C15.1221 16.2311 14.9959 16.0787 14.8346 15.9717C14.7136 15.8915 14.5768 15.8395 14.4342 15.8184L14.2896 15.8076C14.2423 15.8076 14.1959 15.8097 14.151 15.8145ZM32.7291 12.1592C32.8222 12.1842 32.9097 12.2274 32.9859 12.2861C33.0622 12.3449 33.1258 12.4185 33.1734 12.502C33.2706 12.6707 33.297 12.8706 33.2467 13.0586C33.1964 13.2466 33.0736 13.4077 32.9049 13.5059V13.5068L29.0934 15.7109C29.0102 15.7591 28.9182 15.7901 28.8229 15.8027C28.7272 15.8154 28.6299 15.8092 28.5367 15.7842C28.4436 15.7592 28.3562 15.716 28.2799 15.6572C28.2038 15.5986 28.14 15.5256 28.0924 15.4424C27.9951 15.2736 27.9688 15.0728 28.0191 14.8848C28.0695 14.6968 28.1922 14.5357 28.3609 14.4375L32.1715 12.2334C32.2548 12.185 32.3474 12.1533 32.443 12.1406C32.5386 12.128 32.6359 12.1342 32.7291 12.1592ZM2.32871 12.1396C2.4243 12.1523 2.51687 12.1831 2.6002 12.2314L6.41074 14.4365C6.5795 14.5347 6.70319 14.6957 6.75352 14.8838C6.80372 15.0716 6.77737 15.2718 6.68027 15.4404V15.4395C6.63259 15.523 6.5681 15.5965 6.4918 15.6553C6.41555 15.714 6.32802 15.7573 6.23496 15.7822C6.14209 15.8071 6.04515 15.8133 5.94981 15.8008C5.85418 15.7881 5.76167 15.7564 5.67832 15.708L1.8668 13.5039C1.69832 13.4057 1.57531 13.2454 1.525 13.0576C1.47468 12.8696 1.50094 12.6688 1.59824 12.5C1.64592 12.4166 1.71046 12.3439 1.78672 12.2852C1.86287 12.2265 1.94965 12.1832 2.04258 12.1582C2.13564 12.1332 2.23317 12.127 2.32871 12.1396ZM8.47715 4.57422C8.57025 4.5992 8.65772 4.64243 8.73399 4.70117C8.81018 4.75991 8.87385 4.83358 8.92149 4.91699L11.1217 8.73438C11.2189 8.90308 11.2452 9.10306 11.1949 9.29102C11.1446 9.47907 11.0219 9.64008 10.8531 9.73828C10.7698 9.78664 10.6773 9.81839 10.5816 9.83105C10.4861 9.84366 10.3885 9.83647 10.2955 9.81152C10.2027 9.78657 10.1157 9.74402 10.0396 9.68555C9.96335 9.62678 9.89886 9.55322 9.85117 9.46973L7.65098 5.65234C7.55367 5.48356 7.52741 5.28278 7.57774 5.09473C7.62805 4.90671 7.75083 4.74566 7.91953 4.64746C8.00287 4.59911 8.09541 4.56834 8.19102 4.55566C8.28665 4.543 8.384 4.54924 8.47715 4.57422ZM26.5807 4.55469C26.6763 4.56735 26.7688 4.59816 26.8521 4.64648C27.0209 4.74469 27.1436 4.90569 27.1939 5.09375C27.2442 5.28171 27.2179 5.48166 27.1207 5.65039L24.9205 9.46875C24.8729 9.55202 24.8091 9.62492 24.733 9.68359C24.6568 9.74232 24.5693 9.78556 24.4762 9.81055C24.383 9.83553 24.2857 9.84177 24.19 9.8291C24.0944 9.81643 24.0019 9.78565 23.9186 9.7373C23.7499 9.63909 23.6271 9.47803 23.5768 9.29004C23.5265 9.10216 23.5529 8.90206 23.65 8.7334L25.8502 4.91504C25.8979 4.83162 25.9624 4.75893 26.0387 4.7002C26.1148 4.64156 26.2016 4.59823 26.2945 4.57324C26.3876 4.54828 26.4851 4.54206 26.5807 4.55469ZM17.3854 2.25C17.7899 2.25003 18.1186 2.57927 18.1188 2.98535V7.39453C18.1187 7.80069 17.79 8.12985 17.3854 8.12988C16.9807 8.12988 16.652 7.80071 16.652 7.39453V2.98535C16.6521 2.57925 16.9808 2.25 17.3854 2.25Z" fill="url(#paint0_linear_1417_11745)"/>
<path d="M16.6334 30.8721V31.1221H16.8834V30.8721H16.6334ZM11.1744 30.8584L11.1309 31.1046L11.1744 30.8584ZM10.5816 24.0938V23.8438H10.3316V24.0938H10.5816ZM16.6334 24.0938H16.8834V23.8438H16.6334V24.0938ZM24.1979 24.0938H24.4479V23.8438H24.1979V24.0938ZM23.442 30.8721L23.442 31.1221L23.4421 31.1221L23.442 30.8721ZM18.1461 30.8721H17.8961V31.1221H18.1461V30.8721ZM18.1461 24.0938V23.8438H17.8961V24.0938H18.1461ZM20.4908 14.3018L20.4908 14.0518L20.4908 14.0518L20.4908 14.3018ZM20.6471 14.3057L20.6611 14.0561L20.6471 14.3057ZM22.609 15.3564L22.8168 15.2175L22.8168 15.2175L22.609 15.3564ZM22.8355 17.6914L22.6036 17.5981L22.5972 17.6141L22.593 17.6308L22.8355 17.6914ZM22.7604 17.9922L22.9936 18.0822L22.9991 18.0678L23.0029 18.0528L22.7604 17.9922ZM22.2193 18.8213L22.0423 18.6447L21.6169 19.0713H22.2193V18.8213ZM25.7105 19.5742L25.9605 19.5742L25.9605 19.5741L25.7105 19.5742ZM25.7105 21.835L25.9605 21.8351V21.835H25.7105ZM18.1461 22.5879H17.8961V22.8379H18.1461V22.5879ZM18.1461 19.5742H18.3961V19.3242H18.1461V19.5742ZM16.6334 19.5742V19.3242H16.3834V19.5742H16.6334ZM16.6334 22.5879V22.8379H16.8834V22.5879H16.6334ZM9.82481 22.5879L9.80231 22.8369L9.81353 22.8379H9.82481V22.5879ZM9.6627 22.5732L9.61926 22.8194L9.62967 22.8213L9.6402 22.8222L9.6627 22.5732ZM9.06895 21.835L8.81895 21.835L8.81895 21.8351L9.06895 21.835ZM9.06895 19.5742L8.81895 19.5741V19.5742H9.06895ZM9.82481 18.8213L9.82481 18.5713L9.82475 18.5713L9.82481 18.8213ZM12.5357 18.8213V19.0713H13.1483L12.7107 18.6427L12.5357 18.8213ZM12.0182 18.0674L11.7756 18.1278L11.7802 18.1463L11.7875 18.1639L12.0182 18.0674ZM11.943 17.7656L12.1856 17.7052L12.1823 17.6923L12.1778 17.6798L11.943 17.7656ZM12.1705 15.4307L12.3784 15.57L12.3845 15.5599L12.1705 15.4307ZM14.1324 14.3057L14.1466 14.5553L14.1324 14.3057ZM14.2887 14.3018L14.2887 14.0518H14.2887V14.3018ZM14.4723 14.3086L14.4912 14.0593L14.4723 14.3086ZM16.5553 15.7041L16.3304 15.8132L16.5553 15.7041ZM16.6334 15.8838L16.4002 15.9739L16.8834 15.8838H16.6334ZM16.6334 15.8828L16.8664 15.7921L16.3834 15.8828H16.6334ZM17.3453 17.7119L17.1123 17.8026L17.1129 17.8041L17.3453 17.7119ZM17.3697 17.7734L17.1374 17.8656L17.3657 18.4411L17.601 17.8684L17.3697 17.7734ZM18.1461 15.8838L18.3774 15.9788L18.3793 15.9738L18.1461 15.8838ZM20.2945 14.3086L20.3124 14.558L20.2945 14.3086ZM20.3463 15.8193L20.3829 16.0666L20.3463 15.8193ZM19.9459 15.9727L19.8078 15.7643L19.8077 15.7643L19.9459 15.9727ZM19.5836 16.4111L19.3531 16.3144L19.2881 16.4692L19.4068 16.5879L19.5836 16.4111ZM19.5846 16.4121L19.8158 16.5073L19.8792 16.3532L19.7613 16.2353L19.5846 16.4121ZM18.9029 18.0684L18.6717 17.9732L18.5297 18.3184H18.9029V18.0684ZM20.4156 18.0684L20.4156 18.3184L20.4157 18.3184L20.4156 18.0684ZM20.9605 17.9043L21.0987 18.1127L21.0987 18.1126L20.9605 17.9043ZM21.3238 17.4668L21.5544 17.5635L21.5618 17.5459L21.5664 17.5272L21.3238 17.4668ZM21.399 17.165L21.1756 17.0528L21.1632 17.0777L21.1564 17.1046L21.399 17.165ZM21.3238 16.2607L21.5472 16.1486L21.537 16.1282L21.5233 16.1101L21.3238 16.2607ZM20.6041 15.8154L20.6351 15.5674L20.6271 15.5664L20.6192 15.5659L20.6041 15.8154ZM20.4908 15.8086L20.5059 15.559L20.4983 15.5586L20.4907 15.5586L20.4908 15.8086ZM14.151 15.8145L14.1247 15.5658L14.151 15.8145ZM13.4566 16.2598L13.6331 16.4369L13.6618 16.4082L13.6801 16.372L13.4566 16.2598ZM13.3053 17.1641L13.0627 17.2245L13.0694 17.2514L13.0818 17.2762L13.3053 17.1641ZM13.4566 17.4658L13.6871 17.369L13.6839 17.3613L13.6801 17.3537L13.4566 17.4658ZM13.8189 17.9033L13.6807 18.1116L13.6807 18.1116L13.8189 17.9033ZM14.2203 18.0566L14.1837 18.3039L14.1927 18.3053L14.2018 18.306L14.2203 18.0566ZM14.3648 18.0674L14.3463 18.3167L14.3556 18.3174H14.3648V18.0674ZM15.8775 18.0674V18.3174H16.2508L16.1087 17.9722L15.8775 18.0674ZM15.1959 16.4111L14.9723 16.2993L14.9214 16.4011L14.9647 16.5063L15.1959 16.4111ZM15.1969 16.4092L15.4205 16.521L15.4719 16.4182L15.4274 16.3124L15.1969 16.4092ZM14.8346 15.9717L14.9728 15.7634L14.9727 15.7633L14.8346 15.9717ZM14.4342 15.8184L14.4709 15.5711L14.4618 15.5697L14.4527 15.569L14.4342 15.8184ZM14.2896 15.8076L14.3082 15.5583L14.2989 15.5576H14.2896V15.8076ZM32.7291 12.1592L32.7939 11.9177L32.7939 11.9177L32.7291 12.1592ZM32.9859 12.2861L33.1386 12.0881L33.1385 12.0881L32.9859 12.2861ZM33.1734 12.502L32.9563 12.6259L32.9568 12.6267L33.1734 12.502ZM33.2467 13.0586L33.4882 13.1232L33.4882 13.1232L33.2467 13.0586ZM32.9049 13.5059L32.7791 13.2898L32.6549 13.3621V13.5059H32.9049ZM32.9049 13.5068L33.03 13.7233L33.1549 13.6511V13.5068H32.9049ZM29.0934 15.7109L28.9682 15.4945L28.9681 15.4946L29.0934 15.7109ZM28.8229 15.8027L28.8557 16.0506L28.8557 16.0506L28.8229 15.8027ZM28.5367 15.7842L28.472 16.0256L28.472 16.0256L28.5367 15.7842ZM28.2799 15.6572L28.1273 15.8552L28.1273 15.8553L28.2799 15.6572ZM28.0924 15.4424L28.3094 15.3182L28.309 15.3175L28.0924 15.4424ZM28.0191 14.8848L27.7777 14.8201L27.7776 14.8201L28.0191 14.8848ZM28.3609 14.4375L28.2358 14.2211L28.2352 14.2214L28.3609 14.4375ZM32.1715 12.2334L32.2967 12.4498L32.2969 12.4496L32.1715 12.2334ZM32.443 12.1406L32.4101 11.8928L32.4101 11.8928L32.443 12.1406ZM2.32871 12.1396L2.36154 11.8918L2.36145 11.8918L2.32871 12.1396ZM2.6002 12.2314L2.47478 12.4477L2.47498 12.4478L2.6002 12.2314ZM6.41074 14.4365L6.53648 14.2204L6.53596 14.2201L6.41074 14.4365ZM6.75352 14.8838L6.99504 14.8192L6.99502 14.8192L6.75352 14.8838ZM6.68027 15.4404H6.43027V16.3757L6.89693 15.5652L6.68027 15.4404ZM6.68027 15.4395H6.93027V14.4976L6.46319 15.3155L6.68027 15.4395ZM6.4918 15.6553L6.64427 15.8534L6.64435 15.8533L6.4918 15.6553ZM6.23496 15.7822L6.29957 16.0237L6.29971 16.0237L6.23496 15.7822ZM5.94981 15.8008L5.91698 16.0486L5.91714 16.0486L5.94981 15.8008ZM5.67832 15.708L5.80377 15.4918L5.80347 15.4916L5.67832 15.708ZM1.8668 13.5039L1.74091 13.7199L1.74165 13.7203L1.8668 13.5039ZM1.525 13.0576L1.2835 13.1222L1.28351 13.1223L1.525 13.0576ZM1.59824 12.5L1.81483 12.6249L1.8153 12.624L1.59824 12.5ZM1.78672 12.2852L1.63419 12.0871L1.63417 12.0871L1.78672 12.2852ZM2.04258 12.1582L1.97783 11.9167L1.97765 11.9168L2.04258 12.1582ZM8.47715 4.57422L8.54195 4.33276L8.5419 4.33275L8.47715 4.57422ZM8.73399 4.70117L8.88662 4.50318L8.88654 4.50311L8.73399 4.70117ZM8.92149 4.91699L8.7044 5.04098L8.70489 5.04183L8.92149 4.91699ZM11.1217 8.73438L11.3383 8.60954L11.3383 8.60954L11.1217 8.73438ZM11.1949 9.29102L11.4364 9.35564L11.4364 9.35557L11.1949 9.29102ZM10.8531 9.73828L10.9786 9.95453L10.9789 9.95436L10.8531 9.73828ZM10.5816 9.83105L10.6144 10.0789L10.6145 10.0789L10.5816 9.83105ZM10.2955 9.81152L10.2306 10.0529L10.2308 10.053L10.2955 9.81152ZM10.0396 9.68555L9.8871 9.88361L9.88726 9.88373L10.0396 9.68555ZM9.85117 9.46973L10.0683 9.34574L10.0678 9.34489L9.85117 9.46973ZM7.65098 5.65234L7.86758 5.5275L7.86756 5.52748L7.65098 5.65234ZM7.57774 5.09473L7.33623 5.03009L7.33623 5.0301L7.57774 5.09473ZM7.91953 4.64746L7.79408 4.43122L7.79376 4.4314L7.91953 4.64746ZM8.19102 4.55566L8.15819 4.30783L8.15817 4.30783L8.19102 4.55566ZM26.5807 4.55469L26.6135 4.30685L26.6134 4.30684L26.5807 4.55469ZM26.8521 4.64648L26.9779 4.43041L26.9776 4.43022L26.8521 4.64648ZM27.1939 5.09375L27.4355 5.02913L27.4354 5.02912L27.1939 5.09375ZM27.1207 5.65039L27.3373 5.77521L27.3373 5.77517L27.1207 5.65039ZM24.9205 9.46875L24.7039 9.34393L24.7035 9.34468L24.9205 9.46875ZM24.733 9.68359L24.8856 9.88166L24.8857 9.88156L24.733 9.68359ZM24.4762 9.81055L24.5409 10.052L24.541 10.052L24.4762 9.81055ZM24.19 9.8291L24.1572 10.0769L24.1572 10.0769L24.19 9.8291ZM23.9186 9.7373L23.7928 9.95335L23.7931 9.95355L23.9186 9.7373ZM23.5768 9.29004L23.3352 9.3546L23.3353 9.35467L23.5768 9.29004ZM23.65 8.7334L23.4334 8.60858L23.4334 8.60864L23.65 8.7334ZM25.8502 4.91504L26.0668 5.03986L26.0672 5.03909L25.8502 4.91504ZM26.0387 4.7002L25.8862 4.50211L25.8861 4.50213L26.0387 4.7002ZM26.2945 4.57324L26.2298 4.33177L26.2296 4.33182L26.2945 4.57324ZM17.3854 2.25L17.3854 2H17.3854V2.25ZM18.1188 2.98535L18.3688 2.98535L18.3688 2.98527L18.1188 2.98535ZM18.1188 7.39453L18.3688 7.39456V7.39453H18.1188ZM17.3854 8.12988L17.3854 8.37988L17.3854 8.37988L17.3854 8.12988ZM16.652 7.39453L16.402 7.39453L16.402 7.39456L16.652 7.39453ZM16.652 2.98535L16.402 2.98527V2.98535H16.652ZM16.6334 30.8721V30.6221H11.3375V30.8721V31.1221H16.6334V30.8721ZM11.3375 30.8721V30.6221C11.2939 30.6221 11.2541 30.6186 11.2179 30.6122L11.1744 30.8584L11.1309 31.1046C11.1983 31.1165 11.2674 31.1221 11.3375 31.1221V30.8721ZM11.1744 30.8584L11.2179 30.6122C11.0913 30.5898 10.9987 30.5325 10.9367 30.4558C10.8743 30.3785 10.8316 30.2672 10.8316 30.1191H10.5816H10.3316C10.3316 30.3659 10.4043 30.5923 10.5477 30.7699C10.6917 30.9482 10.8954 31.063 11.1309 31.1046L11.1744 30.8584ZM10.5816 30.1191H10.8316V24.0938H10.5816H10.3316V30.1191H10.5816ZM10.5816 24.0938V24.3438H16.6334V24.0938V23.8438H10.5816V24.0938ZM16.6334 24.0938H16.3834V30.8721H16.6334H16.8834V24.0938H16.6334ZM24.1979 24.0938H23.9479V30.1191H24.1979H24.4479V24.0938H24.1979ZM24.1979 30.1191H23.9479C23.9479 30.2875 23.8925 30.4089 23.8134 30.4877C23.7343 30.5665 23.6119 30.622 23.4419 30.6221L23.442 30.8721L23.4421 31.1221C23.7253 31.122 23.9808 31.0267 24.1663 30.8419C24.3519 30.657 24.4479 30.402 24.4479 30.1191H24.1979ZM23.442 30.8721V30.6221H18.1461V30.8721V31.1221H23.442V30.8721ZM18.1461 30.8721H18.3961V24.0938H18.1461H17.8961V30.8721H18.1461ZM18.1461 24.0938V24.3438H24.1979V24.0938V23.8438H18.1461V24.0938ZM20.4908 14.3018V14.5518C20.5399 14.5518 20.5871 14.5527 20.633 14.5553L20.6471 14.3057L20.6611 14.0561C20.603 14.0528 20.5459 14.0518 20.4908 14.0518V14.3018ZM20.6471 14.3057L20.633 14.5553C21.348 14.5956 22.0273 14.9361 22.4011 15.4954L22.609 15.3564L22.8168 15.2175C22.3409 14.5055 21.5042 14.1036 20.6611 14.0561L20.6471 14.3057ZM22.609 15.3564L22.4011 15.4954C22.8064 16.1017 22.8771 16.9182 22.6036 17.5981L22.8355 17.6914L23.0675 17.7847C23.3998 16.9587 23.3181 15.9674 22.8168 15.2175L22.609 15.3564ZM22.8355 17.6914L22.593 17.6308L22.5178 17.9316L22.7604 17.9922L23.0029 18.0528L23.0781 17.752L22.8355 17.6914ZM22.7604 17.9922L22.5271 17.9022C22.4172 18.187 22.2496 18.4369 22.0423 18.6447L22.2193 18.8213L22.3963 18.9978C22.6502 18.7433 22.8573 18.4352 22.9936 18.0822L22.7604 17.9922ZM22.2193 18.8213V19.0713H24.9537V18.8213V18.5713H22.2193V18.8213ZM24.9537 18.8213V19.0713C25.1236 19.0713 25.2463 19.1268 25.3257 19.2058C25.405 19.2847 25.4605 19.4061 25.4605 19.5743L25.7105 19.5742L25.9605 19.5741C25.9605 19.2911 25.8641 19.0361 25.6783 18.8513C25.4927 18.6667 25.237 18.5713 24.9537 18.5713V18.8213ZM25.7105 19.5742H25.4605V21.835H25.7105H25.9605V19.5742H25.7105ZM25.7105 21.835L25.4605 21.8349C25.4605 22.003 25.405 22.1244 25.3257 22.2034C25.2463 22.2824 25.1236 22.3379 24.9537 22.3379V22.5879V22.8379C25.237 22.8379 25.4927 22.7425 25.6783 22.5578C25.8641 22.3731 25.9604 22.118 25.9605 21.8351L25.7105 21.835ZM24.9537 22.5879V22.3379H18.1461V22.5879V22.8379H24.9537V22.5879ZM18.1461 22.5879H18.3961V19.5742H18.1461H17.8961V22.5879H18.1461ZM18.1461 19.5742V19.3242H16.6334V19.5742V19.8242H18.1461V19.5742ZM16.6334 19.5742H16.3834V22.5879H16.6334H16.8834V19.5742H16.6334ZM16.6334 22.5879V22.3379H9.82481V22.5879V22.8379H16.6334V22.5879ZM9.82481 22.5879L9.8473 22.3389L9.6852 22.3243L9.6627 22.5732L9.6402 22.8222L9.80231 22.8369L9.82481 22.5879ZM9.6627 22.5732L9.70613 22.327C9.57953 22.3047 9.48659 22.2474 9.42441 22.1707C9.36184 22.0936 9.319 21.9826 9.31895 21.8349L9.06895 21.835L8.81895 21.8351C8.81904 22.0821 8.89225 22.3084 9.03609 22.4857C9.18034 22.6635 9.3842 22.778 9.61926 22.8194L9.6627 22.5732ZM9.06895 21.835H9.31895V19.5742H9.06895H8.81895V21.835H9.06895ZM9.06895 19.5742L9.31895 19.5743C9.319 19.406 9.37437 19.2846 9.45349 19.2057C9.53267 19.1268 9.65502 19.0713 9.82486 19.0713L9.82481 18.8213L9.82475 18.5713C9.54152 18.5713 9.28601 18.6668 9.10057 18.8515C8.91506 19.0364 8.81904 19.2914 8.81895 19.5741L9.06895 19.5742ZM9.82481 18.8213V19.0713H12.5357V18.8213V18.5713H9.82481V18.8213ZM12.5357 18.8213L12.7107 18.6427C12.5127 18.4488 12.3537 18.2216 12.2488 17.9709L12.0182 18.0674L11.7875 18.1639C11.9204 18.4815 12.1193 18.7634 12.3608 18.9999L12.5357 18.8213ZM12.0182 18.0674L12.2607 18.0069L12.1856 17.7052L11.943 17.7656L11.7004 17.8261L11.7756 18.1278L12.0182 18.0674ZM11.943 17.7656L12.1778 17.6798C11.8992 16.9173 11.9733 16.1741 12.3782 15.5698L12.1705 15.4307L11.9628 15.2915C11.4591 16.0433 11.3812 16.9563 11.7081 17.8514L11.943 17.7656ZM12.1705 15.4307L12.3845 15.5599C12.7608 14.9367 13.4354 14.5955 14.1466 14.5553L14.1324 14.3057L14.1183 14.0561C13.2718 14.104 12.4323 14.5134 11.9565 15.3014L12.1705 15.4307ZM14.1324 14.3057L14.1466 14.5553C14.1923 14.5527 14.2396 14.5518 14.2887 14.5518V14.3018V14.0518C14.2337 14.0518 14.1764 14.0528 14.1183 14.0561L14.1324 14.3057ZM14.2887 14.3018L14.2886 14.5518C14.3439 14.5518 14.3989 14.5537 14.4534 14.5579L14.4723 14.3086L14.4912 14.0593C14.4234 14.0542 14.3559 14.0518 14.2887 14.0518L14.2887 14.3018ZM14.4723 14.3086L14.4534 14.5579C15.2292 14.6167 15.9768 15.0846 16.3304 15.8132L16.5553 15.7041L16.7802 15.595C16.3435 14.6949 15.4315 14.1307 14.4912 14.0593L14.4723 14.3086ZM16.5553 15.7041L16.3304 15.8132C16.3556 15.8653 16.379 15.9191 16.4002 15.9739L16.6334 15.8838L16.8666 15.7937C16.8404 15.726 16.8115 15.6595 16.7802 15.595L16.5553 15.7041ZM16.6334 15.8838H16.8834V15.8828H16.6334H16.3834V15.8838H16.6334ZM16.6334 15.8828L16.4004 15.9735L17.1123 17.8026L17.3453 17.7119L17.5783 17.6212L16.8664 15.7921L16.6334 15.8828ZM17.3453 17.7119L17.1129 17.8041L17.1374 17.8656L17.3697 17.7734L17.6021 17.6812L17.5777 17.6197L17.3453 17.7119ZM17.3697 17.7734L17.601 17.8684L18.3773 15.9788L18.1461 15.8838L17.9149 15.7888L17.1385 17.6784L17.3697 17.7734ZM18.1461 15.8838L18.3793 15.9738C18.6979 15.1482 19.432 14.6209 20.3124 14.558L20.2945 14.3086L20.2767 14.0592C19.209 14.1355 18.3033 14.7821 17.9129 15.7938L18.1461 15.8838ZM20.2945 14.3086L20.3124 14.558C20.3708 14.5538 20.4303 14.5518 20.4908 14.5518L20.4908 14.3018L20.4908 14.0518C20.4192 14.0518 20.3478 14.0541 20.2767 14.0592L20.2945 14.3086ZM20.3463 15.8193L20.3096 15.572C20.1312 15.5985 19.9596 15.6636 19.8078 15.7643L19.9459 15.9727L20.084 16.1811C20.1741 16.1213 20.2763 16.0824 20.3829 16.0666L20.3463 15.8193ZM19.9459 15.9727L19.8077 15.7643C19.6048 15.8989 19.4468 16.0909 19.3531 16.3144L19.5836 16.4111L19.8141 16.5078C19.87 16.3747 19.964 16.2607 20.0841 16.181L19.9459 15.9727ZM19.5836 16.4111L19.4068 16.5879L19.4078 16.5889L19.5846 16.4121L19.7613 16.2353L19.7604 16.2344L19.5836 16.4111ZM19.5846 16.4121L19.3534 16.317L18.6717 17.9732L18.9029 18.0684L19.1341 18.1635L19.8158 16.5073L19.5846 16.4121ZM18.9029 18.0684V18.3184H20.4156V18.0684V17.8184H18.9029V18.0684ZM20.4156 18.0684L20.4157 18.3184C20.6586 18.3183 20.8962 18.2469 21.0987 18.1127L20.9605 17.9043L20.8224 17.6959C20.702 17.7757 20.5605 17.8183 20.4156 17.8184L20.4156 18.0684ZM20.9605 17.9043L21.0987 18.1126C21.3006 17.9787 21.4601 17.7881 21.5544 17.5635L21.3238 17.4668L21.0933 17.3701C21.0379 17.502 20.9434 17.6156 20.8223 17.696L20.9605 17.9043ZM21.3238 17.4668L21.5664 17.5272L21.6416 17.2255L21.399 17.165L21.1564 17.1046L21.0812 17.4063L21.3238 17.4668ZM21.399 17.165L21.6224 17.2772C21.8275 16.8688 21.7109 16.4744 21.5472 16.1486L21.3238 16.2607L21.1004 16.3729C21.2397 16.6503 21.2735 16.858 21.1756 17.0528L21.399 17.165ZM21.3238 16.2607L21.5233 16.1101C21.2883 15.7988 20.9738 15.6096 20.6351 15.5674L20.6041 15.8154L20.5731 16.0635C20.7622 16.0871 20.9607 16.1947 21.1243 16.4114L21.3238 16.2607ZM20.6041 15.8154L20.6192 15.5659L20.5059 15.559L20.4908 15.8086L20.4758 16.0581L20.589 16.065L20.6041 15.8154ZM20.4908 15.8086L20.4907 15.5586C20.4296 15.5586 20.3691 15.5632 20.3096 15.572L20.3463 15.8193L20.3829 16.0666C20.4188 16.0613 20.4548 16.0586 20.4909 16.0586L20.4908 15.8086ZM14.151 15.8145L14.1247 15.5658C13.7439 15.606 13.411 15.7935 13.2332 16.1476L13.4566 16.2598L13.6801 16.372C13.7672 16.1984 13.9317 16.089 14.1772 16.0631L14.151 15.8145ZM13.4566 16.2598L13.2802 16.0826C12.9554 16.4062 12.9824 16.9024 13.0627 17.2245L13.3053 17.1641L13.5479 17.1036C13.4778 16.8225 13.5048 16.5647 13.6331 16.4369L13.4566 16.2598ZM13.3053 17.1641L13.0818 17.2762L13.2332 17.5779L13.4566 17.4658L13.6801 17.3537L13.5287 17.052L13.3053 17.1641ZM13.4566 17.4658L13.2261 17.5626C13.3201 17.7863 13.4784 17.9774 13.6807 18.1116L13.8189 17.9033L13.9572 17.695C13.8368 17.6151 13.7428 17.5015 13.6871 17.369L13.4566 17.4658ZM13.8189 17.9033L13.6807 18.1116C13.8332 18.2128 14.0054 18.2776 14.1837 18.3039L14.2203 18.0566L14.2569 17.8093C14.1496 17.7934 14.047 17.7546 13.9571 17.695L13.8189 17.9033ZM14.2203 18.0566L14.2018 18.306L14.3463 18.3167L14.3648 18.0674L14.3834 17.8181L14.2388 17.8073L14.2203 18.0566ZM14.3648 18.0674V18.3174H15.8775V18.0674V17.8174H14.3648V18.0674ZM15.8775 18.0674L16.1087 17.9722L15.4271 16.316L15.1959 16.4111L14.9647 16.5063L15.6464 18.1625L15.8775 18.0674ZM15.1959 16.4111L15.4195 16.5229L15.4205 16.521L15.1969 16.4092L14.9733 16.2974L14.9723 16.2993L15.1959 16.4111ZM15.1969 16.4092L15.4274 16.3124C15.3334 16.0887 15.1752 15.8976 14.9728 15.7634L14.8346 15.9717L14.6964 16.18C14.8167 16.2598 14.9107 16.3734 14.9664 16.506L15.1969 16.4092ZM14.8346 15.9717L14.9727 15.7633C14.8208 15.6626 14.6493 15.5975 14.4709 15.5711L14.4342 15.8184L14.3975 16.0657C14.5043 16.0815 14.6064 16.1204 14.6964 16.18L14.8346 15.9717ZM14.4342 15.8184L14.4527 15.569L14.3082 15.5583L14.2896 15.8076L14.2711 16.0569L14.4157 16.0677L14.4342 15.8184ZM14.2896 15.8076V15.5576C14.235 15.5576 14.1797 15.56 14.1247 15.5658L14.151 15.8145L14.1772 16.0631C14.212 16.0594 14.2495 16.0576 14.2896 16.0576V15.8076ZM32.7291 12.1592L32.6643 12.4006C32.7257 12.4171 32.7833 12.4456 32.8334 12.4842L32.9859 12.2861L33.1385 12.0881C33.0361 12.0092 32.9188 11.9512 32.7939 11.9177L32.7291 12.1592ZM32.9859 12.2861L32.8333 12.4841C32.8829 12.5223 32.9248 12.5706 32.9564 12.6259L33.1734 12.502L33.3905 12.378C33.3268 12.2664 33.2415 12.1674 33.1386 12.0881L32.9859 12.2861ZM33.1734 12.502L32.9568 12.6267C33.021 12.7382 33.0383 12.8701 33.0052 12.994L33.2467 13.0586L33.4882 13.1232C33.5556 12.8712 33.5202 12.6032 33.3901 12.3772L33.1734 12.502ZM33.2467 13.0586L33.0052 12.994C32.9719 13.1184 32.8907 13.2249 32.7791 13.2898L32.9049 13.5059L33.0306 13.7219C33.2566 13.5904 33.4208 13.3749 33.4882 13.1232L33.2467 13.0586ZM32.9049 13.5059H32.6549V13.5068H32.9049H33.1549V13.5059H32.9049ZM32.9049 13.5068L32.7797 13.2904L28.9682 15.4945L29.0934 15.7109L29.2185 15.9274L33.03 13.7233L32.9049 13.5068ZM29.0934 15.7109L28.9681 15.4946C28.9139 15.526 28.8534 15.5465 28.79 15.5549L28.8229 15.8027L28.8557 16.0506C28.9831 16.0337 29.1065 15.9922 29.2186 15.9273L29.0934 15.7109ZM28.8229 15.8027L28.79 15.5549C28.7268 15.5633 28.6626 15.5591 28.6015 15.5427L28.5367 15.7842L28.472 16.0256C28.5971 16.0592 28.7276 16.0675 28.8557 16.0506L28.8229 15.8027ZM28.5367 15.7842L28.6015 15.5427C28.5401 15.5263 28.4826 15.4978 28.4324 15.4592L28.2799 15.6572L28.1273 15.8553C28.2298 15.9342 28.347 15.9921 28.472 16.0256L28.5367 15.7842ZM28.2799 15.6572L28.4325 15.4592C28.3823 15.4205 28.3405 15.3726 28.3094 15.3182L28.0924 15.4424L27.8754 15.5665C27.9395 15.6787 28.0253 15.7766 28.1273 15.8552L28.2799 15.6572ZM28.0924 15.4424L28.309 15.3175C28.2448 15.2062 28.2274 15.0736 28.2606 14.9494L28.0191 14.8848L27.7776 14.8201C27.7102 15.0721 27.7454 15.341 27.8758 15.5672L28.0924 15.4424ZM28.0191 14.8848L28.2606 14.9494C28.294 14.825 28.3752 14.7184 28.4867 14.6536L28.3609 14.4375L28.2352 14.2214C28.0092 14.3529 27.845 14.5685 27.7777 14.8201L28.0191 14.8848ZM28.3609 14.4375L28.4861 14.6539L32.2967 12.4498L32.1715 12.2334L32.0463 12.017L28.2358 14.2211L28.3609 14.4375ZM32.1715 12.2334L32.2969 12.4496C32.3521 12.4177 32.4131 12.3968 32.4758 12.3885L32.443 12.1406L32.4101 11.8928C32.2816 11.9098 32.1576 11.9524 32.046 12.0172L32.1715 12.2334ZM32.443 12.1406L32.4758 12.3885C32.539 12.3801 32.6032 12.3842 32.6644 12.4006L32.7291 12.1592L32.7939 11.9177C32.6687 11.8842 32.5382 11.8758 32.4101 11.8928L32.443 12.1406ZM2.32871 12.1396L2.29588 12.3875C2.36011 12.396 2.42103 12.4165 2.47478 12.4477L2.6002 12.2314L2.72561 12.0152C2.61271 11.9497 2.48849 11.9086 2.36154 11.8918L2.32871 12.1396ZM2.6002 12.2314L2.47498 12.4478L6.28553 14.6529L6.41074 14.4365L6.53596 14.2201L2.72541 12.0151L2.6002 12.2314ZM6.41074 14.4365L6.285 14.6526C6.39718 14.7179 6.47891 14.8247 6.51201 14.9484L6.75352 14.8838L6.99502 14.8192C6.92748 14.5668 6.76182 14.3516 6.53648 14.2204L6.41074 14.4365ZM6.75352 14.8838L6.51199 14.9483C6.5451 15.0722 6.52775 15.2043 6.46362 15.3157L6.68027 15.4404L6.89693 15.5652C7.02699 15.3393 7.06234 15.0711 6.99504 14.8192L6.75352 14.8838ZM6.68027 15.4404H6.93027V15.4395H6.68027H6.43027V15.4404H6.68027ZM6.68027 15.4395L6.46319 15.3155C6.43218 15.3698 6.3898 15.4183 6.33925 15.4572L6.4918 15.6553L6.64435 15.8533C6.74641 15.7747 6.83299 15.6761 6.89736 15.5634L6.68027 15.4395ZM6.4918 15.6553L6.33933 15.4571C6.28911 15.4958 6.23138 15.5244 6.17021 15.5408L6.23496 15.7822L6.29971 16.0237C6.42466 15.9902 6.54199 15.9321 6.64427 15.8534L6.4918 15.6553ZM6.23496 15.7822L6.17035 15.5407C6.10927 15.5571 6.04539 15.5612 5.98247 15.5529L5.94981 15.8008L5.91714 16.0486C6.04491 16.0655 6.1749 16.0571 6.29957 16.0237L6.23496 15.7822ZM5.94981 15.8008L5.98263 15.5529C5.91998 15.5446 5.85891 15.5237 5.80377 15.4918L5.67832 15.708L5.55287 15.9243C5.66444 15.989 5.78838 16.0316 5.91698 16.0486L5.94981 15.8008ZM5.67832 15.708L5.80347 15.4916L1.99195 13.2875L1.8668 13.5039L1.74165 13.7203L5.55317 15.9244L5.67832 15.708ZM1.8668 13.5039L1.99269 13.2879C1.88073 13.2227 1.79959 13.1165 1.76649 12.9929L1.525 13.0576L1.28351 13.1223C1.35102 13.3743 1.51591 13.5888 1.74091 13.7199L1.8668 13.5039ZM1.525 13.0576L1.7665 12.993C1.73327 12.8688 1.75065 12.7362 1.81483 12.6249L1.59824 12.5L1.38166 12.3751C1.25123 12.6014 1.21608 12.8703 1.2835 13.1222L1.525 13.0576ZM1.59824 12.5L1.8153 12.624C1.84578 12.5707 1.88787 12.5228 1.93927 12.4832L1.78672 12.2852L1.63417 12.0871C1.53304 12.165 1.44607 12.2624 1.38118 12.376L1.59824 12.5ZM1.78672 12.2852L1.93925 12.4832C1.98981 12.4443 2.04692 12.4159 2.1075 12.3996L2.04258 12.1582L1.97765 11.9168C1.85238 11.9505 1.73593 12.0087 1.63419 12.0871L1.78672 12.2852ZM2.04258 12.1582L2.10733 12.3997C2.16835 12.3833 2.23275 12.3791 2.29598 12.3875L2.32871 12.1396L2.36145 11.8918C2.2336 11.8749 2.10293 11.8832 1.97783 11.9167L2.04258 12.1582ZM8.47715 4.57422L8.41235 4.81567C8.47369 4.83214 8.53133 4.86064 8.58144 4.89923L8.73399 4.70117L8.88654 4.50311C8.78411 4.42422 8.66681 4.36627 8.54195 4.33276L8.47715 4.57422ZM8.73399 4.70117L8.58135 4.89917C8.63089 4.93736 8.67283 4.9857 8.7044 5.04098L8.92149 4.91699L9.13857 4.79301C9.07487 4.68146 8.98948 4.58247 8.88662 4.50318L8.73399 4.70117ZM8.92149 4.91699L8.70489 5.04183L10.9051 8.85921L11.1217 8.73438L11.3383 8.60954L9.13808 4.79215L8.92149 4.91699ZM11.1217 8.73438L10.9051 8.85921C10.9692 8.97054 10.9866 9.10241 10.9534 9.22646L11.1949 9.29102L11.4364 9.35557C11.5038 9.1037 11.4686 8.83561 11.3383 8.60954L11.1217 8.73438ZM11.1949 9.29102L10.9534 9.22639C10.9201 9.35081 10.8389 9.4573 10.7274 9.5222L10.8531 9.73828L10.9789 9.95436C11.2048 9.82287 11.3691 9.60734 11.4364 9.35564L11.1949 9.29102ZM10.8531 9.73828L10.7277 9.52204C10.6725 9.55402 10.6115 9.57492 10.5488 9.58322L10.5816 9.83105L10.6145 10.0789C10.7431 10.0619 10.867 10.0193 10.9786 9.95453L10.8531 9.73828ZM10.5816 9.83105L10.5489 9.5832C10.4874 9.59133 10.4229 9.58686 10.3603 9.57005L10.2955 9.81152L10.2308 10.053C10.3542 10.0861 10.4849 10.096 10.6144 10.0789L10.5816 9.83105ZM10.2955 9.81152L10.3604 9.5701C10.2986 9.55348 10.2414 9.52534 10.192 9.48736L10.0396 9.68555L9.88726 9.88373C9.98996 9.9627 10.1069 10.0197 10.2306 10.0529L10.2955 9.81152ZM10.0396 9.68555L10.1922 9.48749C10.1417 9.44855 10.0993 9.40003 10.0683 9.34574L9.85117 9.46973L9.63409 9.59372C9.69845 9.70641 9.78504 9.805 9.8871 9.88361L10.0396 9.68555ZM9.85117 9.46973L10.0678 9.34489L7.86758 5.5275L7.65098 5.65234L7.43438 5.77718L9.63457 9.59457L9.85117 9.46973ZM7.65098 5.65234L7.86756 5.52748C7.80338 5.41616 7.78601 5.28354 7.81924 5.15935L7.57774 5.09473L7.33623 5.0301C7.26882 5.28203 7.30396 5.55096 7.43439 5.77721L7.65098 5.65234ZM7.57774 5.09473L7.81924 5.15936C7.85252 5.03499 7.93377 4.92845 8.0453 4.86352L7.91953 4.64746L7.79376 4.4314C7.56789 4.56288 7.40359 4.77842 7.33623 5.03009L7.57774 5.09473ZM7.91953 4.64746L8.04499 4.8637C8.09869 4.83255 8.15956 4.81202 8.22386 4.8035L8.19102 4.55566L8.15817 4.30783C8.03125 4.32465 7.90705 4.36567 7.79408 4.43122L7.91953 4.64746ZM8.19102 4.55566L8.22385 4.8035C8.28704 4.79513 8.35122 4.79928 8.4124 4.81569L8.47715 4.57422L8.5419 4.33275C8.41677 4.2992 8.28625 4.29087 8.15819 4.30783L8.19102 4.55566ZM26.5807 4.55469L26.5478 4.80252C26.6121 4.81103 26.673 4.83158 26.7267 4.86275L26.8521 4.64648L26.9776 4.43022C26.8647 4.36474 26.7404 4.32367 26.6135 4.30685L26.5807 4.55469ZM26.8521 4.64648L26.7264 4.86256C26.838 4.92747 26.9192 5.03396 26.9524 5.15838L27.1939 5.09375L27.4354 5.02912C27.3681 4.77743 27.2039 4.5619 26.9779 4.43041L26.8521 4.64648ZM27.1939 5.09375L26.9524 5.15837C26.9856 5.28228 26.9683 5.41413 26.9041 5.52561L27.1207 5.65039L27.3373 5.77517C27.4675 5.54919 27.5029 5.28114 27.4355 5.02913L27.1939 5.09375ZM27.1207 5.65039L26.9041 5.52558L24.7039 9.34393L24.9205 9.46875L25.1371 9.59357L27.3373 5.77521L27.1207 5.65039ZM24.9205 9.46875L24.7035 9.34468C24.6725 9.39892 24.6307 9.44682 24.5803 9.48563L24.733 9.68359L24.8857 9.88156C24.9875 9.80303 25.0734 9.70512 25.1376 9.59282L24.9205 9.46875ZM24.733 9.68359L24.5805 9.48553C24.5304 9.52411 24.4727 9.55263 24.4114 9.5691L24.4762 9.81055L24.541 10.052C24.6658 10.0185 24.7831 9.96054 24.8856 9.88166L24.733 9.68359ZM24.4762 9.81055L24.4114 9.56908C24.3502 9.58548 24.2861 9.58964 24.2229 9.58127L24.19 9.8291L24.1572 10.0769C24.2853 10.0939 24.4158 10.0856 24.5409 10.052L24.4762 9.81055ZM24.19 9.8291L24.2229 9.58127C24.1586 9.57274 24.0977 9.55221 24.044 9.52106L23.9186 9.7373L23.7931 9.95355C23.9061 10.0191 24.0303 10.0601 24.1572 10.0769L24.19 9.8291ZM23.9186 9.7373L24.0444 9.52126C23.9328 9.45631 23.8515 9.34971 23.8183 9.22541L23.5768 9.29004L23.3353 9.35467C23.4026 9.60634 23.567 9.82188 23.7928 9.95335L23.9186 9.7373ZM23.5768 9.29004L23.8183 9.22548C23.7852 9.10158 23.8025 8.96955 23.8666 8.85815L23.65 8.7334L23.4334 8.60864C23.3033 8.83457 23.2679 9.10273 23.3352 9.3546L23.5768 9.29004ZM23.65 8.7334L23.8666 8.85821L26.0668 5.03985L25.8502 4.91504L25.6336 4.79022L23.4334 8.60858L23.65 8.7334ZM25.8502 4.91504L26.0672 5.03909C26.0977 4.98575 26.1398 4.93783 26.1912 4.89826L26.0387 4.7002L25.8861 4.50213C25.785 4.58002 25.698 4.67748 25.6331 4.79099L25.8502 4.91504ZM26.0387 4.7002L26.1912 4.89829C26.2418 4.85934 26.2989 4.83095 26.3594 4.81467L26.2945 4.57324L26.2296 4.33182C26.1043 4.36551 25.9879 4.42379 25.8862 4.50211L26.0387 4.7002ZM26.2945 4.57324L26.3593 4.81471C26.4203 4.79834 26.4847 4.79418 26.5479 4.80253L26.5807 4.55469L26.6134 4.30684C26.4855 4.28995 26.3549 4.29823 26.2298 4.33177L26.2945 4.57324ZM17.3854 2.25L17.3853 2.5C17.6512 2.50002 17.8687 2.71677 17.8688 2.98543L18.1188 2.98535L18.3688 2.98527C18.3686 2.44176 17.9286 2.00004 17.3854 2L17.3854 2.25ZM18.1188 2.98535H17.8688V7.39453H18.1188H18.3688V2.98535H18.1188ZM18.1188 7.39453L17.8688 7.39451C17.8687 7.66314 17.6514 7.87986 17.3853 7.87988L17.3854 8.12988L17.3854 8.37988C17.9286 8.37985 18.3687 7.93824 18.3688 7.39456L18.1188 7.39453ZM17.3854 8.12988V7.87988C17.1193 7.87988 16.902 7.66318 16.902 7.39451L16.652 7.39453L16.402 7.39456C16.402 7.93824 16.8421 8.37988 17.3854 8.37988V8.12988ZM16.652 7.39453H16.902V2.98535H16.652H16.402V7.39453H16.652ZM16.652 2.98535L16.902 2.98543C16.902 2.71674 17.1194 2.5 17.3854 2.5V2.25V2C16.8421 2 16.4021 2.44176 16.402 2.98527L16.652 2.98535Z" fill="url(#paint1_linear_1417_11745)" mask="url(#path-1-inside-1_1417_11745)"/>
</g>
</g>
<defs>
<filter id="filter0_ddiiiii_1417_11745" x="-3.69619e-08" y="0" width="34.7716" height="32.1221" filterUnits="userSpaceOnUse" color-interpolation-filters="sRGB">
<feFlood flood-opacity="0" result="BackgroundImageFix"/>
<feColorMatrix in="SourceAlpha" type="matrix" values="0 0 0 0 0 0 0 0 0 0 0 0 0 0 0 0 0 0 127 0" result="hardAlpha"/>
<feOffset dy="0.5"/>
<feGaussianBlur stdDeviation="0.375"/>
<feComposite in2="hardAlpha" operator="out"/>
<feColorMatrix type="matrix" values="0 0 0 0 0 0 0 0 0 0 0 0 0 0 0 0 0 0 0.5 0"/>
<feBlend mode="overlay" in2="BackgroundImageFix" result="effect1_dropShadow_1417_11745"/>
<feColorMatrix in="SourceAlpha" type="matrix" values="0 0 0 0 0 0 0 0 0 0 0 0 0 0 0 0 0 0 127 0" result="hardAlpha"/>
<feOffset dy="-0.75"/>
<feGaussianBlur stdDeviation="0.75"/>
<feComposite in2="hardAlpha" operator="out"/>
<feColorMatrix type="matrix" values="0 0 0 0 1 0 0 0 0 1 0 0 0 0 1 0 0 0 0.5 0"/>
<feBlend mode="overlay" in2="effect1_dropShadow_1417_11745" result="effect2_dropShadow_1417_11745"/>
<feBlend mode="normal" in="SourceGraphic" in2="effect2_dropShadow_1417_11745" result="shape"/>
<feColorMatrix in="SourceAlpha" type="matrix" values="0 0 0 0 0 0 0 0 0 0 0 0 0 0 0 0 0 0 127 0" result="hardAlpha"/>
<feOffset/>
<feGaussianBlur stdDeviation="1"/>
<feComposite in2="hardAlpha" operator="arithmetic" k2="-1" k3="1"/>
<feColorMatrix type="matrix" values="0 0 0 0 1 0 0 0 0 1 0 0 0 0 1 0 0 0 0.7 0"/>
<feBlend mode="normal" in2="shape" result="effect3_innerShadow_1417_11745"/>
<feColorMatrix in="SourceAlpha" type="matrix" values="0 0 0 0 0 0 0 0 0 0 0 0 0 0 0 0 0 0 127 0" result="hardAlpha"/>
<feOffset dy="1"/>
<feGaussianBlur stdDeviation="0.5"/>
<feComposite in2="hardAlpha" operator="arithmetic" k2="-1" k3="1"/>
<feColorMatrix type="matrix" values="0 0 0 0 1 0 0 0 0 1 0 0 0 0 1 0 0 0 0.7 0"/>
<feBlend mode="overlay" in2="effect3_innerShadow_1417_11745" result="effect4_innerShadow_1417_11745"/>
<feColorMatrix in="SourceAlpha" type="matrix" values="0 0 0 0 0 0 0 0 0 0 0 0 0 0 0 0 0 0 127 0" result="hardAlpha"/>
<feOffset dy="-1"/>
<feGaussianBlur stdDeviation="0.5"/>
<feComposite in2="hardAlpha" operator="arithmetic" k2="-1" k3="1"/>
<feColorMatrix type="matrix" values="0 0 0 0 0 0 0 0 0 0 0 0 0 0 0 0 0 0 0.8 0"/>
<feBlend mode="overlay" in2="effect4_innerShadow_1417_11745" result="effect5_innerShadow_1417_11745"/>
<feColorMatrix in="SourceAlpha" type="matrix" values="0 0 0 0 0 0 0 0 0 0 0 0 0 0 0 0 0 0 127 0" result="hardAlpha"/>
<feOffset/>
<feGaussianBlur stdDeviation="0.175"/>
<feComposite in2="hardAlpha" operator="arithmetic" k2="-1" k3="1"/>
<feColorMatrix type="matrix" values="0 0 0 0 0 0 0 0 0 0 0 0 0 0 0 0 0 0 1 0"/>
<feBlend mode="overlay" in2="effect5_innerShadow_1417_11745" result="effect6_innerShadow_1417_11745"/>
<feColorMatrix in="SourceAlpha" type="matrix" values="0 0 0 0 0 0 0 0 0 0 0 0 0 0 0 0 0 0 127 0" result="hardAlpha"/>
<feOffset/>
<feGaussianBlur stdDeviation="0.375"/>
<feComposite in2="hardAlpha" operator="arithmetic" k2="-1" k3="1"/>
<feColorMatrix type="matrix" values="0 0 0 0 0 0 0 0 0 0 0 0 0 0 0 0 0 0 0.8 0"/>
<feBlend mode="overlay" in2="effect6_innerShadow_1417_11745" result="effect7_innerShadow_1417_11745"/>
</filter>
<linearGradient id="paint0_linear_1417_11745" x1="13.3226" y1="2.25" x2="13.3226" y2="37.4772" gradientUnits="userSpaceOnUse">
<stop stop-color="#F6F7F9"/>
<stop offset="1" stop-color="#EAECF1"/>
</linearGradient>
<linearGradient id="paint1_linear_1417_11745" x1="13.3226" y1="2.25" x2="13.3226" y2="13.6988" gradientUnits="userSpaceOnUse">
<stop stop-color="white"/>
<stop offset="1" stop-color="white" stop-opacity="0"/>
</linearGradient>
</defs>
</svg>
