<svg width="72" height="89" viewBox="0 0 72 89" fill="none" xmlns="http://www.w3.org/2000/svg">
<path d="M69.7446 30.3647C63.8458 34.0294 60.2024 40.3118 60.2024 47.2922C60.2024 55.1451 64.8867 62.3 72 65.2667C70.6121 69.8039 68.5301 73.9922 65.9277 77.8314C62.1108 83.2412 58.1205 88.8255 52.2217 88.8255C46.3229 88.8255 44.588 85.3353 37.6482 85.3353C30.8819 85.3353 28.453 89 22.9012 89C17.3494 89 13.5325 83.9392 9.19518 77.6569C3.46988 68.9314 0.173494 58.8098 0 48.1647C0 30.8882 11.1036 21.6392 22.2072 21.6392C28.106 21.6392 32.9639 25.4784 36.6072 25.4784C40.0771 25.4784 45.6289 21.4647 52.2217 21.4647C59.1614 21.2902 65.7542 24.6059 69.7446 30.3647ZM49.0988 14.1353C52.0482 10.6451 53.6096 6.28235 53.7831 1.7451C53.7831 1.22157 53.7831 0.523529 53.6096 0C48.5783 0.523529 43.894 2.96667 40.5976 6.80588C37.6482 10.1216 35.9133 14.3098 35.7398 18.8471C35.7398 19.3706 35.7398 19.8941 35.9133 20.4176C36.2602 20.4176 36.7807 20.5922 37.1277 20.5922C41.812 20.2431 46.1494 17.8 49.0988 14.1353Z" fill="white"/>
</svg>
