<svg width="99" height="101" viewBox="0 0 99 101" fill="none" xmlns="http://www.w3.org/2000/svg">
<path d="M49.4951 0C76.8371 0.000167845 98.9989 22.5389 98.999 50.3359C98.999 78.1405 76.8371 100.678 49.4951 100.678C22.1629 100.678 6.23636e-05 78.1406 0 50.3359C9.82623e-05 22.5388 22.1629 0 49.4951 0ZM41.2988 92.9658L42.7021 93.1387L43.4453 91.7812L46.0918 92.1113L46.4932 93.6055L47.9307 93.7822L46.0156 87.04L44.7461 86.8867L41.2988 92.9658ZM55.7715 86.8242L56.2529 90.7334L52.8408 87.1953L51.5693 87.3555L52.3496 93.71L53.7109 93.54L53.2158 89.4971L56.7393 93.1543L57.9082 93.0059L57.1318 86.6494L55.7715 86.8242ZM37.3252 84.9316C35.5142 84.2302 33.7334 85.1342 33.0928 86.8369L33.0879 86.8555C32.4437 88.577 33.2216 90.4299 34.9551 91.1064C36.091 91.5449 36.915 91.3946 37.7676 90.9736L37.2627 89.8057C36.6405 90.0563 36.1227 90.1695 35.4512 89.9102C34.441 89.5167 34.0646 88.3891 34.4502 87.3643L34.4561 87.3477C34.8393 86.3166 35.8683 85.7557 36.8613 86.1416C37.45 86.3697 37.8184 86.8081 38.1152 87.4043L39.2988 86.7549C38.9575 85.997 38.4339 85.3601 37.3252 84.9316ZM45.748 90.8096L44.083 90.6055L45.1621 88.6426L45.748 90.8096ZM67.708 83.4883C66.8753 83.2503 66.1275 83.2582 65.0977 83.7393C63.3617 84.5449 62.7021 86.4974 63.4512 88.1514L63.458 88.166C64.2367 89.89 66.0415 90.5939 67.8242 89.7607C68.7234 89.3428 69.4442 88.6086 69.8535 87.6934L68.707 85.1611L66.2266 86.3232L66.7236 87.4316L67.9932 86.8369L68.3691 87.6709C68.1523 88.0517 67.7986 88.3619 67.3379 88.5762C66.3264 89.0498 65.2526 88.601 64.7695 87.5361L64.7627 87.5186C64.3155 86.5325 64.6729 85.366 65.5908 84.9375C66.2523 84.6306 66.7435 84.6632 67.3545 84.8311L67.708 83.4883ZM26.7842 86.835L27.959 87.5781L31.2773 82.1367L30.0996 81.3965L26.7842 86.835ZM75.7686 79.2559C74.964 78.221 73.7795 78.1573 72.6104 79.0957L70.3545 80.9141L74.2637 85.9395L75.3496 85.0625L74.0977 83.4531L74.9541 82.7695L77.2656 83.5264L78.5322 82.5059L75.9326 81.6797C76.3786 80.9379 76.4091 80.0792 75.7783 79.2686L75.7686 79.2559ZM22.5225 79.2891L18.7373 80.1787L19.8955 81.2637L22.4062 80.624L21.9834 83.2119L23.1748 84.3281L23.7383 80.4062L27.3711 79.5488L26.2148 78.4658L23.8506 79.082L24.2568 76.6357L23.0645 75.5244L22.5225 79.2891ZM73.2979 80.166C73.8264 79.7425 74.3425 79.7252 74.7109 80.1963L74.7197 80.2148C75.0536 80.6383 74.9713 81.1718 74.4404 81.5928L73.3379 82.4785L72.2197 81.0391L73.2979 80.166ZM49.4951 19.9473C32.9977 19.9473 19.6173 33.555 19.6172 50.3359C19.6172 67.1245 32.9977 80.7305 49.4951 80.7305C66.0072 80.7303 79.3876 67.1231 79.3877 50.3359C79.3876 33.5538 66.0072 19.9474 49.4951 19.9473ZM76.8008 75.0713L81.5615 79.2686L82.4658 78.2061L77.71 74.0088L76.8008 75.0713ZM49.4971 21.9863C64.9039 21.9864 77.3874 34.6816 77.3877 50.3359C77.3877 65.9993 64.904 78.6972 49.4971 78.6973C34.106 78.6973 21.624 65.9993 21.624 50.3359C21.6243 34.6815 34.1062 21.9863 49.4971 21.9863ZM13.3467 72.9258L16.0625 76.957L17.0791 76.2441L15.1445 73.376L16.2363 72.6152L17.918 75.1074L18.9346 74.3984L17.2529 71.9053L18.3086 71.1689L20.2178 74.002L21.2344 73.2891L18.5488 69.3047L13.3467 72.9258ZM85.0117 72.4482L80.6836 69.8262L79.9746 71.0342L85.3838 74.3154L87.7031 70.3623L86.6191 69.71L85.0117 72.4482ZM54.7744 30.1611L49.1826 34.7793L46.7188 36.8428H44.751L42.1494 35.6738C42.1494 35.6738 41.0368 36.5283 40.417 36.7979C39.7961 37.0672 40.196 36.9755 41.3896 36.9316C42.5823 36.8865 43.3223 37.8301 43.3223 37.8301L43.7773 38.0557L43.4219 38.21C41.1287 38.7084 39.2354 38.6549 38.9902 38.9014C38.4494 39.4539 37.0212 40.8172 36.2314 41.6191C35.4392 42.4248 35.0805 42.588 35.1963 43.2871C35.3429 44.1782 34.4277 51.537 34.4277 52.3389C34.4279 53.1447 35.0115 55.3162 35.0117 56.1221C35.0117 56.9239 43.2227 68.5421 43.7148 68.543C43.7148 68.543 46.3014 70.0381 47.1885 70.0381C48.08 70.0383 51.9493 70.7054 55.8828 70.5801C59.4891 70.4623 59.875 69.127 59.875 69.127C62.0371 66.8128 62.0319 64.93 61.6475 64.8975C59.538 64.7281 54.2885 61.0276 53.9473 60.6768C53.5963 60.3247 53.4811 59.5733 53.4072 59.1611C53.2939 58.5184 53.6302 57.6398 52.9082 56.9131C52.1903 56.1854 52.9084 56.4602 53.6045 55.7549C54.2968 55.0506 54.839 52.5626 55.9785 51.4111C57.1145 50.2559 57.9306 46.1965 57.1396 45.3945C56.3475 44.5865 55.0049 41.1265 54.2705 40.4492L53.6084 40.2236C53.6084 40.2236 55.202 40.2231 55.6455 39.8184C56.0886 39.4137 56.3064 38.7856 55.7773 38.8291C55.2476 38.873 53.8306 39.0093 53.3438 38.6035C52.8585 38.1998 52.5164 37.5781 52.5127 37.5713L53.3604 34.165C53.3604 34.165 55.6883 31.8098 56.7959 31.6758C57.9036 31.5405 60.2373 31.5625 60.2373 31.5625C60.2373 31.5625 61.5735 34.1911 61.6797 34.5537C61.7943 34.9133 60.9083 35.544 60.6865 35.7695C60.4643 35.994 59.5313 36.6236 60.0215 36.5811C60.5096 36.5334 62.564 36.3459 62.8438 36.5752L63.6055 33.7461C63.6055 33.7461 63.7826 33.3864 63.3838 32.8916C62.9883 32.3954 61.4355 30.0869 61.4355 30.0869C61.413 30.0789 59.8265 29.5136 59.4648 29.4697L54.7744 30.1611ZM8.75586 62.4941L9.23145 63.7881L13.0635 62.3359L11.1787 64.957L11.1914 64.9912L14.335 65.7266L10.4785 67.1885H10.4795L10.96 68.502L16.8652 66.2617L16.3428 64.8359L13.2656 64.2031L15.1836 61.6807L14.6611 60.2539L8.75586 62.4941ZM46.4512 40.6172C46.4512 40.6172 46.8084 40.4767 46.8086 41.0312C46.8086 41.5876 47.0555 42.078 47.7393 42.2158C49.008 42.4751 49.5566 42.29 49.5566 42.29C49.5648 42.2822 50.3468 41.5221 50.9805 41.1494L51.6182 40.7812L51.7666 40.9951C52.3974 41.7719 53.0228 42.7297 53.4072 43.1182C53.9974 43.7208 55.353 46.5801 55.6523 46.8809C55.9466 47.1845 55.4356 49.5378 54.6904 50.6104C54.0633 51.5075 52.9263 53.8525 52.1328 54.6582C51.4073 55.396 51.2652 57.2465 51.6123 57.6006C51.956 57.9489 52.1894 59.4825 52.5996 60.4824C52.9692 61.3996 51.8457 62.5391 52.5381 62.5391C52.7697 62.5389 53.1001 62.38 53.8525 62.9648C55.5317 64.2716 56.4409 64.9633 57.2158 65.4795C58.4416 66.3013 55.1371 68.0933 53.9502 68.0938C52.7639 68.0938 45.008 67.7977 44.0332 66.4424C43.0537 65.4413 37.8196 57.0545 36.8154 56.0371C35.9752 55.1787 37.0625 44.3369 37.0625 44.3369C37.0625 44.3369 39.1104 41.4837 39.5762 41.208C40.0454 40.9332 46.4128 40.6191 46.4512 40.6172ZM88.7568 64.5479L83.9863 62.8896L83.54 64.2246L89.501 66.2939L90.9629 61.9365L89.7734 61.5254L88.7568 64.5479ZM44.7754 43.5264C44.7036 43.4748 42.5418 43.9138 41.5879 44.0928C40.9275 44.2129 39.8598 44.0228 39.3584 44.9521L38.4033 49.167C38.4033 49.167 38.5053 53.3987 38.5977 54.2402C38.6864 55.076 39.7616 57.805 40.3604 58.4189C40.8901 58.9578 41.9207 60.7409 42.8545 61.6807C43.1071 61.9325 43.6203 62.0539 43.8359 62.3496C44.224 62.8833 43.9813 62.5162 43.2852 61.4688C40.7261 57.6134 40.1742 54.2866 40.0498 53.7178C39.7763 52.4772 39.9771 49.5642 40.0498 48.3965C40.0868 47.7787 40.5076 46.3915 40.9092 46.082C41.0965 45.9342 42.8525 45.7363 43.2061 45.6348C43.7542 45.4719 44.5315 45.4821 45.0342 45.377C46.6416 45.04 49.5976 45.8768 49.7998 45.9736C52.2073 47.1063 51.2726 47.501 51.3096 47.6338C51.3429 47.7788 47.9579 54.7135 47.9727 55.0391C47.9887 55.3946 48.1127 58.8644 48.4316 59.8125C48.5268 60.0938 49.5958 62.7191 49.7881 63.1953C50.6358 65.2815 47.9655 62.8482 47.793 62.7529C47.6181 62.6496 44.0977 56.501 43.5889 55.1943C43.2453 54.3164 43.3707 52.9924 43.4385 52.7109C43.5309 52.325 43.2575 49.3524 43.8008 48.9463C44.1704 48.6706 45.8183 48.5019 46.6143 48.8564C47.3368 49.1796 47.7258 50.0043 47.6514 50.1992C47.5935 50.3634 46.4501 54.1163 46.2715 53.8018C46.2149 53.698 46.2098 52.5113 46.0596 52.3936C45.9068 52.2721 45.0668 52.0941 44.9629 52.2305C44.8594 52.3708 44.6577 53.6302 44.7637 54.0625C45.2725 56.1474 46.4584 55.4981 46.6826 55.1084C47.0155 54.5301 48.6272 49.9212 48.5977 49.623C48.5298 48.9452 48.037 47.7763 46.9912 47.418C46.3641 47.205 43.6371 47.3242 42.8867 47.7227C41.735 48.3384 41.8032 53.6668 42.0225 54.4424C42.2424 55.2138 45.8693 61.4068 46.041 61.8857C46.3774 62.8142 48.5742 65.0225 48.918 65.2305C49.0619 65.3186 52.0602 66.502 52.4482 65.9082C52.6169 65.65 52.5328 64.9309 51.7842 64.4336C51.0696 63.9575 49.3613 58.8913 49.3662 58.4941C49.3734 58.1174 48.9233 55.2992 49.2227 54.7129C49.7897 53.5923 53.872 47.3703 53.4248 46.8691C52.8259 46.1961 50.9935 43.0555 50.1348 44.2383C49.3592 45.3089 45.6895 44.2067 44.7754 43.5264ZM89.2119 49.6826C89.0638 49.6795 88.9164 49.706 88.7783 49.7607C88.6402 49.8155 88.5142 49.8976 88.4072 50.002C88.3003 50.1063 88.2139 50.2311 88.1543 50.3691C88.0949 50.5069 88.0627 50.6553 88.0596 50.8057C88.0565 50.9564 88.0828 51.1066 88.1367 51.2471C88.1906 51.3875 88.2714 51.5162 88.374 51.625C88.4765 51.7335 88.5989 51.8204 88.7344 51.8809C88.8701 51.9414 89.0168 51.9744 89.165 51.9775C89.4643 51.9838 89.7537 51.8689 89.9697 51.6582C90.1857 51.4474 90.3102 51.1579 90.3164 50.8535C90.3226 50.5492 90.2101 50.2548 90.0029 50.0352C89.7957 49.8155 89.5111 49.689 89.2119 49.6826ZM9.78809 49.6826C9.48883 49.689 9.20443 49.8156 8.99707 50.0352C8.78965 50.2548 8.67673 50.5491 8.68262 50.8535C8.69617 51.4837 9.21186 51.988 9.83398 51.9756C10.133 51.9694 10.4179 51.8424 10.625 51.623C10.832 51.4038 10.9445 51.1096 10.9385 50.8057C10.9324 50.5018 10.8082 50.2126 10.5928 50.002C10.3771 49.7913 10.0871 49.6765 9.78809 49.6826ZM90.21 30.1807C90.1314 30.1448 90.0416 30.1413 89.9609 30.1719L79.9443 33.9951C79.8645 34.0263 79.7994 34.0879 79.7637 34.167C79.728 34.2461 79.7241 34.337 79.7529 34.4189L82.5127 41.8916C82.5274 41.932 82.5503 41.9694 82.5791 42.001C82.6078 42.0325 82.6423 42.0582 82.6807 42.0762C82.7192 42.0942 82.7613 42.1038 82.8037 42.1055C82.846 42.1071 82.888 42.0999 82.9277 42.085L83.9902 41.6797C84.0304 41.6649 84.0672 41.6418 84.0986 41.6123C84.13 41.5829 84.1552 41.5473 84.1729 41.5078C84.1905 41.4682 84.2 41.4253 84.2012 41.3818C84.2023 41.3384 84.1952 41.2953 84.1797 41.2549L82.125 35.6816C82.1097 35.6409 82.1022 35.5973 82.1035 35.5537C82.1049 35.5102 82.1151 35.4673 82.1328 35.4277C82.1505 35.3882 82.1757 35.3527 82.207 35.3232C82.2384 35.2938 82.2753 35.2708 82.3154 35.2559L83.8965 34.6523C83.9768 34.6231 84.0651 34.6279 84.1426 34.6641C84.2201 34.7003 84.281 34.7657 84.3115 34.8467L85.832 38.9697C85.8622 39.0509 85.9233 39.1165 86.001 39.1523C86.0787 39.1882 86.1671 39.1915 86.2471 39.1611L87.3135 38.7578C87.3934 38.7266 87.4577 38.6642 87.4932 38.585C87.5286 38.5055 87.5325 38.4149 87.5029 38.333L85.9814 34.2109C85.9518 34.1288 85.9547 34.0377 85.9902 33.958C86.0257 33.8783 86.0906 33.8156 86.1709 33.7842L88.9951 32.707C89.0349 32.6918 89.0776 32.685 89.1201 32.6865C89.1625 32.6881 89.2046 32.6977 89.2432 32.7158C89.2817 32.734 89.3161 32.7601 89.3447 32.792C89.3734 32.824 89.3959 32.8615 89.4102 32.9023L91.4395 38.3975C91.4544 38.4379 91.4768 38.4753 91.5059 38.5068C91.5349 38.5384 91.5697 38.5642 91.6084 38.582C91.647 38.5998 91.6891 38.609 91.7314 38.6104C91.7737 38.6117 91.8159 38.605 91.8555 38.5898L92.9199 38.1826C92.9995 38.1516 93.0647 38.0903 93.1006 38.0117C93.1364 37.9332 93.1403 37.8435 93.1123 37.7617L90.3809 30.3643C90.3498 30.2827 90.2884 30.2166 90.21 30.1807ZM11.1357 28.9736C11.055 28.9456 10.9663 28.9512 10.8896 28.9893C9.65891 29.5819 8.55506 30.5008 7.79492 32.2773C6.42254 35.4861 7.88156 38.8098 10.8545 40.1279L11.0752 40.2188C13.9779 41.3414 17.196 40.1369 18.5244 37.0283C19.2882 35.2517 19.1978 33.8055 18.79 32.4824C18.7627 32.4004 18.7053 32.3324 18.6299 32.292C18.5543 32.2517 18.4659 32.2418 18.3838 32.2656L17.127 32.6631C17.0454 32.6898 16.9772 32.748 16.9375 32.8252C16.8979 32.9025 16.89 32.9928 16.915 33.0762C17.2427 34.1399 17.3094 35.2091 16.8438 36.2979C15.9727 38.3276 13.7103 39.0707 11.6602 38.1611C9.60507 37.2552 8.5994 35.065 9.47168 33.0352C9.9349 31.9452 10.7495 31.2663 11.7412 30.7852C11.8184 30.7463 11.8774 30.6776 11.9053 30.5947C11.9331 30.512 11.928 30.4215 11.8906 30.3428L11.3213 29.1396C11.2836 29.0617 11.2166 29.0018 11.1357 28.9736ZM81.6846 18.0625C81.5995 18.0562 81.5157 18.085 81.4512 18.1416L73.3311 25.2354C73.2668 25.2921 73.2273 25.3727 73.2207 25.459C73.2142 25.5456 73.2416 25.6321 73.2969 25.6982L78.0654 31.3408C78.123 31.4062 78.203 31.4461 78.2891 31.4521C78.3749 31.4582 78.4596 31.4304 78.5254 31.374L79.4121 30.6016C79.5435 30.4813 79.5583 30.2725 79.4453 30.1348L75.9746 26.0332C75.9469 26.0003 75.9252 25.9621 75.9121 25.9209C75.8992 25.8798 75.8948 25.836 75.8984 25.793C75.9021 25.75 75.9139 25.7081 75.9336 25.6699C75.9534 25.6316 75.9809 25.5978 76.0137 25.5703L82.748 19.6787C82.8128 19.6218 82.8527 19.5409 82.8594 19.4541C82.866 19.3674 82.8393 19.2813 82.7842 19.2148L81.9043 18.1748C81.8486 18.1093 81.7695 18.0689 81.6846 18.0625ZM20.4355 15.082C20.3496 15.0832 20.2675 15.1185 20.207 15.1807L19.2666 16.1592C19.2073 16.2217 19.1749 16.3057 19.1758 16.3926C19.1768 16.4795 19.2108 16.5628 19.2715 16.624L22.6953 20.0254C22.7558 20.0867 22.7902 20.17 22.791 20.2568C22.7917 20.3438 22.7588 20.4278 22.6992 20.4902L19.0342 24.3086C18.9086 24.4387 18.7018 24.4384 18.5762 24.3135L15.1533 20.9111C15.1229 20.881 15.0864 20.8577 15.0469 20.8418C15.0074 20.8259 14.9653 20.8177 14.9229 20.8184C14.8805 20.8191 14.8387 20.8286 14.7998 20.8457C14.7609 20.8629 14.7257 20.888 14.6963 20.9189L13.7549 21.8965C13.6956 21.9594 13.6631 22.0437 13.6641 22.1309C13.6651 22.2178 13.6993 22.3008 13.7598 22.3623L21.417 29.9678C21.4471 29.9981 21.4832 30.0219 21.5225 30.0381C21.5616 30.0542 21.6033 30.0629 21.6455 30.0625C21.6879 30.062 21.7306 30.0532 21.7695 30.0361C21.8084 30.0191 21.8436 29.9938 21.873 29.9629L22.8154 28.9805C22.8744 28.918 22.9071 28.8346 22.9062 28.748C22.9053 28.6613 22.871 28.5778 22.8105 28.5166L20.3613 26.0859C20.2332 25.9594 20.2332 25.7521 20.3564 25.623L24.0225 21.8057C24.0821 21.7436 24.1637 21.7083 24.249 21.707C24.3345 21.7059 24.4172 21.7393 24.4785 21.7998L26.9258 24.2305C26.9881 24.2908 27.0712 24.3242 27.1572 24.3232C27.2432 24.3222 27.3258 24.2872 27.3867 24.2256L28.3262 23.2461C28.4493 23.1146 28.4482 22.9066 28.3203 22.7812L20.667 15.1738C20.6049 15.1134 20.5215 15.0809 20.4355 15.082ZM68.8047 8.7334C68.7208 8.75519 68.6483 8.81041 68.6035 8.88574L67.9932 9.93457C67.9716 9.97146 67.9572 10.0122 67.9512 10.0547C67.9451 10.097 67.9467 10.1402 67.957 10.1816C67.9674 10.2232 67.9865 10.2625 68.0117 10.2969C68.037 10.3313 68.0691 10.3609 68.1055 10.3828L70.6396 11.9199C70.7123 11.9653 70.7641 12.0381 70.7852 12.1221C70.8061 12.2062 70.7947 12.2959 70.752 12.3711L66.2178 20.1074C66.1742 20.1825 66.1609 20.2719 66.1816 20.3564C66.2024 20.441 66.255 20.5141 66.3281 20.5596L67.499 21.2676C67.5356 21.2897 67.5761 21.3043 67.6182 21.3105C67.6604 21.3168 67.7038 21.3144 67.7451 21.3037C67.7863 21.293 67.8253 21.274 67.8594 21.248C67.8933 21.2221 67.9217 21.1895 67.9434 21.1523L72.4775 13.4209C72.5216 13.3457 72.5934 13.2914 72.6768 13.2695C72.7603 13.2477 72.8494 13.2602 72.9238 13.3047L75.459 14.8438C75.5326 14.8881 75.6211 14.901 75.7041 14.8799C75.787 14.8587 75.8579 14.8047 75.9023 14.7305L76.5186 13.6816C76.54 13.6444 76.5547 13.6033 76.5605 13.5605C76.5664 13.5177 76.5635 13.4735 76.5527 13.4316C76.542 13.39 76.5236 13.3508 76.498 13.3164C76.4724 13.2819 76.44 13.2523 76.4033 13.2305L69.0527 8.76855C68.9779 8.72431 68.8886 8.71161 68.8047 8.7334ZM29.1211 9.28711C29.0396 9.26093 28.951 9.26878 28.875 9.30859L27.6836 9.94336C27.6074 9.98365 27.5496 10.0526 27.5234 10.1357C27.4974 10.2191 27.5046 10.3099 27.5439 10.3877L32.4971 20.0352C32.5375 20.1118 32.6058 20.1697 32.6875 20.1953C32.7694 20.2209 32.8587 20.2123 32.9346 20.1719L34.126 19.541C34.2016 19.5 34.2584 19.4298 34.2842 19.3467C34.3099 19.2636 34.3024 19.1734 34.2637 19.0957L29.3105 9.44922C29.2709 9.37196 29.2028 9.3134 29.1211 9.28711ZM46.0078 8.43066C45.5482 6.12269 43.0654 4.97279 40.4756 5.50781L36.4072 6.34668C36.3235 6.36395 36.2497 6.41417 36.2021 6.48633C36.1547 6.55849 36.1371 6.6472 36.1533 6.73242L38.2822 17.3994C38.3143 17.5748 38.4874 17.6948 38.6611 17.6572L39.9834 17.3857C40.0675 17.3676 40.141 17.3161 40.1885 17.2432C40.2359 17.1701 40.253 17.081 40.2363 16.9951L39.6396 14.0049C39.6236 13.9193 39.6411 13.8304 39.6885 13.7578C39.7359 13.6855 39.809 13.6344 39.8926 13.6162L41.7832 13.2285C44.2313 12.7223 46.5166 10.9867 46.0078 8.43066ZM57.5957 5.08887C54.1596 4.47494 51.2643 6.72263 50.7109 9.9375C50.1565 13.1538 52.094 16.2292 55.5312 16.8408C58.9637 17.4535 61.8516 15.2093 62.4062 11.9932C62.9619 8.77311 61.0219 5.70168 57.5957 5.08887ZM52.7744 10.2734C53.1602 8.04958 55.0257 6.52372 57.2471 6.9209C59.4597 7.31574 60.7237 9.43457 60.3418 11.6572C59.9573 13.8799 58.1015 15.4082 55.8789 15.0098C53.6576 14.6137 52.3925 12.4986 52.7744 10.2734ZM40.6758 7.34766C42.1392 7.04714 43.2139 7.54883 43.4824 8.89062C43.725 10.1021 42.9667 11.1149 41.4883 11.4219L39.5342 11.8223C39.4508 11.8396 39.3642 11.8228 39.293 11.7754C39.2217 11.7278 39.1708 11.6533 39.1533 11.5684L38.4688 8.13965C38.4525 8.05355 38.4706 7.96449 38.5186 7.8916C38.5665 7.81882 38.6402 7.7676 38.7246 7.75L40.6758 7.34766Z" fill="white"/>
</svg>
