<svg width="107" height="96" viewBox="0 0 107 96" fill="none" xmlns="http://www.w3.org/2000/svg">
<path d="M50.7594 96.001H32.9967C31.4726 96.001 30.4607 94.9894 30.4606 93.4756V73.2627H50.7594V96.001ZM76.1325 73.2627V93.4756C76.1324 94.9893 75.1164 96.0008 73.5963 96.001H55.8326V73.2627H76.1325ZM63.6979 40.418C66.4902 40.418 69.2829 41.6807 70.8034 43.9551C72.3237 46.2296 72.5801 49.2615 71.5641 51.7871L71.3112 52.7988C70.8982 53.8688 70.2692 54.8037 69.4957 55.5791H78.6686C80.189 55.5791 81.2057 56.5915 81.2057 58.1055V65.6855C81.2057 67.1995 80.189 68.2109 78.6686 68.2109H55.8326V58.1055H50.7594L50.7614 58.1016H50.7594V68.2109H27.9235C26.4031 68.2109 25.3873 67.1994 25.3873 65.6855V58.1055C25.3873 56.5916 26.4031 55.5792 27.9235 55.5791H37.0182C36.2805 54.857 35.68 54.0037 35.2809 53.0498L35.0289 52.0381C34.0129 49.2577 34.2646 46.4806 35.7887 44.2061C37.3128 41.6805 40.1019 40.418 42.8942 40.418C46.1907 40.418 49.491 42.4413 50.7594 45.7236V45.7207L53.2311 52.0684L55.8326 45.7236C57.1009 42.4376 60.1455 40.4181 63.6979 40.418ZM63.6979 45.4727C63.047 45.4729 62.4104 45.6651 61.8688 46.0244C61.3272 46.3838 60.9048 46.8952 60.6539 47.4932L60.6578 47.4961L58.3727 53.0537H63.4459C64.0969 53.0535 64.7333 52.8613 65.275 52.502C65.8167 52.1426 66.24 51.6322 66.4909 51.0342L66.7428 50.0225C67.2509 49.0107 66.9989 48.002 66.4909 46.9902C65.7269 45.9786 64.7139 45.4727 63.6979 45.4727ZM42.8981 45.4697C41.6298 45.4697 40.6132 45.9756 40.1051 46.9873C39.3453 47.7443 39.3452 49.007 39.5973 50.0186L40.1051 51.0303C40.356 51.6284 40.7792 52.1396 41.3209 52.499C41.8626 52.8583 42.4992 53.0496 43.15 53.0498H48.2233L45.9391 47.4932L45.943 47.4893C45.6921 46.8912 45.2689 46.3799 44.7272 46.0205C44.2532 45.706 43.7065 45.5203 43.1412 45.4785L42.8981 45.4697ZM103.787 33.1738C104.107 33.1313 104.433 33.1526 104.746 33.2363C105.058 33.3201 105.351 33.465 105.607 33.6621C105.863 33.8592 106.077 34.1048 106.237 34.3848C106.563 34.9508 106.652 35.6222 106.483 36.2529C106.314 36.8837 105.902 37.4226 105.336 37.752V37.7559L92.5534 45.1484C92.2739 45.3106 91.9648 45.4155 91.6442 45.458C91.3234 45.5005 90.9967 45.4793 90.6842 45.3955C90.3721 45.3118 90.0796 45.1676 89.8239 44.9707C89.5679 44.7736 89.353 44.5271 89.193 44.2471C88.8668 43.6811 88.7782 43.0095 88.9469 42.3789C89.1157 41.7482 89.5284 41.2093 90.0944 40.8799L102.878 33.4834C103.157 33.3213 103.466 33.2163 103.787 33.1738ZM2.78089 33.1699C3.10148 33.2124 3.41063 33.3174 3.69007 33.4795L16.4723 40.876C17.0383 41.2054 17.451 41.7442 17.6198 42.375C17.7885 43.0057 17.7 43.6771 17.3737 44.2432V44.2393C17.2137 44.5193 16.9997 44.7658 16.7438 44.9629C16.4879 45.16 16.1949 45.3049 15.8825 45.3887C15.5701 45.4724 15.2441 45.4936 14.9235 45.4512C14.6028 45.4087 14.2938 45.3028 14.0143 45.1406L1.23109 37.748C0.665196 37.4186 0.252395 36.8797 0.0836255 36.249C-0.0849863 35.6185 0.00352425 34.9468 0.329719 34.3809C0.489674 34.1008 0.704635 33.8553 0.960579 33.6582C1.21642 33.4612 1.50863 33.3162 1.82093 33.2324C2.13338 33.1486 2.46014 33.1274 2.78089 33.1699ZM22.443 7.73242C22.7638 7.68993 23.0905 7.71113 23.403 7.79492C23.7153 7.87871 24.0075 8.02367 24.2633 8.2207C24.5193 8.41784 24.7342 8.66328 24.8942 8.94336L32.2731 21.749C32.5994 22.3151 32.6879 22.9864 32.5192 23.6172C32.3504 24.2478 31.9385 24.7868 31.3727 25.1162C31.0931 25.2784 30.7833 25.3843 30.4625 25.4268C30.1419 25.4692 29.8159 25.448 29.5035 25.3643C29.1911 25.2805 28.8982 25.1356 28.6422 24.9385C28.3864 24.7414 28.1722 24.4958 28.0123 24.2158L20.6325 11.4102C20.3061 10.844 20.2176 10.1718 20.3864 9.54102C20.5552 8.91029 20.9678 8.37136 21.5338 8.04199C21.8133 7.87986 22.1224 7.77495 22.443 7.73242ZM84.1227 7.73242C84.4434 7.77491 84.7533 7.87978 85.0328 8.04199C85.5987 8.37133 86.0105 8.91042 86.1793 9.54102C86.3481 10.1718 86.2596 10.844 85.9332 11.4102L78.5543 24.2158C78.3944 24.4958 78.1794 24.7414 77.9235 24.9385C77.6677 25.1355 77.3754 25.2805 77.0631 25.3643C76.7507 25.448 76.4239 25.4692 76.1032 25.4268C75.7825 25.3842 75.4734 25.2784 75.194 25.1162C74.6281 24.7868 74.2153 24.2479 74.0465 23.6172C73.8779 22.9866 73.9664 22.315 74.2926 21.749L81.6725 8.94336C81.8324 8.66342 82.0466 8.41779 82.3024 8.2207C82.5583 8.02358 82.8513 7.87871 83.1637 7.79492C83.4761 7.71116 83.802 7.68998 84.1227 7.73242ZM53.2809 0C54.6382 0 55.7399 1.10427 55.7399 2.4668V17.2549C55.7399 18.6174 54.6382 19.7217 53.2809 19.7217C51.9238 19.7215 50.8229 18.6173 50.8229 17.2549V2.4668C50.8229 1.10439 51.9238 0.000197649 53.2809 0Z" fill="white"/>
</svg>
