<svg width="145" height="26" viewBox="0 0 145 26" fill="none" xmlns="http://www.w3.org/2000/svg">
<path d="M15.6691 18.3197C16.3317 17.6105 17.4916 17.6104 18.2095 18.3197L18.7615 18.9201C19.4794 19.5749 19.4794 20.7208 18.7615 21.4301L14.7305 25.4681C14.0679 26.1773 12.908 26.1773 12.1901 25.4681L11.5824 24.8677C10.8647 24.2129 10.8647 23.067 11.5824 22.3577L15.6691 18.3197ZM85.9674 9.15339V19.9021C85.9674 21.0479 86.4091 21.7028 87.2373 21.9211L87.5136 22.0305V22.9581H82.4333V21.4845C79.9483 23.0668 77.6289 23.6671 75.9722 23.0669C74.9782 22.7396 74.2604 21.8666 73.9843 20.7208C73.8739 20.2843 73.8184 19.9023 73.7632 18.8657V13.4091C73.7632 12.8634 73.7629 11.9358 73.1555 11.3357C73.0445 11.2261 72.2721 10.6264 72.2721 10.6264V9.86267L76.9107 8.9351L77.3524 9.20782V18.3197C77.3524 19.5746 77.7947 20.4477 78.5678 20.8297C79.5066 21.2661 80.9423 20.8846 82.4333 19.7388V13.3547C82.4333 12.809 82.433 11.8814 81.8256 11.2812C81.716 11.1729 80.9539 10.581 80.9422 10.572V9.80767L85.5808 8.8801L85.9674 9.15339ZM57.528 8.77124C59.8472 8.7713 61.7798 9.48067 63.1603 10.8447C64.4856 12.0996 65.1482 13.9005 65.1482 16.0285C65.1481 17.9927 64.3753 19.8479 63.05 21.1574C61.6695 22.5759 59.7368 23.2852 57.528 23.2852C52.8894 23.2852 49.9074 20.4481 49.9073 16.0285C49.9073 11.8816 53.1654 8.77124 57.528 8.77124ZM115.346 1.95054V10.2992C116.671 9.53535 118.88 8.55275 121.034 9.09839C122.58 9.48037 123.85 10.5173 124.844 12.2632C125.507 13.5182 125.893 15.7554 125.12 17.9925C124.568 19.4112 123.353 21.3755 120.536 22.5759C117.996 23.6126 114.517 23.4489 111.867 22.0849L111.701 21.9755V6.09739C111.701 5.5518 111.701 4.67909 111.149 4.07896C111.038 3.96984 110.265 3.36911 110.265 3.36911V2.6054L114.904 1.67783L115.346 1.95054ZM41.2371 1.51397C43.0042 1.40486 46.7039 1.89621 48.6919 3.04197L48.8579 3.15139C48.8584 3.19344 48.9129 8.06293 48.8579 8.28025L48.8028 8.49853L47.3117 8.55296L47.2565 8.11639C46.9804 6.6977 46.3726 2.87858 40.9609 3.15139C38.6416 3.26056 36.8195 4.40626 35.3837 6.20682C33.7271 8.38938 33.1747 11.4448 33.9478 14.7732C34.6657 17.9924 37.1505 20.0657 39.0833 20.8297C39.9116 21.157 42.4519 21.7027 44.3847 20.8297C46.0965 20.0658 47.6982 18.8112 48.4713 17.8837C48.5821 18.0478 49.1342 18.8657 49.1342 18.8657C48.8028 20.1206 48.0296 21.8122 48.0296 21.8122H47.9188C44.8816 23.0126 40.2428 23.9943 35.2177 21.9755C32.2358 20.7751 30.0819 18.4291 29.1983 15.4281C28.3148 12.2634 28.9226 8.88032 30.8554 6.26125C33.0091 3.3694 36.4881 1.78679 41.2371 1.51397ZM70.3945 2.00554V20.1754C70.4498 21.9212 71.665 22.0305 71.665 22.0305V23.1214L66.8052 23.0669V6.15239C66.8052 5.60677 66.8049 4.67917 66.1976 4.07896C65.9214 3.86071 65.6455 3.58737 65.3142 3.36911V2.65983L69.9528 1.73226L70.3945 2.00554ZM138.484 9.20782C140.085 8.71674 141.466 8.82563 142.46 9.53496C143.509 10.3534 144.117 11.7723 144.117 13.6274V20.0115C144.117 20.8299 144.503 21.3211 144.724 21.3757L145 21.4301C145 21.4301 145 22.0727 145 22.1938C144.988 22.1947 144.224 22.2494 143.84 22.3577C138.981 23.4489 135.667 23.2304 134.287 21.7572C133.403 20.7751 133.293 19.411 133.9 17.5559L133.955 17.4471L134.066 17.3921L140.693 14.5005V13.6818C140.693 12.3724 140.472 11.4449 139.975 11.063C139.644 10.7902 139.147 10.7355 138.429 10.8447C137.711 11.0084 136.882 11.6087 136.882 12.8637V13.7368H133.735L133.625 13.6818C133.514 13.5727 133.293 13.2457 133.238 13.082L133.182 12.9181L133.293 12.8092C133.735 12.2636 136.606 9.8081 138.484 9.20782ZM93.4221 9.20782V10.572C94.637 9.53524 95.9627 8.98953 97.3985 8.98953C99.2208 8.98957 100.159 9.97183 100.656 11.0085C101.374 10.2992 102.865 8.98953 105.13 8.98953C108.167 8.98953 108.94 11.8269 108.94 13.3547V19.9021C108.94 21.0479 109.382 21.7573 110.155 21.9211L110.486 22.0849V23.0125H105.461V14.8277C105.461 12.0997 104.688 11.5541 103.915 11.4995C102.921 11.3904 102.037 11.5539 101.154 12.3177C101.209 12.6996 101.264 13.2453 101.264 13.4091V19.9571C101.264 21.1028 101.651 21.8118 102.479 21.9755L102.7 22.0305V22.9581H97.6748V14.7732C97.6748 12.0451 96.9011 11.4997 96.128 11.4451C95.1893 11.3906 94.3056 11.4994 93.4221 12.2632V20.0115C93.4222 21.1573 93.8644 21.8668 94.6375 22.0305L94.9132 22.0849V23.0125H89.888V13.4091C89.888 12.8635 89.8883 11.9359 89.2809 11.3357C89.1705 11.2265 88.397 10.6264 88.397 10.6264V9.86267L93.0356 8.9351L93.4221 9.20782ZM131.029 9.15339V19.9571C131.084 21.1573 131.471 21.8118 132.244 21.9755L132.464 22.0305V22.9581H127.439V13.2452C127.439 12.6996 127.439 11.8269 126.887 11.2268C126.778 11.1189 126.02 10.5302 126.004 10.5175V9.80767L130.642 8.8801L131.029 9.15339ZM11.969 14.6644C12.6869 13.955 13.7915 13.955 14.5094 14.6644L15.1171 15.2642C15.8349 15.919 15.8348 17.0649 15.1171 17.7742L11.0304 21.8122C10.3125 22.5215 9.20787 22.5215 8.49 21.8122L7.88289 21.2118C7.165 20.5025 7.165 19.4111 7.88289 18.7018L11.969 14.6644ZM137.269 18.1019C136.662 19.3023 136.882 20.6119 137.711 21.3212C138.484 21.9214 139.588 21.8667 140.693 21.1029V16.1918L137.269 18.1019ZM57.528 10.2442C54.7117 10.2442 53.9382 13.3545 53.9382 15.9735C53.9382 19.5202 54.7117 21.7028 57.528 21.7028C60.3441 21.7027 61.1173 19.5201 61.1173 15.9735C61.1172 13.3546 60.3441 10.2444 57.528 10.2442ZM119.598 11.7178C117.665 10.7357 116.229 11.4991 115.456 11.8811L115.291 11.9361V17.7198C115.291 19.8478 116.008 21.157 117.279 21.5389C118.549 21.9209 120.205 21.1572 120.978 19.7932C121.972 18.1018 122.304 16.1375 121.807 14.4461C121.42 13.2457 120.647 12.2635 119.598 11.7178ZM1.09039 11.3357C1.80828 10.6264 2.91295 10.6264 3.63083 11.3357L7.7169 15.3737C8.43479 16.083 8.43479 17.1743 7.7169 17.8837L7.16493 18.4835C6.44704 19.1929 5.34238 19.1929 4.62449 18.4835L0.538419 14.4461C-0.179473 13.7368 -0.179473 12.5909 0.538419 11.9361L1.09039 11.3357ZM15.6691 11.2268C16.3869 10.5175 17.4916 10.5175 18.2095 11.2268L22.2956 15.2642C23.0135 15.919 23.0135 17.0649 22.2956 17.7742L21.6885 18.3747C21.0258 19.0839 19.8659 19.084 19.148 18.3747L15.0619 14.3367C14.3441 13.6819 14.3441 12.536 15.0619 11.8267L15.6691 11.2268ZM4.79048 7.67982C5.50833 6.97069 6.61251 6.97068 7.33035 7.67982L11.417 11.7178C12.1348 12.3726 12.1349 13.5185 11.417 14.2278L10.8093 14.8277C10.1466 15.537 8.98733 15.537 8.26944 14.8277L4.1828 10.7902C3.46493 10.1355 3.46498 8.98958 4.1828 8.28025L4.79048 7.67982ZM19.3691 7.62539C20.087 6.91615 21.1911 6.91619 21.909 7.62539L25.9957 11.6634C26.7134 12.3727 26.7134 13.4635 25.9957 14.1728L25.3885 14.7732C24.7259 15.4826 23.566 15.4826 22.8481 14.7732L18.7615 10.7358C18.0436 10.0265 18.0437 8.93515 18.7615 8.22582L19.3691 7.62539ZM15.6691 4.13339C16.3869 3.42406 17.4916 3.42406 18.2095 4.13339L18.7615 4.73325C19.4793 5.44257 19.4793 6.53391 18.7615 7.24325L14.6754 11.2812C14.0127 11.9905 12.8529 11.9905 12.135 11.2812L11.5273 10.6808C10.8095 10.026 10.8094 8.8801 11.5273 8.17082L15.6691 4.13339ZM11.969 0.531972C12.6868 -0.177343 13.7915 -0.177305 14.5094 0.531972L15.1171 1.1324C15.8348 1.78719 15.8349 2.93312 15.1171 3.64239L11.0304 7.67982C10.3125 8.38915 9.20789 8.38915 8.49 7.67982L7.88289 7.07996C7.16501 6.4252 7.16502 5.2793 7.88289 4.56996L11.969 0.531972ZM127.219 4.56996C127.219 2.11458 130.974 2.11458 130.974 4.56996C130.974 7.02511 127.219 7.02511 127.219 4.56996Z" fill="white"/>
</svg>
