<svg width="138" height="64" viewBox="0 0 138 64" fill="none" xmlns="http://www.w3.org/2000/svg">
<path d="M121.091 18.5117C121.603 18.4466 121.911 18.8178 121.885 19.3291C121.827 20.4203 121.279 26.0696 121.278 26.0811C122.595 23.607 124.497 20.0173 126.31 19.5928C127.488 19.3166 128.614 19.8174 129.327 20.7002C130.637 22.3217 131.201 26.8188 130.949 30.8008C130.728 34.3006 130.052 37.4931 129.047 39.79C127.843 42.5406 126.132 43.9355 124.193 43.9355C122.249 43.9354 120.9 41.8945 120.9 41.8945C120.9 41.8945 120.644 48.6859 120.644 54.1826C120.644 59.4433 120.894 61.5733 121.013 62.6143C121.062 63.0408 120.754 63.3673 120.333 63.3193C119.723 63.2497 119.161 62.8494 118.597 62.2324C118.076 61.6633 117.671 60.9598 117.531 59.9199C117.206 57.5094 117.255 52.6348 117.611 47.832C117.816 45.0609 118.011 41.6293 118.011 39.1719C118.011 37.9561 118.168 32.9665 118.326 28.502C117.976 29.5482 116.194 31.6656 115.495 32.2129C115.495 35.5989 113.993 43.9805 108.322 43.9805C106.327 43.9803 102.279 42.1398 102.279 34.6045C102.279 33.0018 102.429 31.4061 102.671 29.9521C101.94 30.7483 101.001 31.5815 100.194 32.2129C100.194 35.3407 98.6923 43.9805 93.0215 43.9805C91.0261 43.9804 86.9786 42.1401 86.9785 34.6045C86.9785 29.7151 88.3641 24.8858 89.5576 23.9648C90.4666 20.9911 92.3649 19.4922 94.7021 19.4922C97.7695 19.4925 100.194 22.205 100.194 29.7549C100.835 29.2385 102.139 27.7925 102.932 26.6074C103.753 25.3779 104.465 23.9921 104.998 22.9277C105.758 21.409 107.133 19.4922 110.003 19.4922C113.071 19.4922 115.495 21.5766 115.495 29.127C116.525 28.0837 118.26 25.7508 118.606 21.1338C118.634 20.3806 118.652 19.9295 118.652 19.915C118.652 19.1424 119.134 18.9844 119.521 18.8721C119.908 18.7602 120.568 18.5785 121.091 18.5117ZM35.3193 18.5117C35.8322 18.4463 36.1415 18.8178 36.1143 19.3291C36.0567 20.4213 35.6083 23.8009 35.5068 25.4941C36.8305 23.2908 38.7261 20.0168 40.5391 19.5928C41.7179 19.3166 42.8434 19.8164 43.5566 20.6992C44.8665 22.3206 45.4301 26.8185 45.1787 30.8008C44.9574 34.3003 44.2813 37.4932 43.2764 39.79C42.0722 42.5405 40.3607 43.9355 38.4229 43.9355C36.4785 43.9352 35.1299 41.8945 35.1299 41.8945C35.1299 41.8945 34.8731 48.6849 34.873 54.1816C34.873 59.4426 35.1231 61.5734 35.2422 62.6143C35.2913 63.0411 34.9837 63.3676 34.5615 63.3193C33.9515 63.2494 33.3907 62.8492 32.8262 62.2324C32.305 61.6631 31.9 60.9599 31.7598 59.9199C31.4349 57.5095 31.485 52.6347 31.8408 47.832C32.0458 45.0609 32.2402 41.6285 32.2402 39.1709C32.2403 36.7191 32.8785 20.0028 32.8818 19.915C32.8818 19.1423 33.3628 18.9844 33.75 18.8721C34.1371 18.7603 34.796 18.5786 35.3193 18.5117ZM85.6934 18.4316C86.3828 18.3758 86.311 18.9076 86.1816 19.626C85.907 21.1522 85.538 23.148 85.2656 26.3896C85.1551 27.707 84.9424 31.9834 84.9424 33.6982V47.7881C84.9424 58.4344 84.4219 62.7754 78.8848 62.7754C73.2413 62.7754 68.4389 55.8161 68.0146 52.1436C67.9828 51.8691 68.0957 51.4082 68.958 51.4082C69.8077 51.4082 70.9563 51.5378 71.5693 52.1582C71.8888 52.4813 72.0131 52.7485 72.2354 53.1396C73.386 55.164 75.9691 60.2624 80.0449 60.2627C81.8483 60.2627 81.9826 55.2291 81.9824 48.376C81.9824 41.5877 81.9134 40.1737 81.9121 40.1475C81.9029 40.179 80.7902 43.9744 77.668 43.9746C76.2436 43.9746 72.2352 43.3093 72.5234 33.4189C72.6469 29.184 73.2619 24.5405 75.6338 21.5947C77.0263 19.8658 78.42 19.7333 78.6641 19.6826C79.4723 19.516 80.0761 19.5365 80.748 19.7275C81.8121 20.031 82.5336 20.8316 83.0176 21.8721C83.1672 20.6589 83.2381 20.2801 83.3652 19.6152C83.4522 19.1619 83.735 18.8438 84.1895 18.7109C84.7632 18.5435 85.0901 18.4806 85.6934 18.4316ZM10.2412 0C12.9903 0.000131532 15.9052 2.80209 15.9053 9.29883C15.9053 12.1074 15.9149 17.0588 14.8262 20.2051C14.6146 20.8168 14.1673 21.2791 13.4141 21.5C12.9659 21.6314 12.5318 21.6706 12.2979 21.4795C12.1096 21.3254 12.1914 20.9691 12.2764 20.7168C13.3648 17.4989 14.4301 3.69727 9.80273 3.69727C6.82574 3.69729 5.17873 12.0547 5.17871 16.6045C5.17871 22.4103 6.65859 24.2173 8.58789 26.1709C10.5181 28.1241 16.3154 31.9596 16.3154 37.8643C16.3154 44.1757 10.8782 45.8622 8.43262 45.8623C3.52154 45.8623 0 42.2711 0 37.4111C1.12469e-06 35.9779 0.126757 33.9882 0.818359 32.5996C1.31542 31.6012 1.91677 31.6807 2.12012 31.6807C2.83104 31.6807 2.90234 31.9471 2.90234 32.6396C2.90232 33.1317 2.8038 33.6063 2.77344 34.4492C2.71718 36.0249 3.15777 42.1729 8.7002 42.1729C11.3433 42.1728 13.1777 40.0346 13.1777 38.2119C13.1776 32.5836 6.67078 30.2637 4.3291 26.8926C2.4833 24.2352 2.27881 21.498 2.22852 18.2178C2.17493 14.7073 3.24281 0 10.2412 0ZM29.4365 19.2441C29.9549 19.1918 30.1536 19.5665 30.123 20.0469C30.1059 20.3156 29.9903 22.2252 29.9883 22.2578C29.6796 26.8623 29.3534 32.7213 29.1406 36.8281C29.0848 39.1123 29.1408 42.1036 29.1836 44.042C29.1838 44.0454 29.1836 44.0491 29.1836 44.0527C29.2016 44.5003 28.8254 44.6895 28.3564 44.6895C26.608 44.6892 25.9742 41.7911 25.959 40.9326C25.9344 40.9741 24.1523 43.9635 21.5957 43.9639C19.2139 43.9639 17.9619 41.814 17.9619 38.5674C17.9619 35.0455 18.0936 33.5365 18.2109 30.4121C18.3514 26.6758 18.4352 22.5785 18.6133 20.9238C18.6363 20.7104 18.7054 20.5145 18.8516 20.3779C18.9844 20.254 19.2057 20.1785 19.3906 20.1436C19.5761 20.108 20.741 19.8411 21.1865 19.7773C21.6319 19.7132 21.8375 19.9382 21.8232 20.3877C21.7945 21.2986 21.2441 28.8175 21.0234 32.4043C20.8114 35.8573 20.233 40.354 22.3799 40.4023C23.8177 40.4348 25.225 39.3591 25.8115 37.3184C25.9905 34.697 26.208 32.1663 26.4785 28.6328C26.7204 25.4681 27.0082 21.093 27.083 20.2988C27.1371 19.7328 27.4388 19.5628 27.9648 19.4551C28.1674 19.4139 28.9454 19.294 29.4365 19.2441ZM64.4141 18.6221C64.6725 18.6006 64.8751 18.7009 65.002 18.8818C65.1444 19.0843 65.1575 19.2807 65.1006 19.5889C64.7151 21.6685 64.3597 23.8778 64.0449 27.0146C65.4842 24.6324 68.1833 20.6868 68.9062 19.9697C69.731 19.1523 71.5622 19.3102 72.082 19.5498C72.2416 19.624 72.3432 19.7198 72.3516 19.8398C72.3683 20.087 72.0797 21.8041 71.8896 23.3965C71.6833 25.1267 71.6263 26.523 71.6182 27.2773C71.6151 27.5871 71.3641 27.8356 71.0596 27.8281C70.438 27.8124 69.702 27.686 69.1514 27.2236C68.7725 26.9051 68.574 26.4588 68.5615 25.8975C68.5431 25.0353 68.6463 23.7512 68.6484 23.7246C68.6236 23.7657 64.5308 30.5238 63.7178 32.1855C63.6124 35.4641 63.6491 39.2883 63.8291 43.8008L63.8301 43.8115C63.8349 43.9123 63.8149 44.013 63.7725 44.1045C63.73 44.1961 63.6659 44.2763 63.5859 44.3379C63.506 44.3995 63.4119 44.4413 63.3125 44.459C63.2132 44.4767 63.111 44.4698 63.0146 44.4395C59.9823 43.4831 60.3145 41.3077 60.3145 40.7363C60.3145 40.1651 60.3348 38.5056 60.3682 37.5342C58.7072 40.2503 56.0872 43.9304 52.1445 43.9307C47.3512 43.9307 46.5977 39.0662 46.5977 35.2422C46.5977 31.8224 47.3421 27.0885 48.5898 24.292C49.9676 21.2025 51.9527 19.083 54.7266 19.083C57.8886 19.0831 58.8426 22.279 58.5703 25.7178C58.3145 28.9481 55.6221 35.2021 50.5664 35.2021C50.2552 35.2002 49.9184 35.1688 49.5889 35.0752C49.5889 38.0399 50.0239 40.7158 52.6982 40.7158C55.3726 40.7156 60.3921 35.9444 61 29.0078C61.608 22.0716 61.7725 21.1615 61.9844 19.582C62.0315 19.2242 62.2825 19.0431 62.7197 18.9385C63.1571 18.8342 64.1547 18.6434 64.4141 18.6221ZM135.223 38.7148C136.757 38.7148 138.001 39.9731 138.001 41.5254C138.001 43.078 136.757 44.3369 135.223 44.3369C133.689 44.3367 132.445 43.0779 132.445 41.5254C132.446 39.9732 133.689 38.715 135.223 38.7148ZM90.0371 29.4082C90.0351 29.4346 89.6641 31.6157 89.6641 34.3457C89.6642 39.5722 92.0592 40.7949 93.3789 40.7949C95.7736 40.7946 97.4793 36.8655 97.4795 33.6221C94.2641 35.3545 90.9262 33.279 90.0371 29.4082ZM105.339 29.4082C105.336 29.4346 104.965 31.6157 104.965 34.3457C104.965 39.5722 107.36 40.7949 108.68 40.7949C111.074 40.7948 112.78 36.4833 112.78 33.2402C109.565 34.9724 106.228 33.2791 105.339 29.4082ZM80.0908 22.6162C77.2866 22.6162 75.8583 27.8534 75.7256 32.415C75.5875 37.1483 76.3971 40.6797 78.2129 40.6797C80.0287 40.6792 81.5758 36.3168 81.8477 33.6006C81.9805 32.2769 82.1564 30.3778 82.2002 28.8857C82.2389 27.5491 82.5566 22.6169 80.0908 22.6162ZM40.7998 23.3408C39.6455 23.3411 37.2712 27.0214 35.4443 30.3066C35.3706 32.1333 35.2832 35.9646 35.2832 37.6387C35.2833 39.0369 35.8973 40.6484 37.6123 40.6484C39.8884 40.6484 41.495 35.7568 41.7939 32.9121C42.0949 30.0461 42.4364 23.3408 40.7998 23.3408ZM126.57 23.3408C125.416 23.3418 123.042 27.0217 121.215 30.3066C121.141 32.1333 121.054 35.9646 121.054 37.6387C121.054 39.0369 121.667 40.6484 123.383 40.6484C125.659 40.648 127.265 35.7566 127.564 32.9121C127.866 30.0461 128.206 23.3408 126.57 23.3408ZM136.668 3.37305C137.172 3.24883 137.625 3.63953 137.61 4.06055L136.476 35.4102C136.476 35.9218 136.265 36.1547 135.779 36.1035C135.414 36.0651 134.953 35.7861 134.636 35.4316C134.273 35.0261 134.184 34.4755 134.184 33.5391L133.723 5.97461C133.723 4.81661 134.017 4.41375 134.809 4.07227C135.244 3.88439 136.163 3.49735 136.668 3.37305ZM54.7158 21.8975C53.8297 21.5041 52.3147 22.7031 51.334 24.958C50.63 26.5753 49.6777 29.8055 49.6777 32.2559C49.9563 32.322 50.3289 32.3457 50.7334 32.3457C53.3676 32.3454 55.3743 28.6414 55.6406 25.6934C55.797 23.9678 55.6383 22.3077 54.7158 21.8975ZM95.2549 22.4219C93.99 21.8863 91.8779 23.2928 91.8779 26.2139C91.8781 29.3701 93.9567 31.6942 95.6641 31.6943C96.7782 31.6943 97.5927 31.1517 97.6631 31.0625C97.6631 27.1251 97.1449 23.2225 95.2549 22.4219ZM110.556 22.4219C109.287 21.8978 107.179 23.2929 107.179 26.2139C107.179 29.3701 109.258 31.4033 110.966 31.4033C112.079 31.4032 112.975 30.7187 113.046 30.6289C112.954 27.4667 112.78 23.3406 110.556 22.4219Z" fill="white"/>
</svg>
