<svg width="178" height="22" viewBox="0 0 178 22" fill="none" xmlns="http://www.w3.org/2000/svg">
<path fill-rule="evenodd" clip-rule="evenodd" d="M115.23 15.8585C115.23 13.7225 116.212 12.166 118.038 11.3038L123.35 18.4911C122.099 19.7084 120.626 20.4329 119.303 20.4329C116.994 20.4329 115.23 18.6838 115.23 15.8585ZM120.64 2.48391C122.147 2.48391 123.041 3.63762 123.041 5.49453C123.041 7.20127 121.762 9.0617 119.925 9.80552C118.531 7.8744 118.168 6.62528 118.168 5.46095C118.168 3.42206 119.201 2.48391 120.64 2.48391ZM131.395 11.3303H124.89C124.831 11.5105 124.835 11.7667 124.885 11.7684C126.548 11.8197 127.272 12.4769 126.665 13.7932C126.203 14.7914 125.713 15.6854 125.094 16.5635L120.361 10.3462C123.187 8.93802 124.644 7.50161 124.644 5.23303C124.644 3.57048 123.008 1.7807 120.511 1.7807C118.003 1.7807 115.805 3.86023 115.805 6.19417C115.805 7.69066 116.242 8.79667 117.663 10.7967C114.814 11.7773 112.397 14.1271 112.397 16.818C112.397 19.8445 114.74 22 117.861 22C120.16 22 122.188 20.7544 123.766 18.9717L125.709 21.6961H130.75C130.809 21.6961 130.792 21.2332 130.745 21.2332C129.9 21.2014 129.546 21.1113 128.985 20.8374C128.298 20.5018 127.765 19.9452 127.019 19.0406L125.488 17.0247C126.002 16.3397 126.467 15.6186 126.926 14.9053C127.267 14.3752 127.606 13.8482 127.961 13.3444C128.612 12.4257 129.305 11.9928 131.39 11.8126C131.439 11.8091 131.451 11.5105 131.395 11.3303ZM91.8407 4.96096H86.1246C86.0696 4.96096 86.0764 5.42739 86.1246 5.4327C87.3551 5.544 87.9549 5.65886 88.2746 6.22247C88.6406 6.86912 88.8073 7.96631 88.8073 9.41861V17.3569L79.6008 4.96096H74.9072C74.8505 4.96096 74.8573 5.4327 74.9072 5.4327C76.6172 5.4327 77.4542 6.41504 77.4542 7.85145V17.325C77.4542 18.7774 77.3648 19.788 76.9988 20.4329C76.6825 20.9912 76.3423 21.1219 75.1942 21.2261C75.1461 21.2279 75.1393 21.6961 75.1942 21.6961H80.8536C80.9087 21.6961 80.9017 21.2279 80.8536 21.2261C79.6231 21.1113 79.025 21 78.7037 20.4329C78.3393 19.788 78.1691 18.7774 78.1691 17.325V7.6677L88.9241 21.8551C89.0188 21.9806 89.524 21.97 89.524 21.8551V9.41861C89.524 7.96631 89.6134 6.86912 89.9794 6.22247C90.2991 5.65886 90.6119 5.544 91.8407 5.4327C91.8906 5.42739 91.8974 4.96096 91.8407 4.96096ZM22.4569 19.0477C22.4569 19.8657 22.3589 20.516 21.9585 20.8604C21.6233 21.1485 20.9307 21.2261 19.9339 21.2261C19.8807 21.2261 19.8738 21.6961 19.9339 21.6961H27.721C27.7811 21.6961 27.7759 21.2261 27.721 21.2261C26.7242 21.2261 26.0315 21.1485 25.6965 20.8604C25.2943 20.516 25.1981 19.8657 25.1981 19.0477V7.6094C25.1981 6.78961 25.2943 6.1412 25.6965 5.79667C26.0315 5.50868 26.7242 5.4327 27.721 5.4327C27.7759 5.4327 27.7811 4.96098 27.721 4.96098H19.9339C19.8738 4.96098 19.8807 5.4327 19.9339 5.4327C20.9307 5.4327 21.6233 5.50868 21.9585 5.79667C22.3589 6.1412 22.4569 6.78961 22.4569 7.6094V19.0477ZM17.3047 0.406128L17.3357 6.14117C17.2618 6.19593 16.9283 6.23657 16.9111 6.18887C15.5861 2.81251 14.5258 1.05455 10.554 1.05455H10.0951V18.8409C10.0951 19.7314 10.1931 20.3551 10.6348 20.7721C10.9389 21.06 12.0578 21.1944 12.9652 21.1944C13.015 21.1944 13.0202 21.6961 12.9652 21.6961H4.37042C4.31543 21.6961 4.32231 21.1944 4.37042 21.1944C5.27614 21.1944 6.39666 21.06 6.69914 20.7721C7.14255 20.3551 7.24051 19.7314 7.24051 18.8409V1.05455H6.78164C2.81165 1.05455 1.74955 2.81251 0.424492 6.18887C0.405588 6.23657 0.0738996 6.19593 0 6.14117L0.0309348 0.406128H17.3047ZM31.0106 4.96093H43.089L43.1784 9.42564C43.1905 9.47864 42.8673 9.52282 42.8553 9.47512C42.3002 7.37615 41.1848 5.57047 37.4949 5.57047H36.0668V13.0706H37.3076C38.5606 13.0706 39.1655 12.8462 39.693 12.4327C40.1313 12.0882 40.4784 11.3126 40.4784 10.6341C40.4784 10.5794 40.7242 10.5723 40.8669 10.6341V15.9628C40.7242 16.0282 40.4784 16.0176 40.4784 15.9628C40.4784 15.2861 40.1313 14.5742 39.693 14.2296C39.1655 13.8161 38.5606 13.6148 37.3076 13.6148H36.0668V19.0477C36.0668 19.8657 36.1647 20.5158 36.5669 20.8604C36.9004 21.1485 37.7424 21.2261 38.7409 21.2261C38.7943 21.2261 38.7993 21.6961 38.7409 21.6961H31.0106C30.9556 21.6961 30.9608 21.2261 31.0106 21.2261C31.9164 21.2261 32.5693 21.1485 32.8736 20.8604C33.2379 20.5158 33.3274 19.8657 33.3274 19.0477V7.60937C33.3274 6.78958 33.2379 6.14117 32.8736 5.79663C32.5693 5.50865 31.9164 5.43267 31.0106 5.43267C30.9608 5.43267 30.9556 4.96093 31.0106 4.96093ZM57.7813 4.96098H45.7029C45.648 4.96098 45.653 5.4327 45.7029 5.4327C46.6086 5.4327 47.2617 5.50868 47.5658 5.79667C47.932 6.1412 48.0196 6.78961 48.0196 7.6094V19.0477C48.0196 19.8657 47.932 20.516 47.5658 20.8604C47.2617 21.1485 46.6086 21.2261 45.7029 21.2261C45.653 21.2261 45.648 21.6961 45.7029 21.6961H53.4315C53.4916 21.6961 53.4865 21.2261 53.4315 21.2261C52.4347 21.2261 51.5943 21.1485 51.2592 20.8604C50.8571 20.516 50.759 19.8657 50.759 19.0477V13.6148H52C53.2528 13.6148 53.8577 13.8163 54.3853 14.2296C54.8252 14.5742 55.1707 15.2861 55.1707 15.9629C55.1707 16.0176 55.4165 16.0282 55.5591 15.9629V10.6342C55.4165 10.5723 55.1707 10.5794 55.1707 10.6342C55.1707 11.3126 54.8252 12.0882 54.3853 12.4328C53.8577 12.8462 53.2528 13.0706 52 13.0706H50.759V5.57051H52.1873C55.8771 5.57051 56.9924 7.3762 57.5459 9.47515C57.5596 9.52286 57.8827 9.47869 57.8707 9.42568L57.7813 4.96098ZM65.2729 8.22599L62.805 15.1783H67.7649L65.2729 8.22599ZM71.9239 19.0477C72.5134 20.6254 72.9482 21.076 74.2302 21.2473C74.2784 21.2527 74.2853 21.6961 74.2302 21.6961H67.5947C67.5414 21.6961 67.5466 21.2491 67.5947 21.2473C69.1534 21.1254 69.6966 20.3868 69.1106 18.8198L67.99 15.7861H62.6056L61.5606 18.7349C60.8749 20.5707 61.4953 21.1361 62.9459 21.2473C62.9957 21.2491 63.0009 21.6961 62.9459 21.6961H57.986C57.9309 21.6961 57.9395 21.2561 57.986 21.2473C59.5465 20.9151 60.0929 20.5848 60.7838 18.7349L65.8985 4.54929C65.8985 4.49451 66.6976 4.48744 66.6976 4.54929L71.9239 19.0477ZM103.455 4.96093H108.419C108.477 4.96093 108.465 5.42738 108.417 5.43267C107.099 5.54928 106.423 5.91147 105.798 7.11291L102.044 14.0583V19.0477C102.044 19.8657 102.144 20.5158 102.507 20.8604C102.812 21.1485 103.527 21.2261 104.437 21.2261C104.485 21.2261 104.49 21.6961 104.437 21.6961H96.9124C96.8591 21.6961 96.8643 21.2261 96.9124 21.2261C97.8199 21.2261 98.5348 21.1485 98.8407 20.8604C99.205 20.5158 99.303 19.8657 99.303 19.0477V14.5528L95.0512 6.9009C94.5253 5.85493 94.142 5.52455 92.8616 5.43267C92.8136 5.42738 92.8049 4.96093 92.86 4.96093H99.6588C99.7138 4.96093 99.7104 5.43267 99.6622 5.43267C98.1756 5.43267 97.5758 5.99804 98.1103 7.05813L101.694 13.3974L104.947 7.16061C105.49 6.05282 104.973 5.48568 103.453 5.43267C103.405 5.42914 103.404 4.96093 103.455 4.96093ZM153.748 15.2933C153.778 15.1589 154.174 15.2084 154.174 15.2667L153.869 20.2403C152.156 21.44 150.12 21.9948 147.487 21.9948C141.496 21.9948 136.592 17.1714 136.592 11.1095C136.592 5.04935 141.61 0.109361 147.487 0.109361C149.03 0.109361 150.514 0.589925 151.824 1.11113C152.731 1.4751 153.303 0.971547 153.41 0.0404385C153.417 -0.0160971 153.848 -0.0107968 153.86 0.0404385L154.029 6.49105C154.041 6.54759 153.615 6.59 153.604 6.54052C152.85 3.0988 150.136 0.796637 147.373 0.796637C142.819 0.796637 140.22 5.10411 140.22 11.1095C140.22 17.1167 143.193 21.3092 147.859 21.3092C150.31 21.3092 152.992 19.0036 153.748 15.2933ZM169.983 13.3285C169.983 18.0511 168.278 21.3551 165.028 21.3551C161.775 21.3551 160.07 18.0511 160.07 13.3285C160.07 8.60938 161.775 5.30546 165.028 5.30546C168.278 5.30546 169.983 8.60938 169.983 13.3285ZM156.858 13.3285C156.858 18.0353 160.459 21.9311 165.028 21.9311C169.597 21.9311 173.197 18.0353 173.197 13.3285C173.197 8.61998 169.597 4.72419 165.028 4.72419C160.459 4.72419 156.858 8.61998 156.858 13.3285ZM178 20.1271C178 19.1183 177.24 18.325 176.283 18.325C175.325 18.325 174.565 19.1183 174.565 20.1271C174.565 21.1359 175.325 21.9311 176.283 21.9311C177.24 21.9311 178 21.1359 178 20.1271Z" fill="white"/>
</svg>
