<svg preserveAspectRatio="none" width="100%" height="100%" overflow="visible" style="display: block;" viewBox="0 0 35 33" fill="none" xmlns="http://www.w3.org/2000/svg">
<g id="Logo container" style="mix-blend-mode:overlay" filter="url(#filter0_ddiiiii_1417_11721)">
<g id="Union">
<mask id="path-1-inside-1_1417_11721" fill="white">
<path d="M16.6334 30.8721H11.3375C11.2807 30.8721 11.2261 30.8675 11.1744 30.8584C10.8122 30.7945 10.5807 30.5141 10.5807 30.1191V24.0938H16.6334V30.8721ZM24.1979 24.0938V30.1191C24.1979 30.5703 23.895 30.8719 23.442 30.8721H18.1461V24.0938H24.1979ZM20.4908 14.3018C20.5429 14.3018 20.5951 14.3027 20.6471 14.3057C21.426 14.3496 22.1841 14.7208 22.609 15.3564C23.0622 16.0345 23.1385 16.9385 22.8355 17.6914L22.7604 17.9922C22.6372 18.3113 22.4491 18.59 22.2184 18.8213H24.9537C25.4069 18.8213 25.7104 19.1231 25.7105 19.5742V21.835C25.7104 22.2861 25.4069 22.5879 24.9537 22.5879H18.1461V19.5742H16.6334V22.5879H9.82481L9.66172 22.5732C9.30049 22.5092 9.0691 22.2295 9.06895 21.835V19.5742C9.06909 19.1231 9.37163 18.8213 9.82481 18.8213H12.5357C12.316 18.6061 12.1371 18.3516 12.0182 18.0674L11.943 17.7656C11.6402 16.9368 11.7152 16.1087 12.1695 15.4307C12.5956 14.7247 13.3534 14.3497 14.1324 14.3057C14.1841 14.3027 14.2359 14.3018 14.2877 14.3018C14.3491 14.3018 14.411 14.3039 14.4723 14.3086C15.3303 14.3738 16.1602 14.8897 16.5553 15.7041C16.5835 15.7624 16.6097 15.8225 16.6334 15.8838V15.8828L17.3453 17.7119L17.3697 17.7734L18.1461 15.8838C18.5005 14.9654 19.3199 14.3785 20.2936 14.3086C20.3586 14.3039 20.4245 14.3018 20.4908 14.3018ZM20.3463 15.8193C20.2035 15.8405 20.0661 15.8923 19.9449 15.9727C19.7835 16.0798 19.6574 16.2329 19.5826 16.4111L19.5836 16.4121L18.9029 18.0684H20.4156C20.6096 18.0683 20.7991 18.0113 20.9605 17.9043C21.1219 17.7972 21.248 17.6449 21.3229 17.4668L21.398 17.165C21.5495 16.8634 21.4743 16.5624 21.3229 16.2607C21.1236 15.997 20.8678 15.8484 20.6041 15.8154L20.4908 15.8086C20.4423 15.8086 20.3939 15.8123 20.3463 15.8193ZM14.151 15.8145C13.8377 15.8475 13.5892 15.9959 13.4566 16.2598C13.23 16.4854 13.2301 16.8624 13.3053 17.1641L13.4566 17.4658C13.5315 17.644 13.6576 17.7963 13.8189 17.9033C13.9401 17.9837 14.0774 18.0355 14.2203 18.0566L14.3648 18.0674H15.8766L15.1959 16.4111L15.1969 16.4092C15.1221 16.2311 14.996 16.0787 14.8346 15.9717C14.7133 15.8913 14.5761 15.8394 14.4332 15.8184L14.2896 15.8076C14.2423 15.8076 14.1958 15.8097 14.151 15.8145ZM32.7291 12.1592C32.8221 12.1842 32.9097 12.2274 32.9859 12.2861C33.0621 12.3449 33.1258 12.4186 33.1734 12.502C33.2706 12.6707 33.297 12.8707 33.2467 13.0586C33.1964 13.2466 33.0736 13.4077 32.9049 13.5059V13.5068L29.0934 15.7109C29.0102 15.7591 28.9182 15.7901 28.8229 15.8027C28.7273 15.8154 28.6298 15.8091 28.5367 15.7842C28.4436 15.7592 28.3562 15.716 28.2799 15.6572C28.2038 15.5986 28.14 15.5256 28.0924 15.4424C27.9951 15.2736 27.9679 15.0728 28.0182 14.8848C28.0685 14.6967 28.1922 14.5357 28.3609 14.4375L32.1715 12.2334C32.2548 12.185 32.3473 12.1533 32.443 12.1406C32.5386 12.128 32.636 12.1342 32.7291 12.1592ZM2.32871 12.1396C2.42434 12.1523 2.51684 12.1831 2.6002 12.2314L6.41074 14.4365C6.5795 14.5347 6.70319 14.6957 6.75352 14.8838C6.80373 15.0718 6.77655 15.2717 6.6793 15.4404V15.4395C6.63161 15.5229 6.56808 15.5965 6.4918 15.6553C6.41552 15.714 6.32807 15.7573 6.23496 15.7822C6.14188 15.8072 6.04438 15.8134 5.94883 15.8008C5.85337 15.7881 5.76155 15.7563 5.67832 15.708L1.8668 13.5039C1.69826 13.4057 1.57533 13.2455 1.525 13.0576C1.47468 12.8696 1.50094 12.6688 1.59824 12.5C1.64583 12.4167 1.70969 12.3438 1.78574 12.2852C1.86196 12.2265 1.94955 12.1832 2.04258 12.1582C2.1357 12.1332 2.23311 12.127 2.32871 12.1396ZM8.47715 4.57422C8.57018 4.59921 8.65777 4.64247 8.73399 4.70117C8.81013 4.7599 8.87387 4.83363 8.92149 4.91699L11.1217 8.73438C11.2189 8.90304 11.2451 9.1031 11.1949 9.29102C11.1446 9.47902 11.0218 9.64007 10.8531 9.73828C10.7698 9.78664 10.6773 9.81839 10.5816 9.83105C10.4861 9.84369 10.3886 9.83649 10.2955 9.81152C10.2025 9.78653 10.1149 9.74425 10.0387 9.68555C9.96241 9.6268 9.89885 9.55318 9.85117 9.46973L7.65098 5.65234C7.55367 5.48356 7.52741 5.28278 7.57774 5.09473C7.62807 4.9067 7.7508 4.74565 7.91953 4.64746C8.00287 4.59912 8.09541 4.56833 8.19102 4.55566C8.2866 4.54302 8.38404 4.54925 8.47715 4.57422ZM26.5807 4.55469C26.6763 4.56735 26.7688 4.59812 26.8521 4.64648C27.0209 4.74469 27.1436 4.90571 27.1939 5.09375C27.2442 5.28166 27.2178 5.48169 27.1207 5.65039L24.9205 9.46875C24.8729 9.55201 24.8091 9.62492 24.733 9.68359C24.6568 9.74229 24.5692 9.78555 24.4762 9.81055C24.3831 9.83552 24.2856 9.84175 24.19 9.8291C24.0944 9.81643 24.0019 9.78566 23.9186 9.7373C23.7498 9.6391 23.6271 9.47808 23.5768 9.29004C23.5265 9.10211 23.5528 8.90209 23.65 8.7334L25.8502 4.91504C25.8978 4.83179 25.9616 4.75886 26.0377 4.7002C26.1139 4.64149 26.2015 4.59823 26.2945 4.57324C26.3877 4.54827 26.4851 4.54203 26.5807 4.55469ZM17.3854 2.25C17.7898 2.25013 18.1176 2.57933 18.1178 2.98535V7.39453C18.1177 7.80063 17.7899 8.12975 17.3854 8.12988C16.9807 8.12988 16.652 7.80071 16.652 7.39453V2.98535C16.6521 2.57925 16.9808 2.25 17.3854 2.25Z"/>
</mask>
<path d="M16.6334 30.8721H11.3375C11.2807 30.8721 11.2261 30.8675 11.1744 30.8584C10.8122 30.7945 10.5807 30.5141 10.5807 30.1191V24.0938H16.6334V30.8721ZM24.1979 24.0938V30.1191C24.1979 30.5703 23.895 30.8719 23.442 30.8721H18.1461V24.0938H24.1979ZM20.4908 14.3018C20.5429 14.3018 20.5951 14.3027 20.6471 14.3057C21.426 14.3496 22.1841 14.7208 22.609 15.3564C23.0622 16.0345 23.1385 16.9385 22.8355 17.6914L22.7604 17.9922C22.6372 18.3113 22.4491 18.59 22.2184 18.8213H24.9537C25.4069 18.8213 25.7104 19.1231 25.7105 19.5742V21.835C25.7104 22.2861 25.4069 22.5879 24.9537 22.5879H18.1461V19.5742H16.6334V22.5879H9.82481L9.66172 22.5732C9.30049 22.5092 9.0691 22.2295 9.06895 21.835V19.5742C9.06909 19.1231 9.37163 18.8213 9.82481 18.8213H12.5357C12.316 18.6061 12.1371 18.3516 12.0182 18.0674L11.943 17.7656C11.6402 16.9368 11.7152 16.1087 12.1695 15.4307C12.5956 14.7247 13.3534 14.3497 14.1324 14.3057C14.1841 14.3027 14.2359 14.3018 14.2877 14.3018C14.3491 14.3018 14.411 14.3039 14.4723 14.3086C15.3303 14.3738 16.1602 14.8897 16.5553 15.7041C16.5835 15.7624 16.6097 15.8225 16.6334 15.8838V15.8828L17.3453 17.7119L17.3697 17.7734L18.1461 15.8838C18.5005 14.9654 19.3199 14.3785 20.2936 14.3086C20.3586 14.3039 20.4245 14.3018 20.4908 14.3018ZM20.3463 15.8193C20.2035 15.8405 20.0661 15.8923 19.9449 15.9727C19.7835 16.0798 19.6574 16.2329 19.5826 16.4111L19.5836 16.4121L18.9029 18.0684H20.4156C20.6096 18.0683 20.7991 18.0113 20.9605 17.9043C21.1219 17.7972 21.248 17.6449 21.3229 17.4668L21.398 17.165C21.5495 16.8634 21.4743 16.5624 21.3229 16.2607C21.1236 15.997 20.8678 15.8484 20.6041 15.8154L20.4908 15.8086C20.4423 15.8086 20.3939 15.8123 20.3463 15.8193ZM14.151 15.8145C13.8377 15.8475 13.5892 15.9959 13.4566 16.2598C13.23 16.4854 13.2301 16.8624 13.3053 17.1641L13.4566 17.4658C13.5315 17.644 13.6576 17.7963 13.8189 17.9033C13.9401 17.9837 14.0774 18.0355 14.2203 18.0566L14.3648 18.0674H15.8766L15.1959 16.4111L15.1969 16.4092C15.1221 16.2311 14.996 16.0787 14.8346 15.9717C14.7133 15.8913 14.5761 15.8394 14.4332 15.8184L14.2896 15.8076C14.2423 15.8076 14.1958 15.8097 14.151 15.8145ZM32.7291 12.1592C32.8221 12.1842 32.9097 12.2274 32.9859 12.2861C33.0621 12.3449 33.1258 12.4186 33.1734 12.502C33.2706 12.6707 33.297 12.8707 33.2467 13.0586C33.1964 13.2466 33.0736 13.4077 32.9049 13.5059V13.5068L29.0934 15.7109C29.0102 15.7591 28.9182 15.7901 28.8229 15.8027C28.7273 15.8154 28.6298 15.8091 28.5367 15.7842C28.4436 15.7592 28.3562 15.716 28.2799 15.6572C28.2038 15.5986 28.14 15.5256 28.0924 15.4424C27.9951 15.2736 27.9679 15.0728 28.0182 14.8848C28.0685 14.6967 28.1922 14.5357 28.3609 14.4375L32.1715 12.2334C32.2548 12.185 32.3473 12.1533 32.443 12.1406C32.5386 12.128 32.636 12.1342 32.7291 12.1592ZM2.32871 12.1396C2.42434 12.1523 2.51684 12.1831 2.6002 12.2314L6.41074 14.4365C6.5795 14.5347 6.70319 14.6957 6.75352 14.8838C6.80373 15.0718 6.77655 15.2717 6.6793 15.4404V15.4395C6.63161 15.5229 6.56808 15.5965 6.4918 15.6553C6.41552 15.714 6.32807 15.7573 6.23496 15.7822C6.14188 15.8072 6.04438 15.8134 5.94883 15.8008C5.85337 15.7881 5.76155 15.7563 5.67832 15.708L1.8668 13.5039C1.69826 13.4057 1.57533 13.2455 1.525 13.0576C1.47468 12.8696 1.50094 12.6688 1.59824 12.5C1.64583 12.4167 1.70969 12.3438 1.78574 12.2852C1.86196 12.2265 1.94955 12.1832 2.04258 12.1582C2.1357 12.1332 2.23311 12.127 2.32871 12.1396ZM8.47715 4.57422C8.57018 4.59921 8.65777 4.64247 8.73399 4.70117C8.81013 4.7599 8.87387 4.83363 8.92149 4.91699L11.1217 8.73438C11.2189 8.90304 11.2451 9.1031 11.1949 9.29102C11.1446 9.47902 11.0218 9.64007 10.8531 9.73828C10.7698 9.78664 10.6773 9.81839 10.5816 9.83105C10.4861 9.84369 10.3886 9.83649 10.2955 9.81152C10.2025 9.78653 10.1149 9.74425 10.0387 9.68555C9.96241 9.6268 9.89885 9.55318 9.85117 9.46973L7.65098 5.65234C7.55367 5.48356 7.52741 5.28278 7.57774 5.09473C7.62807 4.9067 7.7508 4.74565 7.91953 4.64746C8.00287 4.59912 8.09541 4.56833 8.19102 4.55566C8.2866 4.54302 8.38404 4.54925 8.47715 4.57422ZM26.5807 4.55469C26.6763 4.56735 26.7688 4.59812 26.8521 4.64648C27.0209 4.74469 27.1436 4.90571 27.1939 5.09375C27.2442 5.28166 27.2178 5.48169 27.1207 5.65039L24.9205 9.46875C24.8729 9.55201 24.8091 9.62492 24.733 9.68359C24.6568 9.74229 24.5692 9.78555 24.4762 9.81055C24.3831 9.83552 24.2856 9.84175 24.19 9.8291C24.0944 9.81643 24.0019 9.78566 23.9186 9.7373C23.7498 9.6391 23.6271 9.47808 23.5768 9.29004C23.5265 9.10211 23.5528 8.90209 23.65 8.7334L25.8502 4.91504C25.8978 4.83179 25.9616 4.75886 26.0377 4.7002C26.1139 4.64149 26.2015 4.59823 26.2945 4.57324C26.3877 4.54827 26.4851 4.54203 26.5807 4.55469ZM17.3854 2.25C17.7898 2.25013 18.1176 2.57933 18.1178 2.98535V7.39453C18.1177 7.80063 17.7899 8.12975 17.3854 8.12988C16.9807 8.12988 16.652 7.80071 16.652 7.39453V2.98535C16.6521 2.57925 16.9808 2.25 17.3854 2.25Z" fill="url(#paint0_linear_1417_11721)"/>
<path d="M16.6334 30.8721V31.1221H16.8834V30.8721H16.6334ZM11.1744 30.8584L11.2178 30.6122L11.1744 30.8584ZM10.5807 24.0938V23.8438H10.3307V24.0938H10.5807ZM16.6334 24.0938H16.8834V23.8438H16.6334V24.0938ZM24.1979 24.0938H24.4479V23.8438H24.1979V24.0938ZM23.442 30.8721L23.442 31.1221L23.4421 31.1221L23.442 30.8721ZM18.1461 30.8721H17.8961V31.1221H18.1461V30.8721ZM18.1461 24.0938V23.8438H17.8961V24.0938H18.1461ZM20.4908 14.3018L20.4908 14.0518H20.4908V14.3018ZM20.6471 14.3057L20.6612 14.0561L20.6471 14.3057ZM22.609 15.3564L22.8168 15.2175L22.8168 15.2175L22.609 15.3564ZM22.8355 17.6914L22.6036 17.5981L22.5972 17.6141L22.593 17.6308L22.8355 17.6914ZM22.7604 17.9922L22.9936 18.0822L22.9991 18.0678L23.0029 18.0528L22.7604 17.9922ZM22.2184 18.8213L22.0414 18.6447L21.6157 19.0713H22.2184V18.8213ZM25.7105 19.5742L25.9605 19.5742L25.9605 19.5741L25.7105 19.5742ZM25.7105 21.835L25.9605 21.8351V21.835H25.7105ZM18.1461 22.5879H17.8961V22.8379H18.1461V22.5879ZM18.1461 19.5742H18.3961V19.3242H18.1461V19.5742ZM16.6334 19.5742V19.3242H16.3834V19.5742H16.6334ZM16.6334 22.5879V22.8379H16.8834V22.5879H16.6334ZM9.82481 22.5879L9.80244 22.8369L9.8136 22.8379H9.82481V22.5879ZM9.66172 22.5732L9.61806 22.8194L9.62865 22.8213L9.63935 22.8222L9.66172 22.5732ZM9.06895 21.835L8.81895 21.835L8.81895 21.8351L9.06895 21.835ZM9.06895 19.5742L8.81895 19.5741V19.5742H9.06895ZM9.82481 18.8213L9.82481 18.5713L9.8248 18.5713L9.82481 18.8213ZM12.5357 18.8213V19.0713H13.1483L12.7107 18.6427L12.5357 18.8213ZM12.0182 18.0674L11.7756 18.1278L11.7802 18.1463L11.7875 18.1639L12.0182 18.0674ZM11.943 17.7656L12.1856 17.7052L12.1823 17.6923L12.1778 17.6798L11.943 17.7656ZM12.1695 15.4307L12.3774 15.57L12.3836 15.5598L12.1695 15.4307ZM14.1324 14.3057L14.1183 14.0561L14.1324 14.3057ZM14.2877 14.3018L14.2877 14.0518L14.2877 14.0518L14.2877 14.3018ZM14.4723 14.3086L14.4912 14.0593L14.4723 14.3086ZM16.5553 15.7041L16.3304 15.8132L16.5553 15.7041ZM16.6334 15.8838L16.4002 15.9739L16.8834 15.8838H16.6334ZM16.6334 15.8828L16.8664 15.7921L16.3834 15.8828H16.6334ZM17.3453 17.7119L17.1123 17.8026L17.1129 17.8041L17.3453 17.7119ZM17.3697 17.7734L17.1374 17.8656L17.3657 18.4411L17.601 17.8684L17.3697 17.7734ZM18.1461 15.8838L18.3774 15.9788L18.3793 15.9738L18.1461 15.8838ZM20.2936 14.3086L20.2757 14.0592L20.2936 14.3086ZM20.3463 15.8193L20.3829 16.0666L20.3463 15.8193ZM19.9449 15.9727L19.8067 15.7643L19.8067 15.7644L19.9449 15.9727ZM19.5826 16.4111L19.3521 16.3144L19.2872 16.4692L19.4058 16.5879L19.5826 16.4111ZM19.5836 16.4121L19.8148 16.5071L19.8781 16.3531L19.7604 16.2353L19.5836 16.4121ZM18.9029 18.0684L18.6717 17.9733L18.5299 18.3184H18.9029V18.0684ZM20.4156 18.0684L20.4156 18.3184L20.4157 18.3184L20.4156 18.0684ZM20.9605 17.9043L21.0987 18.1127L21.0987 18.1126L20.9605 17.9043ZM21.3229 17.4668L21.5533 17.5636L21.5608 17.5459L21.5654 17.5272L21.3229 17.4668ZM21.398 17.165L21.1746 17.0528L21.1622 17.0777L21.1555 17.1046L21.398 17.165ZM21.3229 16.2607L21.5463 16.1486L21.536 16.1282L21.5223 16.11L21.3229 16.2607ZM20.6041 15.8154L20.6351 15.5674L20.6272 15.5664L20.6192 15.5659L20.6041 15.8154ZM20.4908 15.8086L20.5059 15.559L20.4983 15.5586L20.4908 15.5586L20.4908 15.8086ZM14.151 15.8145L14.1772 16.0631L14.151 15.8145ZM13.4566 16.2598L13.633 16.4369L13.6618 16.4083L13.68 16.372L13.4566 16.2598ZM13.3053 17.1641L13.0627 17.2245L13.0694 17.2514L13.0818 17.2762L13.3053 17.1641ZM13.4566 17.4658L13.6871 17.369L13.6839 17.3613L13.6801 17.3537L13.4566 17.4658ZM13.8189 17.9033L13.6807 18.1116L13.6807 18.1116L13.8189 17.9033ZM14.2203 18.0566L14.1838 18.304L14.1927 18.3053L14.2018 18.306L14.2203 18.0566ZM14.3648 18.0674L14.3463 18.3167L14.3556 18.3174H14.3648V18.0674ZM15.8766 18.0674V18.3174H16.2496L16.1078 17.9724L15.8766 18.0674ZM15.1959 16.4111L14.9723 16.2993L14.9215 16.401L14.9647 16.5062L15.1959 16.4111ZM15.1969 16.4092L15.4205 16.521L15.4718 16.4183L15.4274 16.3124L15.1969 16.4092ZM14.8346 15.9717L14.9728 15.7634L14.9727 15.7633L14.8346 15.9717ZM14.4332 15.8184L14.4697 15.571L14.4608 15.5697L14.4519 15.5691L14.4332 15.8184ZM14.2896 15.8076L14.3083 15.5583L14.299 15.5576H14.2896V15.8076ZM32.7291 12.1592L32.794 11.9177L32.7939 11.9177L32.7291 12.1592ZM32.9859 12.2861L33.1386 12.0882L33.1385 12.0881L32.9859 12.2861ZM33.1734 12.502L32.9563 12.6259L32.9568 12.6267L33.1734 12.502ZM33.2467 13.0586L33.4882 13.1232L33.4882 13.1232L33.2467 13.0586ZM32.9049 13.5059L32.7791 13.2898L32.6549 13.3621V13.5059H32.9049ZM32.9049 13.5068L33.03 13.7233L33.1549 13.6511V13.5068H32.9049ZM29.0934 15.7109L28.9682 15.4945L28.968 15.4946L29.0934 15.7109ZM28.8229 15.8027L28.8557 16.0506L28.8558 16.0506L28.8229 15.8027ZM28.5367 15.7842L28.472 16.0256L28.472 16.0257L28.5367 15.7842ZM28.2799 15.6572L28.1273 15.8553L28.1273 15.8553L28.2799 15.6572ZM28.0924 15.4424L28.3094 15.3182L28.309 15.3175L28.0924 15.4424ZM28.0182 14.8848L27.7767 14.8201L27.7767 14.8202L28.0182 14.8848ZM28.3609 14.4375L28.2358 14.2211L28.2352 14.2214L28.3609 14.4375ZM32.1715 12.2334L32.2967 12.4498L32.2969 12.4496L32.1715 12.2334ZM32.443 12.1406L32.4102 11.8928L32.4101 11.8928L32.443 12.1406ZM2.32871 12.1396L2.36154 11.8918L2.36151 11.8918L2.32871 12.1396ZM2.6002 12.2314L2.47474 12.4477L2.47498 12.4478L2.6002 12.2314ZM6.41074 14.4365L6.53648 14.2204L6.53596 14.2201L6.41074 14.4365ZM6.75352 14.8838L6.99505 14.8193L6.99502 14.8192L6.75352 14.8838ZM6.6793 15.4404H6.4293V16.3747L6.89589 15.5653L6.6793 15.4404ZM6.6793 15.4395H6.9293V14.4979L6.46222 15.3154L6.6793 15.4395ZM6.4918 15.6553L6.64431 15.8534L6.64435 15.8533L6.4918 15.6553ZM6.23496 15.7822L6.29964 16.0237L6.29971 16.0237L6.23496 15.7822ZM5.94883 15.8008L5.9159 16.0486L5.916 16.0486L5.94883 15.8008ZM5.67832 15.708L5.80373 15.4917L5.80347 15.4916L5.67832 15.708ZM1.8668 13.5039L1.74096 13.7199L1.74165 13.7203L1.8668 13.5039ZM1.525 13.0576L1.2835 13.1222L1.28352 13.1223L1.525 13.0576ZM1.59824 12.5L1.81483 12.6249L1.81529 12.6241L1.59824 12.5ZM1.78574 12.2852L1.63319 12.0871L1.63305 12.0872L1.78574 12.2852ZM2.04258 12.1582L1.97783 11.9167L1.97772 11.9168L2.04258 12.1582ZM8.47715 4.57422L8.54201 4.33278L8.5419 4.33275L8.47715 4.57422ZM8.73399 4.70117L8.88666 4.50321L8.88654 4.50311L8.73399 4.70117ZM8.92149 4.91699L8.7044 5.04098L8.70489 5.04183L8.92149 4.91699ZM11.1217 8.73438L11.3383 8.60957L11.3383 8.60954L11.1217 8.73438ZM11.1949 9.29102L11.4364 9.35564L11.4364 9.35555L11.1949 9.29102ZM10.8531 9.73828L10.9786 9.95452L10.9789 9.95433L10.8531 9.73828ZM10.5816 9.83105L10.6144 10.0789L10.6145 10.0789L10.5816 9.83105ZM10.2955 9.81152L10.2306 10.053L10.2308 10.053L10.2955 9.81152ZM10.0387 9.68555L9.88611 9.8836L9.88612 9.88361L10.0387 9.68555ZM9.85117 9.46973L10.0682 9.34571L10.0678 9.34489L9.85117 9.46973ZM7.65098 5.65234L7.86758 5.5275L7.86756 5.52748L7.65098 5.65234ZM7.57774 5.09473L7.33624 5.03008L7.33623 5.0301L7.57774 5.09473ZM7.91953 4.64746L7.7941 4.43121L7.79379 4.43138L7.91953 4.64746ZM8.19102 4.55566L8.15823 4.30782L8.15819 4.30783L8.19102 4.55566ZM26.5807 4.55469L26.6135 4.30685L26.6135 4.30685L26.5807 4.55469ZM26.8521 4.64648L26.9779 4.43041L26.9776 4.43024L26.8521 4.64648ZM27.1939 5.09375L27.4355 5.02914L27.4354 5.02912L27.1939 5.09375ZM27.1207 5.65039L27.3373 5.77521L27.3374 5.77514L27.1207 5.65039ZM24.9205 9.46875L24.7039 9.34393L24.7035 9.34471L24.9205 9.46875ZM24.733 9.68359L24.8856 9.88166L24.8857 9.88153L24.733 9.68359ZM24.4762 9.81055L24.5409 10.052L24.5411 10.052L24.4762 9.81055ZM24.19 9.8291L24.1572 10.0769L24.1572 10.0769L24.19 9.8291ZM23.9186 9.7373L23.7928 9.95337L23.7931 9.95355L23.9186 9.7373ZM23.5768 9.29004L23.3352 9.35462L23.3353 9.35467L23.5768 9.29004ZM23.65 8.7334L23.4334 8.60858L23.4334 8.60861L23.65 8.7334ZM25.8502 4.91504L26.0668 5.03986L26.0672 5.03912L25.8502 4.91504ZM26.0377 4.7002L25.8851 4.50213L25.885 4.50224L26.0377 4.7002ZM26.2945 4.57324L26.2298 4.33177L26.2297 4.3318L26.2945 4.57324ZM17.3854 2.25L17.3854 2H17.3854V2.25ZM18.1178 2.98535L18.3678 2.98535L18.3678 2.98527L18.1178 2.98535ZM18.1178 7.39453L18.3678 7.39456V7.39453H18.1178ZM17.3854 8.12988L17.3854 8.37988L17.3854 8.37988L17.3854 8.12988ZM16.652 7.39453L16.402 7.39453L16.402 7.39456L16.652 7.39453ZM16.652 2.98535L16.402 2.98527V2.98535H16.652ZM16.6334 30.8721V30.6221H11.3375V30.8721V31.1221H16.6334V30.8721ZM11.3375 30.8721V30.6221C11.294 30.6221 11.254 30.6186 11.2178 30.6122L11.1744 30.8584L11.131 31.1046C11.1983 31.1165 11.2674 31.1221 11.3375 31.1221V30.8721ZM11.1744 30.8584L11.2178 30.6122C11.0911 30.5898 10.9982 30.5324 10.936 30.4556C10.8735 30.3783 10.8307 30.267 10.8307 30.1191H10.5807H10.3307C10.3307 30.3662 10.4037 30.5926 10.5474 30.7702C10.6916 30.9483 10.8955 31.0631 11.131 31.1046L11.1744 30.8584ZM10.5807 30.1191H10.8307V24.0938H10.5807H10.3307V30.1191H10.5807ZM10.5807 24.0938V24.3438H16.6334V24.0938V23.8438H10.5807V24.0938ZM16.6334 24.0938H16.3834V30.8721H16.6334H16.8834V24.0938H16.6334ZM24.1979 24.0938H23.9479V30.1191H24.1979H24.4479V24.0938H24.1979ZM24.1979 30.1191H23.9479C23.9479 30.2874 23.8925 30.4088 23.8134 30.4876C23.7342 30.5665 23.6118 30.622 23.4419 30.6221L23.442 30.8721L23.4421 31.1221C23.7253 31.1219 23.9808 31.0266 24.1662 30.8419C24.3518 30.657 24.4479 30.402 24.4479 30.1191H24.1979ZM23.442 30.8721V30.6221H18.1461V30.8721V31.1221H23.442V30.8721ZM18.1461 30.8721H18.3961V24.0938H18.1461H17.8961V30.8721H18.1461ZM18.1461 24.0938V24.3438H24.1979V24.0938V23.8438H18.1461V24.0938ZM20.4908 14.3018L20.4908 14.5518C20.54 14.5518 20.5871 14.5527 20.633 14.5553L20.6471 14.3057L20.6612 14.0561C20.603 14.0528 20.5459 14.0518 20.4908 14.0518L20.4908 14.3018ZM20.6471 14.3057L20.633 14.5553C21.3479 14.5956 22.0273 14.9361 22.4011 15.4954L22.609 15.3564L22.8168 15.2175C22.3409 14.5055 21.5041 14.1036 20.6612 14.0561L20.6471 14.3057ZM22.609 15.3564L22.4011 15.4954C22.8063 16.1016 22.8771 16.9183 22.6036 17.5981L22.8355 17.6914L23.0675 17.7847C23.3998 16.9587 23.318 15.9674 22.8168 15.2175L22.609 15.3564ZM22.8355 17.6914L22.593 17.6308L22.5178 17.9316L22.7604 17.9922L23.0029 18.0528L23.0781 17.752L22.8355 17.6914ZM22.7604 17.9922L22.5271 17.9022C22.4173 18.1868 22.2491 18.4365 22.0414 18.6447L22.2184 18.8213L22.3953 18.9979C22.6491 18.7436 22.8571 18.4358 22.9936 18.0822L22.7604 17.9922ZM22.2184 18.8213V19.0713H24.9537V18.8213V18.5713H22.2184V18.8213ZM24.9537 18.8213V19.0713C25.1236 19.0713 25.2463 19.1268 25.3257 19.2058C25.405 19.2847 25.4605 19.4061 25.4605 19.5743L25.7105 19.5742L25.9605 19.5741C25.9605 19.2911 25.8641 19.0361 25.6783 18.8513C25.4927 18.6667 25.237 18.5713 24.9537 18.5713V18.8213ZM25.7105 19.5742H25.4605V21.835H25.7105H25.9605V19.5742H25.7105ZM25.7105 21.835L25.4605 21.8349C25.4605 22.003 25.405 22.1244 25.3257 22.2034C25.2463 22.2824 25.1236 22.3379 24.9537 22.3379V22.5879V22.8379C25.237 22.8379 25.4927 22.7425 25.6783 22.5578C25.8641 22.3731 25.9604 22.118 25.9605 21.8351L25.7105 21.835ZM24.9537 22.5879V22.3379H18.1461V22.5879V22.8379H24.9537V22.5879ZM18.1461 22.5879H18.3961V19.5742H18.1461H17.8961V22.5879H18.1461ZM18.1461 19.5742V19.3242H16.6334V19.5742V19.8242H18.1461V19.5742ZM16.6334 19.5742H16.3834V22.5879H16.6334H16.8834V19.5742H16.6334ZM16.6334 22.5879V22.3379H9.82481V22.5879V22.8379H16.6334V22.5879ZM9.82481 22.5879L9.84717 22.3389L9.68409 22.3242L9.66172 22.5732L9.63935 22.8222L9.80244 22.8369L9.82481 22.5879ZM9.66172 22.5732L9.70538 22.3271C9.57902 22.3047 9.48629 22.2474 9.42423 22.1707C9.36176 22.0936 9.319 21.9825 9.31895 21.8349L9.06895 21.835L8.81895 21.8351C8.81904 22.0819 8.89206 22.308 9.03562 22.4853C9.17961 22.6632 9.38318 22.7777 9.61806 22.8194L9.66172 22.5732ZM9.06895 21.835H9.31895V19.5742H9.06895H8.81895V21.835H9.06895ZM9.06895 19.5742L9.31895 19.5743C9.319 19.4059 9.37437 19.2845 9.45346 19.2057C9.53261 19.1268 9.65493 19.0713 9.82481 19.0713L9.82481 18.8213L9.8248 18.5713C9.54151 18.5713 9.28597 18.6667 9.10052 18.8515C8.91501 19.0364 8.81904 19.2914 8.81895 19.5741L9.06895 19.5742ZM9.82481 18.8213V19.0713H12.5357V18.8213V18.5713H9.82481V18.8213ZM12.5357 18.8213L12.7107 18.6427C12.5127 18.4488 12.3537 18.2217 12.2488 17.9709L12.0182 18.0674L11.7875 18.1639C11.9204 18.4815 12.1193 18.7634 12.3608 18.9999L12.5357 18.8213ZM12.0182 18.0674L12.2607 18.0069L12.1856 17.7052L11.943 17.7656L11.7004 17.8261L11.7756 18.1278L12.0182 18.0674ZM11.943 17.7656L12.1778 17.6798C11.8991 16.917 11.9724 16.174 12.3772 15.5698L12.1695 15.4307L11.9618 15.2915C11.458 16.0435 11.3812 16.9566 11.7082 17.8514L11.943 17.7656ZM12.1695 15.4307L12.3836 15.5598C12.7598 14.9365 13.435 14.5955 14.1465 14.5553L14.1324 14.3057L14.1183 14.0561C13.2717 14.1039 12.4314 14.513 11.9555 15.3015L12.1695 15.4307ZM14.1324 14.3057L14.1465 14.5553C14.1921 14.5527 14.2389 14.5518 14.2877 14.5518L14.2877 14.3018L14.2877 14.0518C14.2329 14.0518 14.1761 14.0528 14.1183 14.0561L14.1324 14.3057ZM14.2877 14.3018V14.5518C14.3432 14.5518 14.3988 14.5537 14.4533 14.5579L14.4723 14.3086L14.4912 14.0593C14.4232 14.0541 14.355 14.0518 14.2877 14.0518V14.3018ZM14.4723 14.3086L14.4533 14.5579C15.2291 14.6168 15.9768 15.0846 16.3304 15.8132L16.5553 15.7041L16.7802 15.595C16.3435 14.6949 15.4314 14.1307 14.4912 14.0593L14.4723 14.3086ZM16.5553 15.7041L16.3304 15.8132C16.3556 15.8653 16.379 15.9191 16.4002 15.9739L16.6334 15.8838L16.8666 15.7937C16.8404 15.726 16.8115 15.6594 16.7802 15.595L16.5553 15.7041ZM16.6334 15.8838H16.8834V15.8828H16.6334H16.3834V15.8838H16.6334ZM16.6334 15.8828L16.4004 15.9735L17.1123 17.8026L17.3453 17.7119L17.5783 17.6212L16.8664 15.7921L16.6334 15.8828ZM17.3453 17.7119L17.1129 17.8041L17.1374 17.8656L17.3697 17.7734L17.6021 17.6812L17.5777 17.6197L17.3453 17.7119ZM17.3697 17.7734L17.601 17.8684L18.3773 15.9788L18.1461 15.8838L17.9149 15.7888L17.1385 17.6784L17.3697 17.7734ZM18.1461 15.8838L18.3793 15.9738C18.6979 15.1484 19.4315 14.6211 20.3114 14.558L20.2936 14.3086L20.2757 14.0592C19.2083 14.1358 18.3032 14.7824 17.9129 15.7938L18.1461 15.8838ZM20.2936 14.3086L20.3114 14.558C20.37 14.5538 20.4299 14.5518 20.4908 14.5518V14.3018V14.0518C20.4191 14.0518 20.3472 14.0541 20.2757 14.0592L20.2936 14.3086ZM20.3463 15.8193L20.3097 15.572C20.1314 15.5984 19.9592 15.6632 19.8067 15.7643L19.9449 15.9727L20.0831 16.181C20.1729 16.1214 20.2756 16.0825 20.3829 16.0666L20.3463 15.8193ZM19.9449 15.9727L19.8067 15.7644C19.6039 15.8989 19.4458 16.091 19.3521 16.3144L19.5826 16.4111L19.8132 16.5078C19.869 16.3748 19.9631 16.2607 20.0832 16.181L19.9449 15.9727ZM19.5826 16.4111L19.4058 16.5879L19.4068 16.5889L19.5836 16.4121L19.7604 16.2353L19.7594 16.2344L19.5826 16.4111ZM19.5836 16.4121L19.3524 16.3171L18.6717 17.9733L18.9029 18.0684L19.1342 18.1634L19.8148 16.5071L19.5836 16.4121ZM18.9029 18.0684V18.3184H20.4156V18.0684V17.8184H18.9029V18.0684ZM20.4156 18.0684L20.4157 18.3184C20.6585 18.3183 20.8962 18.2469 21.0987 18.1127L20.9605 17.9043L20.8224 17.6959C20.7021 17.7757 20.5606 17.8183 20.4155 17.8184L20.4156 18.0684ZM20.9605 17.9043L21.0987 18.1126C21.3011 17.9784 21.4594 17.7873 21.5533 17.5636L21.3229 17.4668L21.0924 17.37C21.0367 17.5026 20.9427 17.6161 20.8223 17.696L20.9605 17.9043ZM21.3229 17.4668L21.5654 17.5272L21.6406 17.2255L21.398 17.165L21.1555 17.1046L21.0803 17.4063L21.3229 17.4668ZM21.398 17.165L21.6215 17.2772C21.8265 16.8688 21.7099 16.4744 21.5463 16.1486L21.3229 16.2607L21.0994 16.3729C21.2387 16.6503 21.2725 16.858 21.1746 17.0528L21.398 17.165ZM21.3229 16.2607L21.5223 16.11C21.2876 15.7994 20.974 15.6097 20.6351 15.5674L20.6041 15.8154L20.5731 16.0635C20.7617 16.0871 20.9596 16.1947 21.1234 16.4114L21.3229 16.2607ZM20.6041 15.8154L20.6192 15.5659L20.5059 15.559L20.4908 15.8086L20.4758 16.0581L20.589 16.065L20.6041 15.8154ZM20.4908 15.8086L20.4908 15.5586C20.4297 15.5586 20.3691 15.5632 20.3097 15.572L20.3463 15.8193L20.3829 16.0666C20.4187 16.0613 20.4549 16.0586 20.4909 16.0586L20.4908 15.8086ZM14.151 15.8145L14.1248 15.5658C13.7438 15.606 13.411 15.7936 13.2332 16.1476L13.4566 16.2598L13.68 16.372C13.7673 16.1983 13.9317 16.089 14.1772 16.0631L14.151 15.8145ZM13.4566 16.2598L13.2802 16.0826C12.9553 16.4062 12.9824 16.9024 13.0627 17.2245L13.3053 17.1641L13.5479 17.1036C13.4778 16.8224 13.5047 16.5647 13.633 16.4369L13.4566 16.2598ZM13.3053 17.1641L13.0818 17.2762L13.2332 17.5779L13.4566 17.4658L13.6801 17.3537L13.5287 17.052L13.3053 17.1641ZM13.4566 17.4658L13.2261 17.5626C13.3201 17.7863 13.4784 17.9774 13.6807 18.1116L13.8189 17.9033L13.9572 17.695C13.8368 17.6151 13.7428 17.5016 13.6871 17.369L13.4566 17.4658ZM13.8189 17.9033L13.6807 18.1116C13.8332 18.2128 14.0054 18.2776 14.1838 18.304L14.2203 18.0566L14.2569 17.8093C14.1495 17.7935 14.0471 17.7546 13.9571 17.695L13.8189 17.9033ZM14.2203 18.0566L14.2018 18.306L14.3463 18.3167L14.3648 18.0674L14.3834 17.8181L14.2388 17.8073L14.2203 18.0566ZM14.3648 18.0674V18.3174H15.8766V18.0674V17.8174H14.3648V18.0674ZM15.8766 18.0674L16.1078 17.9724L15.4271 16.3161L15.1959 16.4111L14.9647 16.5062L15.6453 18.1624L15.8766 18.0674ZM15.1959 16.4111L15.4195 16.5229L15.4205 16.521L15.1969 16.4092L14.9733 16.2974L14.9723 16.2993L15.1959 16.4111ZM15.1969 16.4092L15.4274 16.3124C15.3334 16.0887 15.1752 15.8976 14.9728 15.7634L14.8346 15.9717L14.6964 16.18C14.8167 16.2599 14.9107 16.3734 14.9664 16.506L15.1969 16.4092ZM14.8346 15.9717L14.9727 15.7633C14.8203 15.6622 14.6482 15.5974 14.4697 15.571L14.4332 15.8184L14.3967 16.0657C14.504 16.0815 14.6064 16.1203 14.6964 16.18L14.8346 15.9717ZM14.4332 15.8184L14.4519 15.5691L14.3083 15.5583L14.2896 15.8076L14.271 16.0569L14.4145 16.0677L14.4332 15.8184ZM14.2896 15.8076V15.5576C14.235 15.5576 14.1796 15.56 14.1248 15.5658L14.151 15.8145L14.1772 16.0631C14.212 16.0594 14.2496 16.0576 14.2896 16.0576V15.8076ZM32.7291 12.1592L32.6643 12.4006C32.7256 12.4171 32.7833 12.4457 32.8334 12.4842L32.9859 12.2861L33.1385 12.0881C33.0361 12.0092 32.9187 11.9512 32.794 11.9177L32.7291 12.1592ZM32.9859 12.2861L32.8333 12.4841C32.8828 12.5223 32.9248 12.5707 32.9564 12.6259L33.1734 12.502L33.3905 12.378C33.3268 12.2664 33.2414 12.1674 33.1386 12.0882L32.9859 12.2861ZM33.1734 12.502L32.9568 12.6267C33.021 12.7382 33.0383 12.8701 33.0052 12.994L33.2467 13.0586L33.4882 13.1232C33.5556 12.8712 33.5202 12.6031 33.3901 12.3772L33.1734 12.502ZM33.2467 13.0586L33.0052 12.994C32.9719 13.1184 32.8907 13.2249 32.7791 13.2898L32.9049 13.5059L33.0306 13.7219C33.2566 13.5904 33.4208 13.3749 33.4882 13.1232L33.2467 13.0586ZM32.9049 13.5059H32.6549V13.5068H32.9049H33.1549V13.5059H32.9049ZM32.9049 13.5068L32.7797 13.2904L28.9682 15.4945L29.0934 15.7109L29.2185 15.9274L33.03 13.7233L32.9049 13.5068ZM29.0934 15.7109L28.968 15.4946C28.914 15.5259 28.8534 15.5465 28.7899 15.5549L28.8229 15.8027L28.8558 16.0506C28.983 16.0336 29.1065 15.9923 29.2187 15.9273L29.0934 15.7109ZM28.8229 15.8027L28.79 15.5549C28.7269 15.5633 28.6626 15.5591 28.6014 15.5427L28.5367 15.7842L28.472 16.0257C28.597 16.0592 28.7276 16.0675 28.8557 16.0506L28.8229 15.8027ZM28.5367 15.7842L28.6015 15.5427C28.5401 15.5263 28.4826 15.4978 28.4324 15.4592L28.2799 15.6572L28.1273 15.8553C28.2298 15.9342 28.347 15.9921 28.472 16.0256L28.5367 15.7842ZM28.2799 15.6572L28.4324 15.4592C28.3823 15.4206 28.3405 15.3727 28.3094 15.3182L28.0924 15.4424L27.8754 15.5666C27.9395 15.6786 28.0252 15.7766 28.1273 15.8553L28.2799 15.6572ZM28.0924 15.4424L28.309 15.3175C28.2444 15.2054 28.2267 15.0727 28.2597 14.9494L28.0182 14.8848L27.7767 14.8202C27.709 15.0729 27.7458 15.3418 27.8758 15.5672L28.0924 15.4424ZM28.0182 14.8848L28.2597 14.9494C28.2928 14.8257 28.3745 14.7189 28.4867 14.6536L28.3609 14.4375L28.2352 14.2214C28.0099 14.3525 27.8442 14.5677 27.7767 14.8201L28.0182 14.8848ZM28.3609 14.4375L28.4861 14.6539L32.2967 12.4498L32.1715 12.2334L32.0463 12.017L28.2358 14.2211L28.3609 14.4375ZM32.1715 12.2334L32.2969 12.4496C32.3521 12.4177 32.4131 12.3968 32.4758 12.3885L32.443 12.1406L32.4101 11.8928C32.2815 11.9098 32.1576 11.9524 32.046 12.0172L32.1715 12.2334ZM32.443 12.1406L32.4757 12.3885C32.539 12.3801 32.6033 12.3843 32.6644 12.4006L32.7291 12.1592L32.7939 11.9177C32.6687 11.8842 32.5381 11.8759 32.4102 11.8928L32.443 12.1406ZM2.32871 12.1396L2.29588 12.3875C2.36018 12.396 2.42101 12.4165 2.47474 12.4477L2.6002 12.2314L2.72565 12.0152C2.61267 11.9497 2.4885 11.9086 2.36154 11.8918L2.32871 12.1396ZM2.6002 12.2314L2.47498 12.4478L6.28553 14.6529L6.41074 14.4365L6.53596 14.2201L2.72541 12.0151L2.6002 12.2314ZM6.41074 14.4365L6.285 14.6526C6.39718 14.7179 6.47891 14.8247 6.51201 14.9484L6.75352 14.8838L6.99502 14.8192C6.92748 14.5668 6.76182 14.3516 6.53648 14.2204L6.41074 14.4365ZM6.75352 14.8838L6.51199 14.9483C6.54491 15.0715 6.52732 15.2035 6.46271 15.3156L6.6793 15.4404L6.89589 15.5653C7.02577 15.34 7.06256 15.072 6.99505 14.8193L6.75352 14.8838ZM6.6793 15.4404H6.9293V15.4395H6.6793H6.4293V15.4404H6.6793ZM6.6793 15.4395L6.46222 15.3154C6.43055 15.3709 6.38873 15.4191 6.33925 15.4572L6.4918 15.6553L6.64435 15.8533C6.74743 15.7739 6.83267 15.675 6.89637 15.5635L6.6793 15.4395ZM6.4918 15.6553L6.33929 15.4572C6.28909 15.4958 6.23146 15.5243 6.17021 15.5408L6.23496 15.7822L6.29971 16.0237C6.42468 15.9902 6.54195 15.9322 6.64431 15.8534L6.4918 15.6553ZM6.23496 15.7822L6.17029 15.5407C6.10908 15.5571 6.04472 15.5613 5.98166 15.5529L5.94883 15.8008L5.916 16.0486C6.04404 16.0656 6.17467 16.0572 6.29964 16.0237L6.23496 15.7822ZM5.94883 15.8008L5.98176 15.553C5.91971 15.5447 5.85923 15.5239 5.80373 15.4917L5.67832 15.708L5.55292 15.9243C5.66387 15.9886 5.78702 16.0315 5.9159 16.0486L5.94883 15.8008ZM5.67832 15.708L5.80347 15.4916L1.99195 13.2875L1.8668 13.5039L1.74165 13.7203L5.55317 15.9244L5.67832 15.708ZM1.8668 13.5039L1.99264 13.2879C1.88071 13.2227 1.79962 13.1166 1.76649 12.9929L1.525 13.0576L1.28352 13.1223C1.35103 13.3743 1.51581 13.5888 1.74096 13.7199L1.8668 13.5039ZM1.525 13.0576L1.7665 12.993C1.73327 12.8688 1.75065 12.7362 1.81483 12.6249L1.59824 12.5L1.38166 12.3751C1.25123 12.6014 1.21608 12.8703 1.2835 13.1222L1.525 13.0576ZM1.59824 12.5L1.81529 12.6241C1.84626 12.5699 1.88811 12.5219 1.93844 12.4831L1.78574 12.2852L1.63305 12.0872C1.53128 12.1657 1.4454 12.2636 1.3812 12.3759L1.59824 12.5ZM1.78574 12.2852L1.93829 12.4832C1.98831 12.4447 2.04608 12.4161 2.10744 12.3996L2.04258 12.1582L1.97772 11.9168C1.85302 11.9503 1.7356 12.0082 1.63319 12.0871L1.78574 12.2852ZM2.04258 12.1582L2.10733 12.3997C2.16846 12.3833 2.23271 12.3791 2.29591 12.3875L2.32871 12.1396L2.36151 11.8918C2.23352 11.8749 2.10295 11.8832 1.97783 11.9167L2.04258 12.1582ZM8.47715 4.57422L8.41229 4.81566C8.47365 4.83214 8.53141 4.8607 8.58144 4.89923L8.73399 4.70117L8.88654 4.50311C8.78412 4.42423 8.66672 4.36628 8.54201 4.33278L8.47715 4.57422ZM8.73399 4.70117L8.58131 4.89914C8.63085 4.93735 8.67287 4.98578 8.7044 5.04098L8.92149 4.91699L9.13857 4.79301C9.07488 4.68147 8.98941 4.58245 8.88666 4.50321L8.73399 4.70117ZM8.92149 4.91699L8.70489 5.04183L10.9051 8.85921L11.1217 8.73438L11.3383 8.60954L9.13808 4.79215L8.92149 4.91699ZM11.1217 8.73438L10.9051 8.85918C10.9692 8.97051 10.9865 9.10248 10.9534 9.22648L11.1949 9.29102L11.4364 9.35555C11.5037 9.10373 11.4685 8.83558 11.3383 8.60957L11.1217 8.73438ZM11.1949 9.29102L10.9534 9.22639C10.9201 9.35072 10.8389 9.45729 10.7273 9.52223L10.8531 9.73828L10.9789 9.95433C11.2047 9.82286 11.3691 9.60732 11.4364 9.35564L11.1949 9.29102ZM10.8531 9.73828L10.7277 9.52204C10.6725 9.55403 10.6115 9.57492 10.5488 9.58322L10.5816 9.83105L10.6145 10.0789C10.7431 10.0619 10.867 10.0193 10.9786 9.95452L10.8531 9.73828ZM10.5816 9.83105L10.5489 9.58321C10.4873 9.59135 10.423 9.58688 10.3603 9.57005L10.2955 9.81152L10.2308 10.053C10.3542 10.0861 10.4848 10.096 10.6144 10.0789L10.5816 9.83105ZM10.2955 9.81152L10.3604 9.57009C10.2975 9.55319 10.24 9.52507 10.1912 9.48749L10.0387 9.68555L9.88612 9.88361C9.98975 9.96342 10.1075 10.0199 10.2306 10.053L10.2955 9.81152ZM10.0387 9.68555L10.1912 9.48749C10.1418 9.44938 10.0999 9.40113 10.0682 9.34571L9.85117 9.46973L9.6341 9.59375C9.6978 9.70523 9.78306 9.80422 9.88611 9.8836L10.0387 9.68555ZM9.85117 9.46973L10.0678 9.34489L7.86758 5.5275L7.65098 5.65234L7.43438 5.77718L9.63457 9.59457L9.85117 9.46973ZM7.65098 5.65234L7.86756 5.52748C7.80338 5.41616 7.78601 5.28354 7.81924 5.15935L7.57774 5.09473L7.33623 5.0301C7.26882 5.28203 7.30396 5.55096 7.43439 5.77721L7.65098 5.65234ZM7.57774 5.09473L7.81923 5.15937C7.85254 5.03495 7.93376 4.92843 8.04527 4.86354L7.91953 4.64746L7.79379 4.43138C7.56783 4.56287 7.4036 4.77844 7.33624 5.03008L7.57774 5.09473ZM7.91953 4.64746L8.04497 4.86371C8.09871 4.83254 8.15959 4.81201 8.22385 4.8035L8.19102 4.55566L8.15819 4.30783C8.03123 4.32465 7.90704 4.3657 7.7941 4.43121L7.91953 4.64746ZM8.19102 4.55566L8.2238 4.80351C8.28701 4.79514 8.3513 4.7993 8.4124 4.81569L8.47715 4.57422L8.5419 4.33275C8.41678 4.2992 8.28619 4.2909 8.15823 4.30782L8.19102 4.55566ZM26.5807 4.55469L26.5478 4.80252C26.6121 4.81104 26.673 4.83155 26.7267 4.86273L26.8521 4.64648L26.9776 4.43024C26.8646 4.36469 26.7405 4.32367 26.6135 4.30685L26.5807 4.55469ZM26.8521 4.64648L26.7264 4.86255C26.8379 4.92747 26.9192 5.03398 26.9524 5.15838L27.1939 5.09375L27.4354 5.02912C27.3681 4.77743 27.2038 4.5619 26.9779 4.43041L26.8521 4.64648ZM27.1939 5.09375L26.9524 5.15836C26.9856 5.28222 26.9682 5.41417 26.9041 5.52564L27.1207 5.65039L27.3374 5.77514C27.4674 5.54922 27.5029 5.28111 27.4355 5.02914L27.1939 5.09375ZM27.1207 5.65039L26.9041 5.52558L24.7039 9.34393L24.9205 9.46875L25.1371 9.59357L27.3373 5.77521L27.1207 5.65039ZM24.9205 9.46875L24.7035 9.34471C24.6725 9.39886 24.6307 9.4468 24.5803 9.48566L24.733 9.68359L24.8857 9.88153C24.9875 9.80304 25.0734 9.70516 25.1376 9.59279L24.9205 9.46875ZM24.733 9.68359L24.5805 9.48553C24.5305 9.52404 24.4727 9.55262 24.4113 9.56911L24.4762 9.81055L24.5411 10.052C24.6657 10.0185 24.7832 9.96053 24.8856 9.88166L24.733 9.68359ZM24.4762 9.81055L24.4114 9.56908C24.3503 9.58547 24.286 9.58962 24.2228 9.58126L24.19 9.8291L24.1572 10.0769C24.2852 10.0939 24.4158 10.0856 24.5409 10.052L24.4762 9.81055ZM24.19 9.8291L24.2229 9.58127C24.1586 9.57275 24.0977 9.55223 24.044 9.52106L23.9186 9.7373L23.7931 9.95355C23.9061 10.0191 24.0302 10.0601 24.1572 10.0769L24.19 9.8291ZM23.9186 9.7373L24.0443 9.52123C23.9328 9.45632 23.8515 9.3498 23.8183 9.22541L23.5768 9.29004L23.3353 9.35467C23.4026 9.60636 23.5669 9.82189 23.7928 9.95337L23.9186 9.7373ZM23.5768 9.29004L23.8183 9.22546C23.7851 9.10152 23.8025 8.96959 23.8666 8.85818L23.65 8.7334L23.4334 8.60861C23.3032 8.8346 23.2679 9.10271 23.3352 9.35462L23.5768 9.29004ZM23.65 8.7334L23.8666 8.85821L26.0668 5.03985L25.8502 4.91504L25.6336 4.79022L23.4334 8.60858L23.65 8.7334ZM25.8502 4.91504L26.0672 5.03912C26.0982 4.9849 26.1401 4.93696 26.1904 4.89815L26.0377 4.7002L25.885 4.50224C25.7832 4.58075 25.6973 4.67868 25.6332 4.79096L25.8502 4.91504ZM26.0377 4.7002L26.1902 4.89826C26.2403 4.85972 26.298 4.83116 26.3594 4.81468L26.2945 4.57324L26.2297 4.3318C26.105 4.3653 25.9876 4.42325 25.8851 4.50213L26.0377 4.7002ZM26.2945 4.57324L26.3593 4.81471C26.4204 4.79832 26.4847 4.79416 26.5479 4.80253L26.5807 4.55469L26.6135 4.30685C26.4855 4.2899 26.3549 4.29822 26.2298 4.33177L26.2945 4.57324ZM17.3854 2.25L17.3853 2.5C17.6508 2.50009 17.8677 2.71647 17.8678 2.98543L18.1178 2.98535L18.3678 2.98527C18.3676 2.4422 17.9289 2.00018 17.3854 2L17.3854 2.25ZM18.1178 2.98535H17.8678V7.39453H18.1178H18.3678V2.98535H18.1178ZM18.1178 7.39453L17.8678 7.39451C17.8677 7.66345 17.6509 7.8798 17.3853 7.87988L17.3854 8.12988L17.3854 8.37988C17.9289 8.37971 18.3677 7.9378 18.3678 7.39456L18.1178 7.39453ZM17.3854 8.12988V7.87988C17.1193 7.87988 16.902 7.66318 16.902 7.39451L16.652 7.39453L16.402 7.39456C16.402 7.93824 16.8421 8.37988 17.3854 8.37988V8.12988ZM16.652 7.39453H16.902V2.98535H16.652H16.402V7.39453H16.652ZM16.652 2.98535L16.902 2.98543C16.902 2.71674 17.1194 2.5 17.3854 2.5V2.25V2C16.8421 2 16.4021 2.44176 16.402 2.98527L16.652 2.98535Z" fill="url(#paint1_linear_1417_11721)" mask="url(#path-1-inside-1_1417_11721)"/>
</g>
</g>
<defs>
<filter id="filter0_ddiiiii_1417_11721" x="-3.6991e-08" y="0" width="34.7716" height="32.1221" filterUnits="userSpaceOnUse" color-interpolation-filters="sRGB">
<feFlood flood-opacity="0" result="BackgroundImageFix"/>
<feColorMatrix in="SourceAlpha" type="matrix" values="0 0 0 0 0 0 0 0 0 0 0 0 0 0 0 0 0 0 127 0" result="hardAlpha"/>
<feOffset dy="0.5"/>
<feGaussianBlur stdDeviation="0.375"/>
<feComposite in2="hardAlpha" operator="out"/>
<feColorMatrix type="matrix" values="0 0 0 0 0 0 0 0 0 0 0 0 0 0 0 0 0 0 0.5 0"/>
<feBlend mode="overlay" in2="BackgroundImageFix" result="effect1_dropShadow_1417_11721"/>
<feColorMatrix in="SourceAlpha" type="matrix" values="0 0 0 0 0 0 0 0 0 0 0 0 0 0 0 0 0 0 127 0" result="hardAlpha"/>
<feOffset dy="-0.75"/>
<feGaussianBlur stdDeviation="0.75"/>
<feComposite in2="hardAlpha" operator="out"/>
<feColorMatrix type="matrix" values="0 0 0 0 1 0 0 0 0 1 0 0 0 0 1 0 0 0 0.5 0"/>
<feBlend mode="overlay" in2="effect1_dropShadow_1417_11721" result="effect2_dropShadow_1417_11721"/>
<feBlend mode="normal" in="SourceGraphic" in2="effect2_dropShadow_1417_11721" result="shape"/>
<feColorMatrix in="SourceAlpha" type="matrix" values="0 0 0 0 0 0 0 0 0 0 0 0 0 0 0 0 0 0 127 0" result="hardAlpha"/>
<feOffset/>
<feGaussianBlur stdDeviation="1"/>
<feComposite in2="hardAlpha" operator="arithmetic" k2="-1" k3="1"/>
<feColorMatrix type="matrix" values="0 0 0 0 1 0 0 0 0 1 0 0 0 0 1 0 0 0 0.7 0"/>
<feBlend mode="normal" in2="shape" result="effect3_innerShadow_1417_11721"/>
<feColorMatrix in="SourceAlpha" type="matrix" values="0 0 0 0 0 0 0 0 0 0 0 0 0 0 0 0 0 0 127 0" result="hardAlpha"/>
<feOffset dy="1"/>
<feGaussianBlur stdDeviation="0.5"/>
<feComposite in2="hardAlpha" operator="arithmetic" k2="-1" k3="1"/>
<feColorMatrix type="matrix" values="0 0 0 0 1 0 0 0 0 1 0 0 0 0 1 0 0 0 0.7 0"/>
<feBlend mode="overlay" in2="effect3_innerShadow_1417_11721" result="effect4_innerShadow_1417_11721"/>
<feColorMatrix in="SourceAlpha" type="matrix" values="0 0 0 0 0 0 0 0 0 0 0 0 0 0 0 0 0 0 127 0" result="hardAlpha"/>
<feOffset dy="-1"/>
<feGaussianBlur stdDeviation="0.5"/>
<feComposite in2="hardAlpha" operator="arithmetic" k2="-1" k3="1"/>
<feColorMatrix type="matrix" values="0 0 0 0 0 0 0 0 0 0 0 0 0 0 0 0 0 0 0.8 0"/>
<feBlend mode="overlay" in2="effect4_innerShadow_1417_11721" result="effect5_innerShadow_1417_11721"/>
<feColorMatrix in="SourceAlpha" type="matrix" values="0 0 0 0 0 0 0 0 0 0 0 0 0 0 0 0 0 0 127 0" result="hardAlpha"/>
<feOffset/>
<feGaussianBlur stdDeviation="0.175"/>
<feComposite in2="hardAlpha" operator="arithmetic" k2="-1" k3="1"/>
<feColorMatrix type="matrix" values="0 0 0 0 0 0 0 0 0 0 0 0 0 0 0 0 0 0 1 0"/>
<feBlend mode="overlay" in2="effect5_innerShadow_1417_11721" result="effect6_innerShadow_1417_11721"/>
<feColorMatrix in="SourceAlpha" type="matrix" values="0 0 0 0 0 0 0 0 0 0 0 0 0 0 0 0 0 0 127 0" result="hardAlpha"/>
<feOffset/>
<feGaussianBlur stdDeviation="0.375"/>
<feComposite in2="hardAlpha" operator="arithmetic" k2="-1" k3="1"/>
<feColorMatrix type="matrix" values="0 0 0 0 0 0 0 0 0 0 0 0 0 0 0 0 0 0 0.8 0"/>
<feBlend mode="overlay" in2="effect6_innerShadow_1417_11721" result="effect7_innerShadow_1417_11721"/>
</filter>
<linearGradient id="paint0_linear_1417_11721" x1="13.3216" y1="2.25" x2="13.3216" y2="37.4772" gradientUnits="userSpaceOnUse">
<stop stop-color="#F6F7F9"/>
<stop offset="1" stop-color="#EAECF1"/>
</linearGradient>
<linearGradient id="paint1_linear_1417_11721" x1="13.3216" y1="2.25" x2="13.3216" y2="13.6988" gradientUnits="userSpaceOnUse">
<stop stop-color="white"/>
<stop offset="1" stop-color="white" stop-opacity="0"/>
</linearGradient>
</defs>
</svg>
