<svg preserveAspectRatio="none" width="100%" height="100%" overflow="visible" style="display: block;" viewBox="0 0 35 33" fill="none" xmlns="http://www.w3.org/2000/svg">
<g id="Logo container" style="mix-blend-mode:overlay" filter="url(#filter0_ddiiiii_1417_11637)">
<g id="Union">
<mask id="path-1-inside-1_1417_11637" fill="white">
<path d="M16.6334 30.8721H11.3375C10.8832 30.872 10.5816 30.5704 10.5816 30.1191V24.0938H16.6334V30.8721ZM24.1979 24.0938V30.1191C24.1979 30.5705 23.8953 30.872 23.442 30.8721H18.1461V24.0938H24.1979ZM20.4908 14.3018C20.5429 14.3018 20.5951 14.3027 20.6471 14.3057C21.4262 14.3495 22.184 14.7207 22.609 15.3564C23.0623 16.0346 23.1395 16.9384 22.8365 17.6914L22.7613 17.9922C22.6382 18.3112 22.4499 18.5901 22.2193 18.8213H24.9547L25.1168 18.835C25.4785 18.8987 25.7104 19.1794 25.7105 19.5742V21.835C25.7104 22.286 25.4077 22.5878 24.9547 22.5879H18.1461V19.5742H16.6334V22.5879H9.82481L9.6627 22.5732C9.30114 22.5094 9.0691 22.2297 9.06895 21.835V19.5742C9.06909 19.1232 9.37184 18.8215 9.82481 18.8213H12.5357C12.3161 18.6061 12.138 18.3515 12.0191 18.0674L11.9439 17.7656C11.641 16.9367 11.7161 16.1088 12.1705 15.4307C12.5965 14.725 13.3536 14.3498 14.1324 14.3057C14.1844 14.3027 14.2366 14.3018 14.2887 14.3018C14.3499 14.3018 14.4112 14.304 14.4723 14.3086C15.3304 14.3736 16.1601 14.8897 16.5553 15.7041C16.5835 15.7622 16.6098 15.8217 16.6334 15.8828L17.3453 17.7119L17.3697 17.7734L18.1461 15.8838C18.5006 14.9652 19.3206 14.3783 20.2945 14.3086C20.3593 14.304 20.4248 14.3018 20.4908 14.3018ZM20.3463 15.8193C20.2037 15.8405 20.0669 15.8925 19.9459 15.9727C19.7844 16.0798 19.6584 16.2328 19.5836 16.4111L19.5846 16.4121L18.9029 18.0684H20.4156C20.6097 18.0683 20.8 18.0114 20.9615 17.9043C21.1229 17.7972 21.2491 17.6449 21.3238 17.4668L21.399 17.165C21.5505 16.8634 21.4753 16.5624 21.3238 16.2607C21.1245 15.9967 20.868 15.8483 20.6041 15.8154L20.4908 15.8086C20.4422 15.8086 20.3939 15.8123 20.3463 15.8193ZM14.152 15.8145C13.8385 15.8473 13.5902 15.9959 13.4576 16.2598C13.231 16.4854 13.2301 16.8624 13.3053 17.1641L13.4576 17.4658C13.5324 17.6439 13.6586 17.7963 13.8199 17.9033C13.9814 18.0103 14.1709 18.0673 14.3648 18.0674H15.8775L15.1959 16.4111L15.1979 16.4092C15.123 16.231 14.996 16.0788 14.8346 15.9717C14.7136 15.8915 14.5768 15.8395 14.4342 15.8184L14.2896 15.8076C14.2425 15.8076 14.1966 15.8098 14.152 15.8145ZM32.7291 12.1592C32.8223 12.1842 32.9096 12.2274 32.9859 12.2861C33.0622 12.3449 33.1258 12.4185 33.1734 12.502C33.2707 12.6707 33.297 12.8706 33.2467 13.0586C33.1963 13.2466 33.0736 13.4077 32.9049 13.5059V13.5068L29.0943 15.7109C29.011 15.7593 28.9185 15.7901 28.8229 15.8027C28.7272 15.8154 28.6299 15.8092 28.5367 15.7842C28.4436 15.7592 28.3561 15.716 28.2799 15.6572C28.2038 15.5986 28.14 15.5256 28.0924 15.4424C27.9951 15.2736 27.9688 15.0728 28.0191 14.8848C28.0695 14.6967 28.1922 14.5357 28.3609 14.4375L32.1725 12.2334C32.2557 12.1851 32.3475 12.1533 32.443 12.1406C32.5386 12.128 32.636 12.1342 32.7291 12.1592ZM2.32969 12.1396C2.42504 12.1523 2.51705 12.1833 2.6002 12.2314L6.41172 14.4365C6.5804 14.5347 6.70321 14.6958 6.75352 14.8838C6.80374 15.0717 6.77742 15.2718 6.68027 15.4404V15.4395C6.63259 15.523 6.5681 15.5965 6.4918 15.6553C6.41566 15.7138 6.32883 15.7573 6.23594 15.7822C6.14288 15.8072 6.04535 15.8134 5.94981 15.8008C5.85418 15.7881 5.76168 15.7564 5.67832 15.708L1.86777 13.5039C1.69905 13.4057 1.57534 13.2456 1.525 13.0576C1.47468 12.8696 1.50094 12.6688 1.59824 12.5C1.64592 12.4165 1.71045 12.3439 1.78672 12.2852C1.86303 12.2264 1.9504 12.1832 2.04356 12.1582C2.13664 12.1333 2.23413 12.127 2.32969 12.1396ZM8.47715 4.57422C8.5703 4.5992 8.65768 4.6424 8.73399 4.70117C8.81024 4.75993 8.87382 4.83354 8.92149 4.91699L11.1217 8.73438C11.219 8.90311 11.2452 9.10301 11.1949 9.29102C11.1446 9.47907 11.0219 9.64008 10.8531 9.73828C10.7699 9.78652 10.678 9.81836 10.5826 9.83105C10.4871 9.84371 10.3896 9.83646 10.2965 9.81152C10.2035 9.78658 10.1159 9.74418 10.0396 9.68555C9.96334 9.62677 9.89886 9.55323 9.85117 9.46973L7.65098 5.65234C7.55368 5.48357 7.52742 5.28277 7.57774 5.09473C7.62806 4.90667 7.75176 4.74566 7.92051 4.64746C8.00366 4.59931 8.09567 4.56833 8.19102 4.55566C8.28663 4.543 8.38401 4.54925 8.47715 4.57422ZM26.5816 4.55469C26.677 4.56739 26.769 4.5983 26.8521 4.64648C27.0209 4.74468 27.1436 4.90571 27.1939 5.09375C27.2443 5.28174 27.2179 5.48164 27.1207 5.65039L24.9205 9.46875C24.8729 9.55203 24.8091 9.62493 24.733 9.68359C24.6567 9.74236 24.5693 9.78557 24.4762 9.81055C24.383 9.83553 24.2857 9.84177 24.19 9.8291C24.0947 9.81643 24.0027 9.78549 23.9195 9.7373C23.7508 9.6391 23.6271 9.47809 23.5768 9.29004C23.5266 9.1022 23.5529 8.90203 23.65 8.7334L25.8502 4.91504C25.8979 4.83159 25.9624 4.75894 26.0387 4.7002C26.115 4.64142 26.2024 4.59822 26.2955 4.57324C26.3886 4.54832 26.4861 4.54203 26.5816 4.55469ZM17.3854 2.25C17.7899 2.25 18.1186 2.57925 18.1188 2.98535V7.39453C18.1187 7.80071 17.79 8.12988 17.3854 8.12988C16.9808 8.1298 16.653 7.80066 16.6529 7.39453V2.98535C16.6531 2.5793 16.9808 2.25008 17.3854 2.25Z"/>
</mask>
<path d="M16.6334 30.8721H11.3375C10.8832 30.872 10.5816 30.5704 10.5816 30.1191V24.0938H16.6334V30.8721ZM24.1979 24.0938V30.1191C24.1979 30.5705 23.8953 30.872 23.442 30.8721H18.1461V24.0938H24.1979ZM20.4908 14.3018C20.5429 14.3018 20.5951 14.3027 20.6471 14.3057C21.4262 14.3495 22.184 14.7207 22.609 15.3564C23.0623 16.0346 23.1395 16.9384 22.8365 17.6914L22.7613 17.9922C22.6382 18.3112 22.4499 18.5901 22.2193 18.8213H24.9547L25.1168 18.835C25.4785 18.8987 25.7104 19.1794 25.7105 19.5742V21.835C25.7104 22.286 25.4077 22.5878 24.9547 22.5879H18.1461V19.5742H16.6334V22.5879H9.82481L9.6627 22.5732C9.30114 22.5094 9.0691 22.2297 9.06895 21.835V19.5742C9.06909 19.1232 9.37184 18.8215 9.82481 18.8213H12.5357C12.3161 18.6061 12.138 18.3515 12.0191 18.0674L11.9439 17.7656C11.641 16.9367 11.7161 16.1088 12.1705 15.4307C12.5965 14.725 13.3536 14.3498 14.1324 14.3057C14.1844 14.3027 14.2366 14.3018 14.2887 14.3018C14.3499 14.3018 14.4112 14.304 14.4723 14.3086C15.3304 14.3736 16.1601 14.8897 16.5553 15.7041C16.5835 15.7622 16.6098 15.8217 16.6334 15.8828L17.3453 17.7119L17.3697 17.7734L18.1461 15.8838C18.5006 14.9652 19.3206 14.3783 20.2945 14.3086C20.3593 14.304 20.4248 14.3018 20.4908 14.3018ZM20.3463 15.8193C20.2037 15.8405 20.0669 15.8925 19.9459 15.9727C19.7844 16.0798 19.6584 16.2328 19.5836 16.4111L19.5846 16.4121L18.9029 18.0684H20.4156C20.6097 18.0683 20.8 18.0114 20.9615 17.9043C21.1229 17.7972 21.2491 17.6449 21.3238 17.4668L21.399 17.165C21.5505 16.8634 21.4753 16.5624 21.3238 16.2607C21.1245 15.9967 20.868 15.8483 20.6041 15.8154L20.4908 15.8086C20.4422 15.8086 20.3939 15.8123 20.3463 15.8193ZM14.152 15.8145C13.8385 15.8473 13.5902 15.9959 13.4576 16.2598C13.231 16.4854 13.2301 16.8624 13.3053 17.1641L13.4576 17.4658C13.5324 17.6439 13.6586 17.7963 13.8199 17.9033C13.9814 18.0103 14.1709 18.0673 14.3648 18.0674H15.8775L15.1959 16.4111L15.1979 16.4092C15.123 16.231 14.996 16.0788 14.8346 15.9717C14.7136 15.8915 14.5768 15.8395 14.4342 15.8184L14.2896 15.8076C14.2425 15.8076 14.1966 15.8098 14.152 15.8145ZM32.7291 12.1592C32.8223 12.1842 32.9096 12.2274 32.9859 12.2861C33.0622 12.3449 33.1258 12.4185 33.1734 12.502C33.2707 12.6707 33.297 12.8706 33.2467 13.0586C33.1963 13.2466 33.0736 13.4077 32.9049 13.5059V13.5068L29.0943 15.7109C29.011 15.7593 28.9185 15.7901 28.8229 15.8027C28.7272 15.8154 28.6299 15.8092 28.5367 15.7842C28.4436 15.7592 28.3561 15.716 28.2799 15.6572C28.2038 15.5986 28.14 15.5256 28.0924 15.4424C27.9951 15.2736 27.9688 15.0728 28.0191 14.8848C28.0695 14.6967 28.1922 14.5357 28.3609 14.4375L32.1725 12.2334C32.2557 12.1851 32.3475 12.1533 32.443 12.1406C32.5386 12.128 32.636 12.1342 32.7291 12.1592ZM2.32969 12.1396C2.42504 12.1523 2.51705 12.1833 2.6002 12.2314L6.41172 14.4365C6.5804 14.5347 6.70321 14.6958 6.75352 14.8838C6.80374 15.0717 6.77742 15.2718 6.68027 15.4404V15.4395C6.63259 15.523 6.5681 15.5965 6.4918 15.6553C6.41566 15.7138 6.32883 15.7573 6.23594 15.7822C6.14288 15.8072 6.04535 15.8134 5.94981 15.8008C5.85418 15.7881 5.76168 15.7564 5.67832 15.708L1.86777 13.5039C1.69905 13.4057 1.57534 13.2456 1.525 13.0576C1.47468 12.8696 1.50094 12.6688 1.59824 12.5C1.64592 12.4165 1.71045 12.3439 1.78672 12.2852C1.86303 12.2264 1.9504 12.1832 2.04356 12.1582C2.13664 12.1333 2.23413 12.127 2.32969 12.1396ZM8.47715 4.57422C8.5703 4.5992 8.65768 4.6424 8.73399 4.70117C8.81024 4.75993 8.87382 4.83354 8.92149 4.91699L11.1217 8.73438C11.219 8.90311 11.2452 9.10301 11.1949 9.29102C11.1446 9.47907 11.0219 9.64008 10.8531 9.73828C10.7699 9.78652 10.678 9.81836 10.5826 9.83105C10.4871 9.84371 10.3896 9.83646 10.2965 9.81152C10.2035 9.78658 10.1159 9.74418 10.0396 9.68555C9.96334 9.62677 9.89886 9.55323 9.85117 9.46973L7.65098 5.65234C7.55368 5.48357 7.52742 5.28277 7.57774 5.09473C7.62806 4.90667 7.75176 4.74566 7.92051 4.64746C8.00366 4.59931 8.09567 4.56833 8.19102 4.55566C8.28663 4.543 8.38401 4.54925 8.47715 4.57422ZM26.5816 4.55469C26.677 4.56739 26.769 4.5983 26.8521 4.64648C27.0209 4.74468 27.1436 4.90571 27.1939 5.09375C27.2443 5.28174 27.2179 5.48164 27.1207 5.65039L24.9205 9.46875C24.8729 9.55203 24.8091 9.62493 24.733 9.68359C24.6567 9.74236 24.5693 9.78557 24.4762 9.81055C24.383 9.83553 24.2857 9.84177 24.19 9.8291C24.0947 9.81643 24.0027 9.78549 23.9195 9.7373C23.7508 9.6391 23.6271 9.47809 23.5768 9.29004C23.5266 9.1022 23.5529 8.90203 23.65 8.7334L25.8502 4.91504C25.8979 4.83159 25.9624 4.75894 26.0387 4.7002C26.115 4.64142 26.2024 4.59822 26.2955 4.57324C26.3886 4.54832 26.4861 4.54203 26.5816 4.55469ZM17.3854 2.25C17.7899 2.25 18.1186 2.57925 18.1188 2.98535V7.39453C18.1187 7.80071 17.79 8.12988 17.3854 8.12988C16.9808 8.1298 16.653 7.80066 16.6529 7.39453V2.98535C16.6531 2.5793 16.9808 2.25008 17.3854 2.25Z" fill="url(#paint0_linear_1417_11637)"/>
<path d="M16.6334 30.8721V31.1221H16.8834V30.8721H16.6334ZM11.3375 30.8721L11.3375 31.1221H11.3375V30.8721ZM10.5816 24.0938V23.8438H10.3316V24.0938H10.5816ZM16.6334 24.0938H16.8834V23.8438H16.6334V24.0938ZM24.1979 24.0938H24.4479V23.8438H24.1979V24.0938ZM23.442 30.8721L23.442 31.1221L23.442 31.1221L23.442 30.8721ZM18.1461 30.8721H17.8961V31.1221H18.1461V30.8721ZM18.1461 24.0938V23.8438H17.8961V24.0938H18.1461ZM20.4908 14.3018L20.4908 14.0518L20.4908 14.0518L20.4908 14.3018ZM20.6471 14.3057L20.6611 14.0561L20.6471 14.3057ZM22.609 15.3564L22.8168 15.2175L22.8168 15.2175L22.609 15.3564ZM22.8365 17.6914L22.6046 17.5981L22.5982 17.6141L22.594 17.6308L22.8365 17.6914ZM22.7613 17.9922L22.9946 18.0822L23.0001 18.0678L23.0039 18.0528L22.7613 17.9922ZM22.2193 18.8213L22.0423 18.6447L21.6168 19.0713H22.2193V18.8213ZM24.9547 18.8213L24.9757 18.5722L24.9652 18.5713H24.9547V18.8213ZM25.1168 18.835L25.1602 18.5888L25.1491 18.5868L25.1378 18.5858L25.1168 18.835ZM25.7105 19.5742L25.9605 19.5742L25.9605 19.5741L25.7105 19.5742ZM25.7105 21.835L25.9605 21.8351V21.835H25.7105ZM24.9547 22.5879L24.9547 22.8379L24.9548 22.8379L24.9547 22.5879ZM18.1461 22.5879H17.8961V22.8379H18.1461V22.5879ZM18.1461 19.5742H18.3961V19.3242H18.1461V19.5742ZM16.6334 19.5742V19.3242H16.3834V19.5742H16.6334ZM16.6334 22.5879V22.8379H16.8834V22.5879H16.6334ZM9.82481 22.5879L9.80231 22.8369L9.81353 22.8379H9.82481V22.5879ZM9.6627 22.5732L9.61921 22.8194L9.62964 22.8213L9.6402 22.8222L9.6627 22.5732ZM9.06895 21.835L8.81895 21.835L8.81895 21.8351L9.06895 21.835ZM9.06895 19.5742L8.81895 19.5741V19.5742H9.06895ZM9.82481 18.8213L9.82481 18.5713L9.8247 18.5713L9.82481 18.8213ZM12.5357 18.8213V19.0713H13.1482L12.7107 18.6427L12.5357 18.8213ZM12.0191 18.0674L11.7766 18.1278L11.7812 18.1463L11.7885 18.1639L12.0191 18.0674ZM11.9439 17.7656L12.1865 17.7052L12.1833 17.6923L12.1788 17.6798L11.9439 17.7656ZM12.1705 15.4307L12.3784 15.57L12.3845 15.5599L12.1705 15.4307ZM14.1324 14.3057L14.1183 14.0561L14.1324 14.3057ZM14.2887 14.3018L14.2887 14.0518H14.2887V14.3018ZM14.4723 14.3086L14.4912 14.0593L14.4723 14.3086ZM16.5553 15.7041L16.3304 15.8132L16.5553 15.7041ZM16.6334 15.8828L16.4002 15.973L16.4004 15.9735L16.6334 15.8828ZM17.3453 17.7119L17.1123 17.8026L17.1129 17.8041L17.3453 17.7119ZM17.3697 17.7734L17.1374 17.8656L17.3657 18.4411L17.601 17.8684L17.3697 17.7734ZM18.1461 15.8838L18.3774 15.9788L18.3793 15.9738L18.1461 15.8838ZM20.2945 14.3086L20.3124 14.558L20.2945 14.3086ZM20.3463 15.8193L20.3096 15.572L20.3463 15.8193ZM19.9459 15.9727L19.8078 15.7643L19.8077 15.7643L19.9459 15.9727ZM19.5836 16.4111L19.3531 16.3144L19.2881 16.4692L19.4068 16.5879L19.5836 16.4111ZM19.5846 16.4121L19.8158 16.5073L19.8792 16.3532L19.7613 16.2353L19.5846 16.4121ZM18.9029 18.0684L18.6717 17.9732L18.5297 18.3184H18.9029V18.0684ZM20.4156 18.0684L20.4156 18.3184L20.4157 18.3184L20.4156 18.0684ZM20.9615 17.9043L21.0997 18.1126L21.0998 18.1126L20.9615 17.9043ZM21.3238 17.4668L21.5543 17.5636L21.5618 17.5459L21.5664 17.5272L21.3238 17.4668ZM21.399 17.165L21.1756 17.0528L21.1632 17.0777L21.1564 17.1046L21.399 17.165ZM21.3238 16.2607L21.5472 16.1486L21.537 16.1282L21.5233 16.1101L21.3238 16.2607ZM20.6041 15.8154L20.635 15.5673L20.6271 15.5664L20.6192 15.5659L20.6041 15.8154ZM20.4908 15.8086L20.5059 15.559L20.4983 15.5586L20.4907 15.5586L20.4908 15.8086ZM14.152 15.8145L14.1259 15.5658L14.152 15.8145ZM13.4576 16.2598L13.634 16.4369L13.6628 16.4083L13.681 16.372L13.4576 16.2598ZM13.3053 17.1641L13.0627 17.2245L13.0695 17.2517L13.0821 17.2767L13.3053 17.1641ZM13.4576 17.4658L13.6881 17.369L13.6847 17.3609L13.6808 17.3532L13.4576 17.4658ZM13.8199 17.9033L13.6817 18.1116L13.6818 18.1117L13.8199 17.9033ZM14.3648 18.0674L14.3648 18.3174H14.3648V18.0674ZM15.8775 18.0674V18.3174H16.2508L16.1087 17.9722L15.8775 18.0674ZM15.1959 16.4111L15.0191 16.2344L14.9013 16.3522L14.9647 16.5063L15.1959 16.4111ZM15.1979 16.4092L15.3746 16.586L15.4934 16.4672L15.4284 16.3124L15.1979 16.4092ZM14.8346 15.9717L14.9728 15.7634L14.9727 15.7633L14.8346 15.9717ZM14.4342 15.8184L14.4708 15.5711L14.4618 15.5697L14.4527 15.569L14.4342 15.8184ZM14.2896 15.8076L14.3082 15.5583L14.2989 15.5576L14.2896 15.5576L14.2896 15.8076ZM32.7291 12.1592L32.7939 11.9177L32.7938 11.9177L32.7291 12.1592ZM32.9859 12.2861L33.1385 12.0881L33.1385 12.0881L32.9859 12.2861ZM33.1734 12.502L32.9563 12.6259L32.9568 12.6268L33.1734 12.502ZM33.2467 13.0586L33.4882 13.1232L33.4882 13.1232L33.2467 13.0586ZM32.9049 13.5059L32.7791 13.2898L32.6549 13.3621V13.5059H32.9049ZM32.9049 13.5068L33.0301 13.7232L33.1549 13.651V13.5068H32.9049ZM29.0943 15.7109L28.9692 15.4945L28.9689 15.4947L29.0943 15.7109ZM28.8229 15.8027L28.8557 16.0506L28.8557 16.0506L28.8229 15.8027ZM28.5367 15.7842L28.4719 16.0256L28.472 16.0256L28.5367 15.7842ZM28.2799 15.6572L28.1272 15.8552L28.1273 15.8553L28.2799 15.6572ZM28.0924 15.4424L28.3094 15.3183L28.309 15.3175L28.0924 15.4424ZM28.0191 14.8848L27.7776 14.8201L27.7776 14.8201L28.0191 14.8848ZM28.3609 14.4375L28.2358 14.2211L28.2352 14.2214L28.3609 14.4375ZM32.1725 12.2334L32.2976 12.4498L32.2979 12.4497L32.1725 12.2334ZM32.443 12.1406L32.4101 11.8928L32.4101 11.8928L32.443 12.1406ZM2.32969 12.1396L2.36268 11.8918L2.36252 11.8918L2.32969 12.1396ZM2.6002 12.2314L2.47483 12.4477L2.47501 12.4478L2.6002 12.2314ZM6.41172 14.4365L6.53751 14.2205L6.53691 14.2201L6.41172 14.4365ZM6.75352 14.8838L6.99504 14.8192L6.99502 14.8192L6.75352 14.8838ZM6.68027 15.4404H6.43027V16.3754L6.89691 15.5652L6.68027 15.4404ZM6.68027 15.4395H6.93027V14.4976L6.46319 15.3155L6.68027 15.4395ZM6.4918 15.6553L6.64422 15.8534L6.64435 15.8533L6.4918 15.6553ZM6.23594 15.7822L6.30069 16.0237L6.3008 16.0237L6.23594 15.7822ZM5.94981 15.8008L5.91698 16.0486L5.91707 16.0486L5.94981 15.8008ZM5.67832 15.708L5.80378 15.4918L5.8035 15.4916L5.67832 15.708ZM1.86777 13.5039L1.74203 13.72L1.7426 13.7203L1.86777 13.5039ZM1.525 13.0576L1.2835 13.1222L1.28351 13.1223L1.525 13.0576ZM1.59824 12.5L1.81483 12.6249L1.81532 12.624L1.59824 12.5ZM1.78672 12.2852L1.63417 12.0871L1.63415 12.0871L1.78672 12.2852ZM2.04356 12.1582L1.97888 11.9167L1.97881 11.9167L2.04356 12.1582ZM8.47715 4.57422L8.5419 4.33275L8.54189 4.33275L8.47715 4.57422ZM8.73399 4.70117L8.88658 4.50314L8.88654 4.50311L8.73399 4.70117ZM8.92149 4.91699L8.7044 5.04098L8.70489 5.04183L8.92149 4.91699ZM11.1217 8.73438L10.9051 8.85921L10.9051 8.85924L11.1217 8.73438ZM11.1949 9.29102L11.4364 9.35564L11.4364 9.35558L11.1949 9.29102ZM10.8531 9.73828L10.9785 9.95456L10.9789 9.95436L10.8531 9.73828ZM10.5826 9.83105L10.6154 10.0789L10.6156 10.0789L10.5826 9.83105ZM10.2965 9.81152L10.2317 10.053L10.2318 10.053L10.2965 9.81152ZM10.0396 9.68555L9.8871 9.88361L9.88722 9.8837L10.0396 9.68555ZM9.85117 9.46973L10.0683 9.34574L10.0678 9.34489L9.85117 9.46973ZM7.65098 5.65234L7.86758 5.5275L7.86756 5.52748L7.65098 5.65234ZM7.57774 5.09473L7.33623 5.0301L7.33623 5.03011L7.57774 5.09473ZM7.92051 4.64746L7.79522 4.43112L7.79477 4.43138L7.92051 4.64746ZM8.19102 4.55566L8.15819 4.30783L8.1581 4.30784L8.19102 4.55566ZM26.5816 4.55469L26.6146 4.30688L26.6145 4.30685L26.5816 4.55469ZM26.8521 4.64648L26.9779 4.43041L26.9775 4.43019L26.8521 4.64648ZM27.1939 5.09375L27.4354 5.02912L27.4354 5.02911L27.1939 5.09375ZM27.1207 5.65039L27.3373 5.77521L27.3373 5.7752L27.1207 5.65039ZM24.9205 9.46875L24.7039 9.34393L24.7035 9.34465L24.9205 9.46875ZM24.733 9.68359L24.8856 9.88166L24.8856 9.88159L24.733 9.68359ZM24.4762 9.81055L24.5409 10.052L24.5409 10.052L24.4762 9.81055ZM24.19 9.8291L24.1571 10.0769L24.1572 10.0769L24.19 9.8291ZM23.9195 9.7373L23.7938 9.95338L23.7942 9.95363L23.9195 9.7373ZM23.5768 9.29004L23.3352 9.35458L23.3353 9.35467L23.5768 9.29004ZM23.65 8.7334L23.4334 8.60858L23.4333 8.60867L23.65 8.7334ZM25.8502 4.91504L26.0668 5.03986L26.0673 5.03906L25.8502 4.91504ZM26.0387 4.7002L25.8861 4.50213L25.8861 4.50214L26.0387 4.7002ZM26.2955 4.57324L26.2308 4.33175L26.2308 4.33177L26.2955 4.57324ZM17.3854 2.25L17.3854 2L17.3853 2L17.3854 2.25ZM18.1188 2.98535L18.3688 2.98535L18.3688 2.98527L18.1188 2.98535ZM18.1188 7.39453L18.3688 7.39456V7.39453H18.1188ZM17.3854 8.12988L17.3853 8.37988H17.3854V8.12988ZM16.6529 7.39453L16.4029 7.39453L16.4029 7.39456L16.6529 7.39453ZM16.6529 2.98535L16.4029 2.98527V2.98535H16.6529ZM16.6334 30.8721V30.6221H11.3375V30.8721V31.1221H16.6334V30.8721ZM11.3375 30.8721L11.3375 30.6221C11.1669 30.622 11.0446 30.5665 10.9657 30.4878C10.8869 30.4091 10.8316 30.2878 10.8316 30.1191H10.5816H10.3316C10.3316 30.4018 10.4272 30.6568 10.6127 30.8418C10.7981 31.0268 11.0538 31.122 11.3375 31.1221L11.3375 30.8721ZM10.5816 30.1191H10.8316V24.0938H10.5816H10.3316V30.1191H10.5816ZM10.5816 24.0938V24.3438H16.6334V24.0938V23.8438H10.5816V24.0938ZM16.6334 24.0938H16.3834V30.8721H16.6334H16.8834V24.0938H16.6334ZM24.1979 24.0938H23.9479V30.1191H24.1979H24.4479V24.0938H24.1979ZM24.1979 30.1191H23.9479C23.9479 30.2876 23.8925 30.409 23.8135 30.4877C23.7343 30.5666 23.612 30.6221 23.442 30.6221L23.442 30.8721L23.442 31.1221C23.7253 31.1221 23.9809 31.0267 24.1663 30.8419C24.3519 30.6571 24.4479 30.402 24.4479 30.1191H24.1979ZM23.442 30.8721V30.6221H18.1461V30.8721V31.1221H23.442V30.8721ZM18.1461 30.8721H18.3961V24.0938H18.1461H17.8961V30.8721H18.1461ZM18.1461 24.0938V24.3438H24.1979V24.0938V23.8438H18.1461V24.0938ZM20.4908 14.3018V14.5518C20.5399 14.5518 20.5872 14.5527 20.633 14.5553L20.6471 14.3057L20.6611 14.0561C20.6031 14.0528 20.5459 14.0518 20.4908 14.0518V14.3018ZM20.6471 14.3057L20.633 14.5553C21.3481 14.5955 22.0272 14.936 22.4011 15.4954L22.609 15.3564L22.8168 15.2175C22.3408 14.5054 21.5043 14.1035 20.6611 14.0561L20.6471 14.3057ZM22.609 15.3564L22.4011 15.4954C22.8065 16.1018 22.878 16.9184 22.6046 17.5981L22.8365 17.6914L23.0685 17.7847C23.4009 16.9585 23.318 15.9673 22.8168 15.2175L22.609 15.3564ZM22.8365 17.6914L22.594 17.6308L22.5188 17.9316L22.7613 17.9922L23.0039 18.0528L23.0791 17.752L22.8365 17.6914ZM22.7613 17.9922L22.5281 17.9022C22.4183 18.1867 22.25 18.4366 22.0423 18.6447L22.2193 18.8213L22.3963 18.9978C22.6499 18.7436 22.8581 18.4357 22.9946 18.0822L22.7613 17.9922ZM22.2193 18.8213V19.0713H24.9547V18.8213V18.5713H22.2193V18.8213ZM24.9547 18.8213L24.9337 19.0704L25.0958 19.0841L25.1168 18.835L25.1378 18.5858L24.9757 18.5722L24.9547 18.8213ZM25.1168 18.835L25.0734 19.0812C25.1998 19.1034 25.2927 19.1608 25.355 19.2377C25.4177 19.3152 25.4605 19.4265 25.4605 19.5743L25.7105 19.5742L25.9605 19.5741C25.9605 19.3271 25.8873 19.1007 25.7436 18.9231C25.5994 18.7451 25.3956 18.6303 25.1602 18.5888L25.1168 18.835ZM25.7105 19.5742H25.4605V21.835H25.7105H25.9605V19.5742H25.7105ZM25.7105 21.835L25.4605 21.8349C25.4605 22.0031 25.4051 22.1246 25.326 22.2034C25.2468 22.2823 25.1244 22.3378 24.9546 22.3379L24.9547 22.5879L24.9548 22.8379C25.238 22.8378 25.4935 22.7424 25.6789 22.5576C25.8644 22.3728 25.9604 22.1178 25.9605 21.8351L25.7105 21.835ZM24.9547 22.5879V22.3379H18.1461V22.5879V22.8379H24.9547V22.5879ZM18.1461 22.5879H18.3961V19.5742H18.1461H17.8961V22.5879H18.1461ZM18.1461 19.5742V19.3242H16.6334V19.5742V19.8242H18.1461V19.5742ZM16.6334 19.5742H16.3834V22.5879H16.6334H16.8834V19.5742H16.6334ZM16.6334 22.5879V22.3379H9.82481V22.5879V22.8379H16.6334V22.5879ZM9.82481 22.5879L9.8473 22.3389L9.6852 22.3243L9.6627 22.5732L9.6402 22.8222L9.80231 22.8369L9.82481 22.5879ZM9.6627 22.5732L9.70619 22.3271C9.57962 22.3047 9.48665 22.2474 9.42444 22.1707C9.36184 22.0935 9.319 21.9825 9.31895 21.8349L9.06895 21.835L8.81895 21.8351C8.81904 22.0821 8.8923 22.3084 9.03614 22.4857C9.18038 22.6635 9.38421 22.7779 9.61921 22.8194L9.6627 22.5732ZM9.06895 21.835H9.31895V19.5742H9.06895H8.81895V21.835H9.06895ZM9.06895 19.5742L9.31895 19.5743C9.319 19.4061 9.37438 19.2846 9.45352 19.2058C9.53274 19.1269 9.65512 19.0714 9.82491 19.0713L9.82481 18.8213L9.8247 18.5713C9.54153 18.5714 9.28606 18.6668 9.10063 18.8516C8.91511 19.0364 8.81904 19.2914 8.81895 19.5741L9.06895 19.5742ZM9.82481 18.8213V19.0713H12.5357V18.8213V18.5713H9.82481V18.8213ZM12.5357 18.8213L12.7107 18.6427C12.5131 18.4492 12.3548 18.222 12.2498 17.9709L12.0191 18.0674L11.7885 18.1639C11.9212 18.481 12.1191 18.7631 12.3608 18.9999L12.5357 18.8213ZM12.0191 18.0674L12.2617 18.0069L12.1865 17.7052L11.9439 17.7656L11.7014 17.8261L11.7766 18.1278L12.0191 18.0674ZM11.9439 17.7656L12.1788 17.6798C11.9 16.917 11.9733 16.174 12.3782 15.5698L12.1705 15.4307L11.9628 15.2915C11.4589 16.0435 11.3821 16.9565 11.7091 17.8514L11.9439 17.7656ZM12.1705 15.4307L12.3845 15.5599C12.7608 14.9367 13.4354 14.5956 14.1466 14.5553L14.1324 14.3057L14.1183 14.0561C13.2718 14.104 12.4323 14.5133 11.9565 15.3015L12.1705 15.4307ZM14.1324 14.3057L14.1466 14.5553C14.1923 14.5527 14.2395 14.5518 14.2887 14.5518V14.3018V14.0518C14.2337 14.0518 14.1765 14.0528 14.1183 14.0561L14.1324 14.3057ZM14.2887 14.3018L14.2887 14.5518C14.3439 14.5518 14.3989 14.5537 14.4534 14.5579L14.4723 14.3086L14.4912 14.0593C14.4235 14.0542 14.3559 14.0518 14.2887 14.0518L14.2887 14.3018ZM14.4723 14.3086L14.4534 14.5579C15.2292 14.6167 15.9767 15.0845 16.3304 15.8132L16.5553 15.7041L16.7802 15.595C16.3434 14.6949 15.4315 14.1306 14.4912 14.0593L14.4723 14.3086ZM16.5553 15.7041L16.3304 15.8132C16.356 15.866 16.3794 15.9191 16.4002 15.973L16.6334 15.8828L16.8666 15.7926C16.8401 15.7243 16.811 15.6584 16.7802 15.595L16.5553 15.7041ZM16.6334 15.8828L16.4004 15.9735L17.1123 17.8026L17.3453 17.7119L17.5783 17.6212L16.8664 15.7921L16.6334 15.8828ZM17.3453 17.7119L17.1129 17.8041L17.1374 17.8656L17.3697 17.7734L17.6021 17.6812L17.5777 17.6197L17.3453 17.7119ZM17.3697 17.7734L17.601 17.8684L18.3773 15.9788L18.1461 15.8838L17.9149 15.7888L17.1385 17.6784L17.3697 17.7734ZM18.1461 15.8838L18.3793 15.9738C18.6979 15.1483 19.4321 14.6209 20.3124 14.558L20.2945 14.3086L20.2767 14.0592C19.2091 14.1356 18.3033 14.7821 17.9129 15.7938L18.1461 15.8838ZM20.2945 14.3086L20.3124 14.558C20.3708 14.5538 20.4303 14.5518 20.4908 14.5518L20.4908 14.3018L20.4908 14.0518C20.4192 14.0518 20.3478 14.0541 20.2767 14.0592L20.2945 14.3086ZM20.3463 15.8193L20.3096 15.572C20.1312 15.5985 19.9597 15.6636 19.8078 15.7643L19.9459 15.9727L20.084 16.181C20.1741 16.1214 20.2762 16.0825 20.383 16.0666L20.3463 15.8193ZM19.9459 15.9727L19.8077 15.7643C19.6048 15.8989 19.4468 16.0909 19.3531 16.3144L19.5836 16.4111L19.8141 16.5078C19.87 16.3747 19.964 16.2607 20.0841 16.181L19.9459 15.9727ZM19.5836 16.4111L19.4068 16.5879L19.4078 16.5889L19.5846 16.4121L19.7613 16.2353L19.7604 16.2344L19.5836 16.4111ZM19.5846 16.4121L19.3534 16.317L18.6717 17.9732L18.9029 18.0684L19.1341 18.1635L19.8158 16.5073L19.5846 16.4121ZM18.9029 18.0684V18.3184H20.4156V18.0684V17.8184H18.9029V18.0684ZM20.4156 18.0684L20.4157 18.3184C20.6584 18.3183 20.8968 18.2472 21.0997 18.1126L20.9615 17.9043L20.8233 17.696C20.7032 17.7757 20.561 17.8183 20.4156 17.8184L20.4156 18.0684ZM20.9615 17.9043L21.0998 18.1126C21.302 17.9783 21.4604 17.7874 21.5543 17.5636L21.3238 17.4668L21.0933 17.37C21.0377 17.5025 20.9437 17.6161 20.8233 17.696L20.9615 17.9043ZM21.3238 17.4668L21.5664 17.5272L21.6416 17.2255L21.399 17.165L21.1564 17.1046L21.0812 17.4063L21.3238 17.4668ZM21.399 17.165L21.6224 17.2772C21.8275 16.8688 21.7109 16.4744 21.5472 16.1486L21.3238 16.2607L21.1004 16.3729C21.2397 16.6503 21.2735 16.858 21.1756 17.0528L21.399 17.165ZM21.3238 16.2607L21.5233 16.1101C21.2883 15.7988 20.9739 15.6096 20.635 15.5673L20.6041 15.8154L20.5732 16.0635C20.7622 16.0871 20.9606 16.1946 21.1243 16.4114L21.3238 16.2607ZM20.6041 15.8154L20.6192 15.5659L20.5059 15.559L20.4908 15.8086L20.4758 16.0581L20.589 16.065L20.6041 15.8154ZM20.4908 15.8086L20.4907 15.5586C20.4297 15.5586 20.3692 15.5632 20.3096 15.572L20.3463 15.8193L20.383 16.0666C20.4187 16.0613 20.4548 16.0586 20.4909 16.0586L20.4908 15.8086ZM14.152 15.8145L14.1259 15.5658C13.7444 15.6058 13.4121 15.7937 13.2343 16.1475L13.4576 16.2598L13.681 16.372C13.7684 16.1982 13.9326 16.0888 14.178 16.0631L14.152 15.8145ZM13.4576 16.2598L13.2812 16.0826C12.9565 16.4059 12.9822 16.9017 13.0627 17.2245L13.3053 17.1641L13.5479 17.1036C13.478 16.8232 13.5054 16.565 13.634 16.4369L13.4576 16.2598ZM13.3053 17.1641L13.0821 17.2767L13.2344 17.5785L13.4576 17.4658L13.6808 17.3532L13.5284 17.0514L13.3053 17.1641ZM13.4576 17.4658L13.2271 17.5627C13.3211 17.7862 13.4794 17.9774 13.6817 18.1116L13.8199 17.9033L13.9581 17.695C13.8378 17.6152 13.7438 17.5015 13.6881 17.369L13.4576 17.4658ZM13.8199 17.9033L13.6818 18.1117C13.8843 18.2459 14.1219 18.3173 14.3648 18.3174L14.3648 18.0674L14.3649 17.8174C14.2199 17.8173 14.0784 17.7747 13.958 17.6949L13.8199 17.9033ZM14.3648 18.0674V18.3174H15.8775V18.0674V17.8174H14.3648V18.0674ZM15.8775 18.0674L16.1087 17.9722L15.4271 16.316L15.1959 16.4111L14.9647 16.5063L15.6464 18.1625L15.8775 18.0674ZM15.1959 16.4111L15.3727 16.5879L15.3746 16.586L15.1979 16.4092L15.0211 16.2324L15.0191 16.2344L15.1959 16.4111ZM15.1979 16.4092L15.4284 16.3124C15.3341 16.0879 15.1746 15.8973 14.9728 15.7634L14.8346 15.9717L14.6964 16.18C14.8174 16.2603 14.9119 16.374 14.9673 16.5059L15.1979 16.4092ZM14.8346 15.9717L14.9727 15.7633C14.8208 15.6626 14.6493 15.5975 14.4708 15.5711L14.4342 15.8184L14.3975 16.0657C14.5042 16.0815 14.6063 16.1203 14.6965 16.1801L14.8346 15.9717ZM14.4342 15.8184L14.4527 15.569L14.3082 15.5583L14.2896 15.8076L14.2711 16.0569L14.4157 16.0677L14.4342 15.8184ZM14.2896 15.8076L14.2896 15.5576C14.235 15.5576 14.1802 15.5601 14.1259 15.5658L14.152 15.8145L14.178 16.0631C14.2129 16.0594 14.2501 16.0576 14.2897 16.0576L14.2896 15.8076ZM32.7291 12.1592L32.6644 12.4006C32.7257 12.4171 32.7832 12.4455 32.8334 12.4842L32.9859 12.2861L33.1385 12.0881C33.0361 12.0092 32.9188 11.9512 32.7939 11.9177L32.7291 12.1592ZM32.9859 12.2861L32.8334 12.4842C32.8829 12.5223 32.9247 12.5706 32.9564 12.6259L33.1734 12.502L33.3905 12.378C33.3268 12.2664 33.2415 12.1675 33.1385 12.0881L32.9859 12.2861ZM33.1734 12.502L32.9568 12.6268C33.021 12.7382 33.0384 12.87 33.0052 12.994L33.2467 13.0586L33.4882 13.1232C33.5556 12.8712 33.5203 12.6032 33.3901 12.3771L33.1734 12.502ZM33.2467 13.0586L33.0052 12.9939C32.9719 13.1184 32.8907 13.2249 32.7791 13.2898L32.9049 13.5059L33.0306 13.7219C33.2566 13.5904 33.4208 13.3749 33.4882 13.1232L33.2467 13.0586ZM32.9049 13.5059H32.6549V13.5068H32.9049H33.1549V13.5059H32.9049ZM32.9049 13.5068L32.7797 13.2904L28.9692 15.4945L29.0943 15.7109L29.2195 15.9273L33.0301 13.7232L32.9049 13.5068ZM29.0943 15.7109L28.9689 15.4947C28.9152 15.5259 28.8543 15.5464 28.79 15.5549L28.8229 15.8027L28.8557 16.0506C28.9826 16.0338 29.1068 15.9927 29.2198 15.9272L29.0943 15.7109ZM28.8229 15.8027L28.79 15.5549C28.7268 15.5633 28.6626 15.5591 28.6015 15.5427L28.5367 15.7842L28.472 16.0256C28.5971 16.0592 28.7276 16.0675 28.8557 16.0506L28.8229 15.8027ZM28.5367 15.7842L28.6015 15.5427C28.5402 15.5263 28.4825 15.4977 28.4324 15.4592L28.2799 15.6572L28.1273 15.8553C28.2298 15.9342 28.3471 15.9921 28.4719 16.0256L28.5367 15.7842ZM28.2799 15.6572L28.4325 15.4592C28.3823 15.4205 28.3404 15.3726 28.3094 15.3183L28.0924 15.4424L27.8754 15.5665C27.9395 15.6787 28.0254 15.7767 28.1272 15.8552L28.2799 15.6572ZM28.0924 15.4424L28.309 15.3175C28.2448 15.2062 28.2274 15.0736 28.2606 14.9494L28.0191 14.8848L27.7776 14.8201C27.7102 15.0721 27.7454 15.341 27.8758 15.5672L28.0924 15.4424ZM28.0191 14.8848L28.2606 14.9494C28.2939 14.825 28.3752 14.7185 28.4867 14.6536L28.3609 14.4375L28.2352 14.2214C28.0092 14.3529 27.845 14.5685 27.7776 14.8201L28.0191 14.8848ZM28.3609 14.4375L28.4861 14.6539L32.2976 12.4498L32.1725 12.2334L32.0473 12.017L28.2358 14.2211L28.3609 14.4375ZM32.1725 12.2334L32.2979 12.4497C32.3534 12.4175 32.4138 12.3967 32.4759 12.3884L32.443 12.1406L32.4101 11.8928C32.2811 11.9099 32.158 11.9528 32.047 12.0171L32.1725 12.2334ZM32.443 12.1406L32.4758 12.3885C32.539 12.3801 32.6032 12.3843 32.6644 12.4007L32.7291 12.1592L32.7938 11.9177C32.6688 11.8842 32.5382 11.8758 32.4101 11.8928L32.443 12.1406ZM2.32969 12.1396L2.29669 12.3875C2.36032 12.3959 2.42082 12.4164 2.47483 12.4477L2.6002 12.2314L2.72556 12.0152C2.61328 11.9501 2.48977 11.9088 2.36268 11.8918L2.32969 12.1396ZM2.6002 12.2314L2.47501 12.4478L6.28653 14.6529L6.41172 14.4365L6.53691 14.2201L2.72539 12.015L2.6002 12.2314ZM6.41172 14.4365L6.28593 14.6526C6.39748 14.7175 6.47874 14.8241 6.51201 14.9484L6.75352 14.8838L6.99502 14.8192C6.92767 14.5675 6.76333 14.3519 6.53751 14.2205L6.41172 14.4365ZM6.75352 14.8838L6.512 14.9483C6.54512 15.0723 6.52779 15.2043 6.46364 15.3157L6.68027 15.4404L6.89691 15.5652C7.02705 15.3392 7.06236 15.0711 6.99504 14.8192L6.75352 14.8838ZM6.68027 15.4404H6.93027V15.4395H6.68027H6.43027V15.4404H6.68027ZM6.68027 15.4395L6.46319 15.3155C6.43218 15.3698 6.3898 15.4183 6.33925 15.4572L6.4918 15.6553L6.64435 15.8533C6.74641 15.7747 6.83299 15.6761 6.89736 15.5634L6.68027 15.4395ZM6.4918 15.6553L6.33937 15.4571C6.28866 15.4961 6.23145 15.5246 6.17108 15.5408L6.23594 15.7822L6.3008 16.0237C6.4262 15.99 6.54267 15.9316 6.64422 15.8534L6.4918 15.6553ZM6.23594 15.7822L6.17119 15.5408C6.11017 15.5571 6.04577 15.5613 5.98254 15.5529L5.94981 15.8008L5.91707 16.0486C6.04492 16.0655 6.17559 16.0572 6.30069 16.0237L6.23594 15.7822ZM5.94981 15.8008L5.98263 15.5529C5.91997 15.5446 5.85891 15.5238 5.80378 15.4918L5.67832 15.708L5.55286 15.9242C5.66444 15.989 5.78838 16.0316 5.91698 16.0486L5.94981 15.8008ZM5.67832 15.708L5.8035 15.4916L1.99295 13.2875L1.86777 13.5039L1.7426 13.7203L5.55315 15.9244L5.67832 15.708ZM1.86777 13.5039L1.99351 13.2878C1.88091 13.2223 1.79948 13.1161 1.76649 12.993L1.525 13.0576L1.28351 13.1223C1.35121 13.3751 1.5172 13.5891 1.74203 13.72L1.86777 13.5039ZM1.525 13.0576L1.7665 12.993C1.73327 12.8688 1.75065 12.7362 1.81483 12.6249L1.59824 12.5L1.38166 12.3751C1.25123 12.6014 1.21608 12.8703 1.2835 13.1222L1.525 13.0576ZM1.59824 12.5L1.81532 12.624C1.84576 12.5707 1.88784 12.5228 1.93929 12.4832L1.78672 12.2852L1.63415 12.0871C1.53307 12.165 1.44607 12.2624 1.38117 12.376L1.59824 12.5ZM1.78672 12.2852L1.93927 12.4832C1.98945 12.4446 2.04698 12.4161 2.10831 12.3997L2.04356 12.1582L1.97881 11.9167C1.85383 11.9502 1.73661 12.0082 1.63417 12.0871L1.78672 12.2852ZM2.04356 12.1582L2.10823 12.3997C2.16944 12.3833 2.23379 12.3791 2.29686 12.3875L2.32969 12.1396L2.36252 11.8918C2.23448 11.8749 2.10385 11.8832 1.97888 11.9167L2.04356 12.1582ZM8.47715 4.57422L8.4124 4.81569C8.47373 4.83213 8.53126 4.86059 8.58144 4.89923L8.73399 4.70117L8.88654 4.50311C8.7841 4.42421 8.66688 4.36626 8.5419 4.33275L8.47715 4.57422ZM8.73399 4.70117L8.58139 4.8992C8.63092 4.93737 8.67278 4.98563 8.7044 5.04098L8.92149 4.91699L9.13857 4.79301C9.07486 4.68145 8.98955 4.58249 8.88658 4.50314L8.73399 4.70117ZM8.92149 4.91699L8.70489 5.04183L10.9051 8.85921L11.1217 8.73438L11.3383 8.60954L9.13808 4.79215L8.92149 4.91699ZM11.1217 8.73438L10.9051 8.85924C10.9693 8.97058 10.9866 9.10235 10.9534 9.22645L11.1949 9.29102L11.4364 9.35558C11.5038 9.10367 11.4686 8.83564 11.3383 8.60951L11.1217 8.73438ZM11.1949 9.29102L10.9534 9.22639C10.9201 9.35081 10.8389 9.4573 10.7274 9.5222L10.8531 9.73828L10.9789 9.95436C11.2048 9.82287 11.3691 9.60734 11.4364 9.35564L11.1949 9.29102ZM10.8531 9.73828L10.7277 9.52201C10.6723 9.55416 10.6117 9.57498 10.5496 9.58324L10.5826 9.83105L10.6156 10.0789C10.7444 10.0617 10.8676 10.0189 10.9785 9.95456L10.8531 9.73828ZM10.5826 9.83105L10.5498 9.58322C10.4884 9.59135 10.4241 9.58688 10.3612 9.57004L10.2965 9.81152L10.2318 10.053C10.3551 10.086 10.4857 10.0961 10.6154 10.0789L10.5826 9.83105ZM10.2965 9.81152L10.3612 9.57005C10.2986 9.55327 10.2411 9.52511 10.1921 9.48739L10.0396 9.68555L9.88722 9.8837C9.99064 9.96326 10.1083 10.0199 10.2317 10.053L10.2965 9.81152ZM10.0396 9.68555L10.1922 9.48749C10.1416 9.44855 10.0993 9.40003 10.0683 9.34574L9.85117 9.46973L9.63408 9.59371C9.69845 9.70642 9.78504 9.805 9.8871 9.88361L10.0396 9.68555ZM9.85117 9.46973L10.0678 9.34489L7.86758 5.5275L7.65098 5.65234L7.43438 5.77718L9.63457 9.59457L9.85117 9.46973ZM7.65098 5.65234L7.86756 5.52748C7.80339 5.41617 7.78601 5.28353 7.81924 5.15934L7.57774 5.09473L7.33623 5.03011C7.26883 5.28201 7.30396 5.55096 7.43439 5.77721L7.65098 5.65234ZM7.57774 5.09473L7.81924 5.15935C7.85234 5.03564 7.93408 4.92881 8.04625 4.86354L7.92051 4.64746L7.79477 4.43138C7.56944 4.56251 7.40378 4.7777 7.33623 5.0301L7.57774 5.09473ZM7.92051 4.64746L8.0458 4.8638C8.09996 4.83243 8.16049 4.81191 8.22393 4.80349L8.19102 4.55566L8.1581 4.30784C8.03084 4.32474 7.90736 4.36618 7.79522 4.43112L7.92051 4.64746ZM8.19102 4.55566L8.22385 4.8035C8.28702 4.79513 8.35123 4.79929 8.41241 4.81569L8.47715 4.57422L8.54189 4.33275C8.41679 4.29921 8.28625 4.29087 8.15819 4.30783L8.19102 4.55566ZM26.5816 4.55469L26.5486 4.8025C26.6123 4.81097 26.6728 4.83148 26.7268 4.86278L26.8521 4.64648L26.9775 4.43019C26.8652 4.36511 26.7417 4.3238 26.6146 4.30688L26.5816 4.55469ZM26.8521 4.64648L26.7264 4.86256C26.8379 4.92746 26.9191 5.03397 26.9524 5.15839L27.1939 5.09375L27.4354 5.02911C27.3681 4.77745 27.2039 4.5619 26.9779 4.43041L26.8521 4.64648ZM27.1939 5.09375L26.9524 5.15838C26.9856 5.28234 26.9683 5.41412 26.9041 5.52559L27.1207 5.65039L27.3373 5.7752C27.4676 5.54916 27.5029 5.28115 27.4354 5.02912L27.1939 5.09375ZM27.1207 5.65039L26.9041 5.52558L24.7039 9.34393L24.9205 9.46875L25.1371 9.59357L27.3373 5.77521L27.1207 5.65039ZM24.9205 9.46875L24.7035 9.34465C24.6724 9.39897 24.6306 9.44685 24.5804 9.48559L24.733 9.68359L24.8856 9.88159C24.9876 9.80301 25.0734 9.70509 25.1375 9.59285L24.9205 9.46875ZM24.733 9.68359L24.5805 9.48553C24.5303 9.52417 24.4727 9.55263 24.4114 9.56908L24.4762 9.81055L24.5409 10.052C24.6659 10.0185 24.7831 9.96055 24.8856 9.88166L24.733 9.68359ZM24.4762 9.81055L24.4114 9.56908C24.3502 9.58548 24.2861 9.58964 24.2229 9.58127L24.19 9.8291L24.1572 10.0769C24.2853 10.0939 24.4158 10.0856 24.5409 10.052L24.4762 9.81055ZM24.19 9.8291L24.223 9.58128C24.1595 9.57284 24.099 9.55234 24.0449 9.52098L23.9195 9.7373L23.7942 9.95363C23.9064 10.0186 24.0299 10.06 24.1571 10.0769L24.19 9.8291ZM23.9195 9.7373L24.0453 9.52123C23.9331 9.45595 23.8514 9.34912 23.8183 9.22541L23.5768 9.29004L23.3353 9.35467C23.4028 9.60706 23.5685 9.82226 23.7938 9.95338L23.9195 9.7373ZM23.5768 9.29004L23.8183 9.22549C23.7852 9.10164 23.8025 8.96952 23.8667 8.85813L23.65 8.7334L23.4333 8.60867C23.3033 8.83454 23.2679 9.10276 23.3352 9.35458L23.5768 9.29004ZM23.65 8.7334L23.8666 8.85821L26.0668 5.03985L25.8502 4.91504L25.6336 4.79022L23.4334 8.60858L23.65 8.7334ZM25.8502 4.91504L26.0673 5.03906C26.0977 4.98574 26.1398 4.93786 26.1912 4.89825L26.0387 4.7002L25.8861 4.50214C25.785 4.58002 25.698 4.67743 25.6331 4.79102L25.8502 4.91504ZM26.0387 4.7002L26.1912 4.89826C26.2414 4.85961 26.2989 4.83116 26.3603 4.81471L26.2955 4.57324L26.2308 4.33177C26.1058 4.36529 25.9886 4.42323 25.8861 4.50213L26.0387 4.7002ZM26.2955 4.57324L26.3602 4.81473C26.4214 4.79834 26.4858 4.79417 26.5488 4.80252L26.5816 4.55469L26.6145 4.30685C26.4864 4.28989 26.3558 4.29829 26.2308 4.33175L26.2955 4.57324ZM17.3854 2.25V2.5C17.6513 2.5 17.8687 2.71674 17.8688 2.98543L18.1188 2.98535L18.3688 2.98527C18.3686 2.44176 17.9286 2 17.3854 2V2.25ZM18.1188 2.98535H17.8688V7.39453H18.1188H18.3688V2.98535H18.1188ZM18.1188 7.39453L17.8688 7.39451C17.8687 7.66318 17.6514 7.87988 17.3854 7.87988V8.12988V8.37988C17.9286 8.37988 18.3687 7.93824 18.3688 7.39456L18.1188 7.39453ZM17.3854 8.12988L17.3854 7.87988C17.1198 7.87983 16.903 7.66351 16.9029 7.39451L16.6529 7.39453L16.4029 7.39456C16.403 7.9378 16.8418 8.37978 17.3853 8.37988L17.3854 8.12988ZM16.6529 7.39453H16.9029V2.98535H16.6529H16.4029V7.39453H16.6529ZM16.6529 2.98535L16.9029 2.98543C16.903 2.7164 17.1199 2.50005 17.3854 2.5L17.3854 2.25L17.3853 2C16.8418 2.00011 16.4031 2.4422 16.4029 2.98527L16.6529 2.98535Z" fill="url(#paint1_linear_1417_11637)" mask="url(#path-1-inside-1_1417_11637)"/>
</g>
</g>
<defs>
<filter id="filter0_ddiiiii_1417_11637" x="-3.69619e-08" y="0" width="34.7717" height="32.1221" filterUnits="userSpaceOnUse" color-interpolation-filters="sRGB">
<feFlood flood-opacity="0" result="BackgroundImageFix"/>
<feColorMatrix in="SourceAlpha" type="matrix" values="0 0 0 0 0 0 0 0 0 0 0 0 0 0 0 0 0 0 127 0" result="hardAlpha"/>
<feOffset dy="0.5"/>
<feGaussianBlur stdDeviation="0.375"/>
<feComposite in2="hardAlpha" operator="out"/>
<feColorMatrix type="matrix" values="0 0 0 0 0 0 0 0 0 0 0 0 0 0 0 0 0 0 0.5 0"/>
<feBlend mode="overlay" in2="BackgroundImageFix" result="effect1_dropShadow_1417_11637"/>
<feColorMatrix in="SourceAlpha" type="matrix" values="0 0 0 0 0 0 0 0 0 0 0 0 0 0 0 0 0 0 127 0" result="hardAlpha"/>
<feOffset dy="-0.75"/>
<feGaussianBlur stdDeviation="0.75"/>
<feComposite in2="hardAlpha" operator="out"/>
<feColorMatrix type="matrix" values="0 0 0 0 1 0 0 0 0 1 0 0 0 0 1 0 0 0 0.5 0"/>
<feBlend mode="overlay" in2="effect1_dropShadow_1417_11637" result="effect2_dropShadow_1417_11637"/>
<feBlend mode="normal" in="SourceGraphic" in2="effect2_dropShadow_1417_11637" result="shape"/>
<feColorMatrix in="SourceAlpha" type="matrix" values="0 0 0 0 0 0 0 0 0 0 0 0 0 0 0 0 0 0 127 0" result="hardAlpha"/>
<feOffset/>
<feGaussianBlur stdDeviation="1"/>
<feComposite in2="hardAlpha" operator="arithmetic" k2="-1" k3="1"/>
<feColorMatrix type="matrix" values="0 0 0 0 1 0 0 0 0 1 0 0 0 0 1 0 0 0 0.7 0"/>
<feBlend mode="normal" in2="shape" result="effect3_innerShadow_1417_11637"/>
<feColorMatrix in="SourceAlpha" type="matrix" values="0 0 0 0 0 0 0 0 0 0 0 0 0 0 0 0 0 0 127 0" result="hardAlpha"/>
<feOffset dy="1"/>
<feGaussianBlur stdDeviation="0.5"/>
<feComposite in2="hardAlpha" operator="arithmetic" k2="-1" k3="1"/>
<feColorMatrix type="matrix" values="0 0 0 0 1 0 0 0 0 1 0 0 0 0 1 0 0 0 0.7 0"/>
<feBlend mode="overlay" in2="effect3_innerShadow_1417_11637" result="effect4_innerShadow_1417_11637"/>
<feColorMatrix in="SourceAlpha" type="matrix" values="0 0 0 0 0 0 0 0 0 0 0 0 0 0 0 0 0 0 127 0" result="hardAlpha"/>
<feOffset dy="-1"/>
<feGaussianBlur stdDeviation="0.5"/>
<feComposite in2="hardAlpha" operator="arithmetic" k2="-1" k3="1"/>
<feColorMatrix type="matrix" values="0 0 0 0 0 0 0 0 0 0 0 0 0 0 0 0 0 0 0.8 0"/>
<feBlend mode="overlay" in2="effect4_innerShadow_1417_11637" result="effect5_innerShadow_1417_11637"/>
<feColorMatrix in="SourceAlpha" type="matrix" values="0 0 0 0 0 0 0 0 0 0 0 0 0 0 0 0 0 0 127 0" result="hardAlpha"/>
<feOffset/>
<feGaussianBlur stdDeviation="0.175"/>
<feComposite in2="hardAlpha" operator="arithmetic" k2="-1" k3="1"/>
<feColorMatrix type="matrix" values="0 0 0 0 0 0 0 0 0 0 0 0 0 0 0 0 0 0 1 0"/>
<feBlend mode="overlay" in2="effect5_innerShadow_1417_11637" result="effect6_innerShadow_1417_11637"/>
<feColorMatrix in="SourceAlpha" type="matrix" values="0 0 0 0 0 0 0 0 0 0 0 0 0 0 0 0 0 0 127 0" result="hardAlpha"/>
<feOffset/>
<feGaussianBlur stdDeviation="0.375"/>
<feComposite in2="hardAlpha" operator="arithmetic" k2="-1" k3="1"/>
<feColorMatrix type="matrix" values="0 0 0 0 0 0 0 0 0 0 0 0 0 0 0 0 0 0 0.8 0"/>
<feBlend mode="overlay" in2="effect6_innerShadow_1417_11637" result="effect7_innerShadow_1417_11637"/>
</filter>
<linearGradient id="paint0_linear_1417_11637" x1="13.3226" y1="2.25" x2="13.3226" y2="37.4772" gradientUnits="userSpaceOnUse">
<stop stop-color="#F6F7F9"/>
<stop offset="1" stop-color="#EAECF1"/>
</linearGradient>
<linearGradient id="paint1_linear_1417_11637" x1="13.3226" y1="2.25" x2="13.3226" y2="13.6988" gradientUnits="userSpaceOnUse">
<stop stop-color="white"/>
<stop offset="1" stop-color="white" stop-opacity="0"/>
</linearGradient>
</defs>
</svg>
